<mxfile host="app.diagrams.net" modified="2023-12-27T14:09:58.935Z" agent="Mozilla/5.0 (Windows NT 10.0; Win64; x64) AppleWebKit/537.36 (KHTML, like Gecko) Chrome/120.0.0.0 Safari/537.36" etag="-AGuvJgk_ZtfAdkk7gZv" version="22.1.13" type="github" pages="2">
  <diagram name="Page-1" id="CPLUvtZ-_fYhzyF5gcH-">
    <mxGraphModel dx="1961" dy="637" grid="1" gridSize="10" guides="1" tooltips="1" connect="1" arrows="1" fold="1" page="1" pageScale="1" pageWidth="827" pageHeight="1169" math="0" shadow="0">
      <root>
        <mxCell id="0" />
        <mxCell id="1" parent="0" />
        <mxCell id="H3LQPbuVWB5SwZg9GpPZ-1" style="edgeStyle=orthogonalEdgeStyle;rounded=0;orthogonalLoop=1;jettySize=auto;html=1;entryX=0;entryY=0.5;entryDx=0;entryDy=0;startArrow=classic;startFill=1;" parent="1" source="H3LQPbuVWB5SwZg9GpPZ-2" target="H3LQPbuVWB5SwZg9GpPZ-4" edge="1">
          <mxGeometry relative="1" as="geometry" />
        </mxCell>
        <mxCell id="H3LQPbuVWB5SwZg9GpPZ-2" value="" style="shape=image;html=1;verticalAlign=top;verticalLabelPosition=bottom;labelBackgroundColor=#ffffff;imageAspect=0;aspect=fixed;image=https://cdn2.iconfinder.com/data/icons/social-media-2285/512/1_Slack_colored_svg-128.png" parent="1" vertex="1">
          <mxGeometry x="-320" y="170" width="128" height="128" as="geometry" />
        </mxCell>
        <mxCell id="H3LQPbuVWB5SwZg9GpPZ-3" style="edgeStyle=orthogonalEdgeStyle;rounded=0;orthogonalLoop=1;jettySize=auto;html=1;entryX=0;entryY=0.5;entryDx=0;entryDy=0;startArrow=classic;startFill=1;" parent="1" source="H3LQPbuVWB5SwZg9GpPZ-4" target="H3LQPbuVWB5SwZg9GpPZ-5" edge="1">
          <mxGeometry relative="1" as="geometry" />
        </mxCell>
        <mxCell id="H3LQPbuVWB5SwZg9GpPZ-4" value="" style="shape=image;verticalLabelPosition=bottom;verticalAlign=top;imageAspect=0;aspect=fixed;image=data:image/png,iVBORw0KGgoAAAANSUhEUgAAAH8AAABqCAYAAACVpo47AAAAAXNSR0IArs4c6QAAAAlwSFlzAAAXEgAAFxIBZ5/SUgAAHXVJREFUeAHtnQmcVPWRx6vPmek5mBPkkBtFAS8Q1MRr1Rg08YommhijoOJiiEfWjclmV+InxpiNR9ZVCa4ESci6ksuYqDGJqBFU8FYQBUfkPoa5e2Z6+tpvvZ43/bp5Pc7BzLwe5v+Znu5+7/2v+lXVv6r+R4sMpoOWAi6n9XzhwoX+nVt3nhyKhtYtXbp0l9Pa19n2XHHFFWVer/d7rrjrOM0Tj8c3jB47egH9i3S2jN5+ztvbFXS1/HXr1klhQeG/e1ye8quuumolBPxTLBZb+8gjj1R3taz+eH7BVQsqml3NF8YkdqXE5dhoPJrrdrm1KYEdO3Y4StgcB35JSUk80hrJE7cc4RHP2Eg48hWXy1V5zdxrVseisZXhWPiNZcuWbe8PYDPViTR7t2zZMoX7FwYl+AXAHi8xKYzFY14YQMRRkCd74TjwtWlxV9zvEpc7Eovk8zU/HouXwgBTYYjLYYhdc66cs47rryJdrxQXF2+47777ajVfX6Zrr73WR5smRcPR0wH+TJVyt9tdGo1EAxFXxGO0RYEn8Ry8EPMnvjnnv+PAHzFiRHTrJ1tXQqLRXre3FJUvMVfME41FDUaAKcpcbtckCPr5eDQeqqut+5jh4W2+rw6Hw2thhsr7778/1BskXrBgQVFjY+NUt7hPjUViJyHZU6m3mDblwag5fE9IeRvoHrfHAD4u8SpP3PO89q032tXdMh2pkK688spipOgICHsuInMBxtIUPosyAlohta9xiXo8nhD3WxgW6lCxGwBnFZL498KSwrfvvffe5tQMXfs2Z86cQoA7DhY8GwY8hXom0rY82pIL2Cr9CRqaUk4DaI9wTw27t2DUJ2DKZ8nzIQZsn2uojnrrSPC1wZdcconH7/fnQ7Qy3s+AAS4B0JMZT/Oi0Sgf26md7B8XwSJCnmbAaeLGuzDCn/15/icfeuihyuSDn/5p7ty5E6nzfKo5l6ePpMz8NsCT2rK9CS7hfqJQl+ygGX/zRD1/DMVDr2Cw1jc0NDStWLHCUVKvjXUs+AlKGv9dMEJuAckdd093eVxfApRzUbXDeRek0fJoao9glDCgBGGWXW6P+ykAWbp46eJ3UzOkfrv66quPYjiZQ9nnkGcogOcjxfsBrrnUilfQAbuJ9qzFJnmytbH1OV++7xMs++DTTz/dK8NPaou7/y0bwG/vHUzg9/l8+UjTWF6zIfhFgHMMY6snRRuYOczegQ6quAlAd/LxD/je6i20iar5MAOMS0bxzAUAegjlBfieKMEy0piAw3RRPm9gGPoLbXgmFAq9Q5saJ0yY0Iz1z+Dv/GSSx/kttbQQ4rr3rNsTqPPXFed4c2ahDb7A7TPxCkapJAKGjrnJHGYvQR6AgtxIUxdtj8bFE4niYVhA149apg7tMIQOKxupb6U74v5r2BV+nSGphtxNixcvDicrzI5PJlmyo7U2rZw9e3YOVrTaBsMB/UTk90wwPglGOFQNLx0a2l/pxqJNeQq2CbiRT+LKLB9w8UWGnVVxd/yt5ubmfTU1NU1OV+s23Uu5lPXgW3rjZljIycvLC/Aa1traOg2GmAFDHA2YE3huKINzAMl1qxSnpzagI7zXkW8bLPMez7zG6+1IJPIh14K7d+9uBvBWrlkGgvSSsuf7/lTox7YTOJkGWDMAoCYQCDyHv17fzea4cRf9wWAwJzc3NwcNMATAR/AahuquAMgSxusCIPQzZiuQQe7twSDchirfwjNVeo12tGzdujX0/PPPdzkef92V142NeqL/xADki4fje3xeX2VYwpVLlixp6GafDng2R4BPkKYC4n+H3n0JUIogeozXO1jbv4EZnoBgO3rYc9dpp53mmTZtmgfDzIMke3C/3ISSjWJhkjgMEa2qqorgVER64Ja5cBGPoe2X0YNzYbrhWgHfo9ggzWigSvyDv3pzvMsXLVq02ai8H//1O/gEUUZgfT+MMj4FUAoYW40EE6ib1gj4m/n8NyT0CbTBa70VvesJBsq8Xpf39KhEz0ObfJZ2l6m3wNCR9CjQL1yPwORNMMZmfI2fwNTLe1JvT/P2K/iES3MIly5hBu9iwqOJ2Lc5mra1DGmJqZsGMYMwyJsQ7+/euPf54bHh7y1curClpwTobn4FHIk+nrafCWOeDOjjaGs+/ciljYlizb6YlVj6BEPXkm8hDHC/ebuv3/sVfMblr+OjL8Znzs1oQllaiMpsZShoxh1rhFA6ufMahH45T/Lejvgiu3rT3Zo/f34BYdoxaKcZtGMWUj2DusfShgCMmYvGSpnM4XrmRJ9gFHUfq70+72W0+9nMD/feHQtpe6+S9JKRGNe8efPywq3h5yDALFR7+iP2383WqgrVYcHjbqEsjelXoUY3UdYGPPj3XF7XR/jfO/Hpq8rKypq6soBCtRFjf2FRbtFQwrMjUdWTqWMqUE0C8PEwayHfcwE8px1wbW26lNv3IHmVvujED31/oThYPPveFT2bg0gW3PlPJjk7n+MAPKnToS0tLTO8Hu9KDKGcLhNO22BpOcAo90QYHtQNawWYMEDVc30v4O2h/Dqs7mpsizqYJAR4+oqhsn0879OpYxinhFexvnNvGNdLyRcAID9l+bnmQ0PpRA632lJXATfzme9aVFxa6cupTPq8Yl7uq/dkzLqvaqQegiR+pPIsCJlDUKZ7yUJ4xk41rPwMB8k587gMxUYYB2gazYuhKTR8q7WpZa+59YWjF3fhhum7qm03xpgG670wixEPgDG4nEgwU9cl3Mxs904LaIsfOlzA7YMDfFRyDpMnX0sJwdoRp7PXLIzQnkXVQWJCJsHgds+0P5z2AYzREgcW6LQqzK8GDeJyKd9vNa/11Xu/SD7jnAdJm2BV3Qe8w10B+4BX3oUCaSeSH+hCjgP2aNIPPWBFdrIgtY6zBaBOdinbHus/8AeB73de6T/w+73rgw0YBP8g5oFB8AfBP4gpcBB3fVDyB8E/iClwEHd9UPIHwT+IKXAQdz0Z3l22eZz4c65nzVGAecZeJclvWqpzv/TiPb1aRzYVHnbnFMjybQ/2dZt1UjGRfr39LskNzJdQS68PBW62Ww2r+6TX6zG75vT3GPP6u4vH9K7E2RAhKfnxeIW0thZIa+/vMNJe7iwYadOcg/hSH9A9nbpW8Im2a8B9MOieTqSB+n1Q9Q5UZDvRr0HwO0GkgfrIIPgDFdlO9GsQ/E4QaaA+Mgj+QEW2E/1KWvudeDirHzGcGP5ZvWmNcujLdHDMd+M6//R9AKeBDb6CaWzCFSngcLfRAb9MKPDI+CK/DM1xS47HJUU+t9SHY8LebNkXisnWYES2NEZlS3NEdjax+y5KIQOUGQYm+Ao4El6U45JZ5bnyuRF5MrMiTyYVecXndokXMD2865jHG6d4JIRfcY7wRRmhvjUu79WGZM3ekLywKyRv1IQkxFYQI5N140YWa4aBBT7YKJIj8j3y5bEFctHogBxe7JcAaDdF4rKhthVAW6WyISJbmyJs7YlLA9cLfcoQLilHGxya75VxBV6ZVuqXM4YHjNeNU2LyVnVIntzSLL/bEpSdQfaBKNeoRsjiNHDAB/Riv1u+PqFI5hxWIOMAUdOLu1sArUler26V7ajxEGCH26RbeUX3ZuhpLYqjBwZQraDaIZ+ydIiYUZYjZ4/MkxPL8wwtcs3hhfLYR42yjNcOyiOTVpOVKdnyX219RLy+ORLq0ZmFfU8EA8G4nDosV/7t6GI5vjwHcEUe/7hRVmwOyrrasAQBHC3OHk7+6fOdSVBG2Yf91hLAXpgyxCcXjM6Xi8cGpMDnkQ/qw3Lfe3Wy4pOghHWYycKhILvBh+gcaS03HFEkN08dguR7ZAWgP7ihXtbXRqQxqoZcG9LJnnYG+sQzZl6+qUYoQMrHFXrlGxML5YoJBYbj8KetTfLvb9YYhqIxFHS+9H5/MrGnXJtx0c3ni9tzrESTGxP7vXUdNQDVPTTHI3fPLJV5k4dgqUflljXV8rMNDVLZGJEm7htenYLeHeC1bjMv7xQnLRS4JxSXl3e1yAsYghNhhNmjAnL6IbnycUPYsCWySQNkJ/ggMSrglYc/WyHnYdQ9v6tZ5q/eJy8wvjdgxPUYdDuma2MEVQbKBNtxCZ/d3iIR6juP4eDzMMEWrq2vYZd4lgwB2RfhQ9WPxphbenK5nIUL9+vKBpm3ap+8WxeWFkXGlFb9rOJ6oJK1POpQr29nS1T+k3F//stVGIkii04sl2sPKzyw9R6o9tuUk13gQ/ByrPD7TyiTU4blyQOM7besrZUdgKA+ert6B/QijLQL0Ap4bz1PMNxEYgTnjspLGIyGgZeor56KV3zcJJe/sFfqWqPy4xml8jXsgUSDel51b5ZwIEjTm+1Llg24evLCj6eX4XoF5JGN9XL7WzVS04oOtko7YJyG5f/YyUPl4c9UyNn46j3SANTrwx/8wTEl8gvKfHBWKS4gfoCpVai7GWZ4HjtgLkNPHe25Bwb4HO6h0xkge8CH2HMnF8plE/IZa5vktjfqpFb9N7MHxse4XHd4kSw7ZaicwZCgQZubpxZxtgoIcb9biXq/PCEgF6JFKihPLf3HTx8mZw3PTYKrwwCFr4IBvvnKPrSNS+6dWSbjMQjN8HK36u7lTNlh8AHArIocY0zdTcz96lVV8okGWCzAq3q/Hen8zlHFMiyPH2NRbUAagWG4AZ/8PYI8XXbFkOgx2BeLTqqQEZSpSQNAQ3M9ctohAfm4MSwfYGsYBh71qaH5CdHDmkhMLkf1jyLvHz9pSpzy3NYeoxCH/DPJ55Dm2DQDic2D4D84tliKQfi7b9TKh/jw1uRCrL9/9BBZcOQQKcEmsCb9evORRUberkq/h7o1cHR4kZ7blEzKWKOJ/j2AgafRv3b1znU9EerRDxtl+UcN8sVDA2gNfh3GHCKSRTjiUyqlHNGktEZAuEvGF8jpjN2/3NQoTxOqjWmrTUni/lxU8Q1HFEuBRmJs0jGEaL82oYtWOLbDObhvX6VuU4tYi9aaRgQ88t+zyuU4oortAHMjSHDpjnfqZFdzVBaijcY6VP07G3wkT2fmbjyiEMNO3ap6zlGD6ibGAD8dwi88tsSYnLGCY/2sPLGAMoYzBHRK+qlDh47bjiuR/AwMpeVrM8bjBdw5vdiYGm4vG031UV1E7llfJ2MxDudMgvH0TDCHJWeDD7jnjy5ghi1HHkGVfsTYbR3n1ZC7DbWsEvhpaWKhT65lUqZdQjvKwFh/y7QhcnRJ8mS3TI8rAXX8v/awopSyVTst/ygo72JrXAX4Y3XoUBfRQcnR4Otii2smFUgD7tMvNjWkCg+MccHYfFwq/TWUT0+quq8GhElM0HQIAur+DCz5uZOKjHj+p5eMCwoVvzWlUCZYy6a+GkKBiz5okJEw58W0NbUDnSm5d59xLviAewwqfWZFrjyzs4nYOUaeiTIClM8c/HVE09TK72zSef7rJ6uEZshBuaW5brn92FImiczKMjybdlnDzV/HPrACrNPFT2wLGqHgy8YFmCbmgoOEvwukS+ttb38FoPMOzTPAfbwSdwlmSIIfl1MOYX4dxuhK0s5+FRfsWAxAW/WPWv4WHsPxuJVdTcoqGtkbBoO1A0yFuxtj8tT2ZmPoms6qog61Tlcr7eHzzgQfnHOQbF1+tRO/fnUVawyskyXcv4jJlDSvrp0U61mt836dOl37Jw383DClqN10aH8C5joJZppPkIiqMyadPKrVqKJN0hVAJxN2tjIWPwMpf97abJSps38ZtY5Neb19yZngQ7CxBT45Yohf1la1yt4m0DZbinSWE2Q55ZDM0rn4wwa57c06Yy1eOgEV1wvG5JNfgaBcTbwVgfjtxxVTtllR4pb1/xamir/JJM6Le+yP+Ve7Yjbxfyuf6pc3q1tkL/MPCr5PH2qr1lp2f3zO3NP+aI1ZJ4J1ZLHPcLNe3RMSDkM27xiEm4wVPh7r3S7tgch/2tbM0q2gPMW7XRqC+/btKcWSY6JE+fMOH2JIbQdCL/e+Xy/v7w0zkRNs55v08meW+XE7IavZZD7uaI6hicIylXaXB5xDcue0xEpFCDdZLWfSe6q+rYjAGFOHeDNa4rradjPGYQuA/vDtWtnLIg+7dObIXJmNTSGocA3S3MhYn2kY0fzP7WyRZRsbhUPX5R+7Q8biEbtyx8KUwzSe0I4+NiDLiXQYKmXIGZGn/TI5w66EvrvmTPAB+wgA1oWWlayhTwEf2hzJitxM6SXAT6y1R91WheRuAkN2SZd/3TRliFTghv0HsYLhHUikztTdxgxiNYEmbcs25hXeqdGpnP2TBoUm0/b0sV1D0srDuijU6hHsX0LfXXEo+C45BAlpRmJqUeMp6NPi0dgDmdImllMZVIbS/JqR/A/j/1qYwC7NxPpezGqgs3Wctnug7drDSLwOP+YETpTw7cYGe4NSyxmWs38kcU+bBlJ7xSnJkeArAXXY1NUyxFxSsNd7mejXiqbYpbN9JpK869q+O96tlZBRUCrZtRxdg6daIFNSdf1fhGm1Le3l8rnGiDPb5ypLb6C2o81D2O+efRF9ctV54ENYHXvV+tZtVC3Ww6G458VazjSBo/gY8QAr6ZD+Z9hs8dhm/U2m/VNHQSLllzuZoNmmQ08apfjplf0La7vCIuL9EnxpJDX2nZLSuuSAZkEcXaOBVyWFXjeMYGki99QO0A0zdsmPBBcq51hxIQ8/qCM/eadetrHAsivpGRaN/Jb5eONHXNIyWqtIu2UMV+nXnPjdQlnnNE/nPxRksN/fqsfar81gwatQBTRTekL6ddHFz3DVOptqqEO9hSYWZrSre0vmwg5m+/ZrH/3R4JKmvUzzOiXZUMoBTQN4jewVMPAXGf6XRc74qON4pjRcx1vL48ZzcEWU1xJmBl9Sw60TaRFG3ut71c1UlkpLaJjR+Zk9Do01pDNMadtYUM1O4PR7aaX32Vdngk/3N9VHDKkfXwiY0MuaPmCuPFOawPy6bQJDddXueEelOZ07UnPoZs4H1MjTy+nYk1Xd+InaLpvUiGW4ScestHyH0S6ttVLHrLR7NsX0ySVngg9x3q9PuFKHFRHGtWJFi99kjlz349mlmUzaGCFUu5tI8UomWZazpStT0uHmRxh5O5qowJY6caKLflbn2LublY2txjo+K8JuNMVkYhN1SP32oLKUM9C37V4mwvTZdQW/higd5vYJFX5xpbTSJRthjF0MC3bpSEKoY1T61XBIT5Srxt9P363jAAb7/E+y9+4JNl/qdKxtQnDPGJGbcYXPW/vC0qR+odlm6htGAGlaiU/Wsxhlr273Me/ZVtB3FzPoyL5rgG1NSKgGa3Qn7AlMr+rCzRp1ARQQCLcbqVzF2H3puP2bX8az5+G73wPAxjbb9AqQwk2Ef299o4aFILkpMXq17R5i8UWT+ng8Z5fycEG/PMZ+AUkUoH8P8yTcwLb8lDkVqa/AFnmUNYghrcQh/t7+1LPrcV9fg24a3VtJPP1b7MDVbdfPoq5N4ysGkf+PyZVL2C6te+qtSb99g3n1X7LyZ6/JMNYH+Az55fdM/PyFqVZTP2g+/ax7/cx6+JqauHcOK3KMefnUO8a3ddgKum8whXEobnbbaqO/7bSfaLIpqk8uOUQB2fRVpUhX6nLrK+NYIWOipI8CuM6rb8gwZ6+q/5vE7VPE2loFSKtBXo0U6hp7fZmfI1pRKj8lctIeXeVzC1vBMwWGlmwMSp1uGDTz81HnDi6ESXWNwRozRGxtSz9+di74qF2Nyb+5LyTnsKhDN0C0MwCtrmXsfGBDY/slKw3VBb+eRRmXjmfdXCbLXgGye1kLsnzW0ztuYRpYVwvbJW3rr1DrKQEhjEcNH4/GPfjN5ibjnB+njPfaB+eCDzDNmPQP45sPQ3qumJi6+VENssdQ/WuZxbNLOvbffXwZR7QU8uvIIAcQ3U6o+6vYG3A9mz/sYjs6RP0IG8OI3ytDaaK6AuyD+awY1rjE/+Jh8IPPiXsO+e9c8JVAqPffMja/j8qchySP0g2SJv1ouUbh7mCLtBLfLumS7p9yeMOiE8rlsyzRAouuJxjn88z6/XA6ewPskKfE+4gcPoOh167utRaY7SIOhToO13MZS7g3aWwizT7pemMObA5ng68Ao97vW9+A2vfIv7KWPkWCIeZfsAvuXp85bKvbty5Ha/zilHJD/dq6gB3RFKPjfNYLHtK2Vy/90T9sDcrdSL16cO3gwzAjUfXfm1Ysurfw5x/UJ6bwu8N86RUewO/OBp+OGuq9MigvsgNWd76ciY9t3RunM6v3Iv1PbUPyMqQ8XCt1w3ZrWDijA58hM+Wv3tvSjqv1qWfwQG56pVr2acTJQknV7reyQET39N+1rk4qiVZa71vL6M/Plib3ZzM6qBtpaeBnWW7j0CONvt01o8w4K69dA9CD6nBUblhbzWGJ9gsrtfTXWHsXtG7p7qDKlFsYni/uDDHXAONY0p9htutfadstbLmujKmHNV2FttFnHsUD0HkFJybng29QzSUv4yb9kEUZR3E44l3Hl0q+BkrMoR71r9I1b3WVcUiCHaFXIb0pC0HtHrK7BoX0wMZXLauBllc2ynUcxPAxa/KNJpjgAvyprNC9k8MZdpHn1teqpQHGtFUbdnX18bXsAB/iakR88fsNspwzePSghNunl4oRXW9jAB1yNxK5m/vSXnmU7dHW1AwohlfQzd7G0DhPYdDVsxrn+2igm9bUyDY0gWG9W4DXzR4PnlRurAy68bUaIpTOM/KsdElOTTn9KDaIrOsn1zDNOpU4+cWsvc/F+l5FsAdsDenSN85cNOyDIIGbo9ngmcczejTbnYy9xkoqEywrFT71s8uwF1YyrPyW83c0KJQizXgbCvySk8tlbL5PFqzZJ3/ErzdmD7pV36c26IA8kD3ga3chZCOE1uXZMwi26ImY5Vjhq3c3J9boaTyeP5X0N2GSl1D1GlPfiJv1OKB12+iiTJ2M06PWWIKfBF65Da3wRTTRIiR+ZMDHnME+Wb6pSQzrg3xOTs6M7XdAMaW3SvI1q/bKfbPKjJ23I/K88t3X9yW2cHvQ7RC9AVBeYn39+rp9xnpAzdeTpKO7sZzQBJTydbPoAg6AvJnInw4B/4wB+AckXg9oStEMPam4F/Nml+QrISC+AqmHMal1X5HnZoIn3ziAaTcrd3Um0HgALQA+rPdj+TfPdtXDs6W5Aq/A8jcTzaOHLl1B5E/P5lnwcrXomr9mbZzJILaFOOdi9oGvtGtjAN21/Q/G/H3M0nxxVL58ATtAD2HQQ5F2m64ZnoDi0eOknMSfHrn6L0wa/RiPY2pJjjyG5f9t3My3WGCScmpIjyvs/QKyTu23k8RggDhLs+JE0BrlbXbQKCi6TVqPQn0cUJYTHHqb41DVWjfG+66EV5Vj2qTcj9E4FePxUvbYX0zItgI74wNCzje9uk+e3cGuXYI8+ni2SLxJw6SCytYj17UnUF7j9iUcxHzhoblyDUek6I8sNAKKTv0+jZv2KkZiJQab/sBCuypI9j55TctjyCjmLKCJWO6fGZojZzEfP50NmLqgVFcR6cFQv2MvgPry2Sbt2j0zJbufzeBrb1T06E0A6VYP4GzCwBfjDZw4LHH+vnoA+rMpumfuQ1YJ7WFY0EOeNDKr8aISVtcOYR5gjP4Gj24Ph3l0YiiXm+rZrd7TbKwvWMlPrlSRV5f4GSt2khQ0aZo178mmZzv4JskN/Zs4u09/VOkoFnaciA/+GWb1phAfKEU7aJhYFYC+zKReojKB/tyK3tcNHrqKVyOLa1hToBFE/dGGZh1CNCUpl/iehf+zd8zPROw2UBSkZlbV6ITQGly+n/sajLF6JFrhUKRbJV3X0useD8VTl3XrwsvtqHI9yFnXCeqwoYtIdcZOJ4aMNABAN0k38MA3e9YGki6k1Z9BaWBwruK1EVfQu9sl6ua0xYSMEUMZIEYeBTmCX5jykyxa1gAC3STRwAXf7KEFNB2jdYwPG3CbD9i8mytuLHltnsr6SwMf/HSIBjig6d3t6Hs357k6KnLwXrZQYBD8bEGqF9o5CH4vEDVbihwEP1uQ6oV2DoLfC0TNliL/HyOEvS6Nh8GPAAAAAElFTkSuQmCC;" parent="1" vertex="1">
          <mxGeometry x="-10" y="181" width="127" height="106" as="geometry" />
        </mxCell>
        <mxCell id="H3LQPbuVWB5SwZg9GpPZ-5" value="" style="shape=image;verticalLabelPosition=bottom;verticalAlign=top;imageAspect=0;aspect=fixed;image=data:image/png,iVBORw0KGgoAAAANSUhEUgAAAKgAAACoCAYAAAB0S6W0AAAACXBIWXMAAC4jAAAuIwF4pT92AAAS2klEQVR4nO1d/3XiuBaW5+z/yVYAW0F4FQxTwTAVQCoYUsGQCoZUMLiCJRUsVPCggrUreKEC3lHyKaOYe2XZ2JZk6zuHM7vBGBt/ur90fyTn81lERPiKP+KTMSNJs1shxEQIof6VGONVxGf8fy6EyArvvQghDvjvTL3O83HxuAgNUYJqSNJsChJOQMDP1h++DkcQVhJ4J/89z8eS0IPHYAkKyTjVXnceXJYOKYV36jVUSTsogiZpNgEhFx4SsgySsFuQdev3pTaH3hMUpJSEnAkhRh5cUhM4gazbvpO1lwSF+l60ICl152dHvH+AMzQl3lOO1m3D16TIuj7PxweL44NCrwgKJ0eScn7lqfaa03Jow9vWogMqIqActJsrTnsEUTcNXqpT9IKgSZpJUi5rSqaT5oxI75mSjJ0hSbNxwXmrY5bIe1qDrEFHA4ImKIi5qvEQj5oN57Va1AgrbeivFT8uiboBUYOMAgRJ0JrEPOJhbUMO2SRpNgNZq5gxwUrUoAgKG3NTgZg5jt/0LY4IG3ZW0bQ5gaSrli+vMQRBUKi5TYWdnT0exCDihQilLUFYGydLLtxlCL+P9wRN0kyu9h+Wh6d9DbfYAFJ1iZcNUeVCXvisXbwlaEV1Lom5iokXb6hI1BN+u3VX11cF3hEUP66Umt8tDo/ENKAiUb2Upl4RFLbUxsLo34OYTmOWoaDCovdOmnpD0CTN5Cr/WXLYCcZ9b3ZKugQEwNrC2XyGNHUeknJOUKzutUVc7wmrO+ZJXgnEkdclal96+jPXDqdTgiJ8tC1R6TlWc1TnDQKCYVOyO+VcYzkjKNTNrmQVR6nZMiyl6aOr4L4TguJH+WU45ASpOZjEXJew1GTpeT5edH2ZnRPUwhk6wvaJoaOOkaTZusTTl89m2qVG+9TlT5Ck2aaEnCl+gEhOBzjPx1J43EODUZASdgf7tRN0JkFBTpOn/uDrbsbQYOEfdCZJO5GgJeSUq/U+ktMfILQ0BhEpdCZJW5egFuScDjW5w3eAgDuD89S6JG1VgkZyhg0QbwrfgELrkrQ1CVoSSorkDAwlwqY1SdqKBI3k7B8QAzVJ0lZ8iMYlKDzA/zJvR3IGjhJJ+oRQVWNolKDYkTgw4YlIzp4gSbODwXG6b3LvvjEVD0N5G8k5CEwNIag1tGgjaNIGXRtW1TKSsz/QvHtqx0kKqG1Tnn0jBIVTxNkljzHBuH8oIekIqXxX42qCalnaFNKQarAjqgFakXOKviIx6Co0IUE3jN15NFx8RE8A7fjE3M3Pa+3RqwiKmnXK7jz5UtMS0T4QWtozX3SVqq9NUKwMrqFCdIqGhwVjj95BkNXCNRKUWxnP0SkaHpDDy2Xc/6ir6msRFMYvq9rrnDMifKBE55m5kVpboZUJit0iTmRHuzOCU/WfEY6shDoSdMV47c+xyC0CAooj4rpqAL8SQdHQiwrIR9Ue8Q6Dqr+pGnqsKkE51R5r1yOKWDKq/gfMRCtYExTSk+rpc4z1RBFFwKvneGEddqoiQbkvi7tFERzWaF1UxNxWiloRFI37qbDSPvZMiuAAs481C21+OFsJyknJmAgSYQQ2bWpL0VKCGmzPKD0jbFFbitpI0Cg9I65CiRQ1xkWNBIUIpvpHRukZURWcQDM62X+UfElvpGeS5mpW/K02wFVoU4sxq3MU47ktQEpRdM8r7kIuTHwyVnUmafZCnDA/z8fWgVaXSNJ8qs2Kt50ifER4ZBvJ2iwMM6++cdvkLEENzRcaLSttAyDmqsJkOgoYGziqrC0grSealNYxWEkNk/Ff4i2ZxzEjP2Mg6JawP+VDG/u6rZmkuU3f9apAj/yR0eYGKauMIxykpGZ4JfEnxSvSSYJnRZ1k6zE5J2ga0SQ5BSoU/0nSnLTHkzQfJ2m+QzeVeQVT4g4aKkvSfEgREU77khKU8+K5zCQvVTvIuas5/N8WP5M0/3D/INa/V5oSN28JFPkB99FrwNakQk6kAOAISrE59zG0pJHTVnJdg3mS5mtpSiRpvq0w5NYGaGWYk5KkZ6AcojtqZ+mCoFDvlETwLhkZNmdX5FT43pIpIXAffydp3vfcWk4TT4t/oCQot4J9VO9cL6i20aYpIfGrz+oeFb+Umr/gHhWov2Ax1LtXZcRQhdfYfr5Dqvux7uEXNhsm+FdBapIXhLBC2OXbEiNvLrQSRVBKgvp4w31PkpaaYQ1bd2YRvnpfrEn6KpyeEcLyNWa9o2YyyeQk3df5VHhzwvwIXtmfsNHaVrM+QIat/q4YvlL4ClMh89GmNRRYftDgRRuUUu/CQwk6BE+3KYw0onLP1xWodjmVCXr0KTgPz70ND7rvUBsOPm0KUILvg19RJCjlOfomPX2TAqFBbgpssNBdg+QWkuRf8Un74y1j1/lG0N7vtnSAuQ/P1bDx8/6MP1F/LMC3LnWRoM3grrh16wiUHUoSlFKdJw8nD/ugmvqCOZcE0yEoAfi+5fmJ+qOG2OOz//jpeNeKEoDvjlIkaIRwvOlBckwljugEpbYNfVPvEe3gs8NgPicELwha5cMuERdNO3Biixpi7K9mxytB9bhTAT6SIZod7eDOoS1KefKvzrBRgnrowYsO4ndHJhWsKeR4IFRrQtfwac/+g4oPJrZ4no8OLT/cZUsPShL/y3k+Glcsg+4SrnIcKKHzgaBUbJGbe+MDQpwiIh++LBWRZbT/8+B6KIw82QJ9R5PDZDsBMnJCy2Y6nuejLJBeqr5oUysv3itg1+OfklxQqf4fpTrF676gDZ7xN/X+o4XJoH/mgTj+WTvfNzmjVHvvXjMZljiGOm/xOqSt+gWmwRNxHym+S33nkTnvU0WTyEUyDqXiX5+xIih1UV45SNg3/mlx6BLdQMa4r0wzCU7oOKLeGyNIbbI50/N8NMN5JjjXWHvoe7z/ov2OekqbPPZFlm9omfHibQr0h/Oucaxy0DKUbszw3otmin07z0cL7TvH2nv3OK/AeVchZ4CZmod5Q1BITm7c9wfIEgfUK6m2PXpp8A0aLOi4Pc9Ha5RJFCH/uEQOpTrP6jwfSVtyjb9tSqpLf2gSQp0jl4sI96UWnVo4q0LLoTG0hoJcMFss2OJvssf969075IKVzSVS29/QJ3iv4mFz2khOdfxEPkCoPS5clEKlPkIKcdihaO0W6lW+DlotvsQEx0wMjuWhIMXUZ3VbWpJ7StQQFaWfKpUw1Y7p15thAQUZPy5rv+gDqnrsshpyiQe9BcHXaIxwwgN/0R6w6cEpLbIt1GXdas7E9yTN5fk25/loClW+1iSYlJZKxRfPW8x/mBD1X0Wn5QX3RElrdd5i1jzXyMx7eE1QqMCqxXE3qMFZQx2vofL/Rbe6AwilHvDeYKOph1rWKe8HMtWf0Whshn5NnzXS6ERT580K90ctFirsw0l9dd7NFUWFXvXe8l3F1wnLKOflBqlkC4R4BNTduEKQXBHXJMV1D/mrpmYV2dT/61NS1HmL0nJnkbQxw2aFqeDsmipcr0wBbwkKqVdVCuSQIg+wMx/gNKgHNwNZ7xGKeSohnwxcr2Eu/KXZrfeafbvQwkTyO6ew+ZQJkRF73PK8r9JdC139hffKitq+w86W9/QffO8DwkyfsSCX2nuPsMdtQ03BENS1zVInGD+CxBpDihzggSuJ8hWq90X15hRvi0HPh1wUwk7f8ZkZzr2D2lWqcIPjX/Df00KnvQMT/P4Bb3uMYxYFlS897xXXBBfXfKtJaHU9v3DeqXa9ts/y6Fuv0tcGtkxrZjkowVn8TLYjZIaHhYQTQlJUSMhHPEH6dgpk0/1T/M7zfJz4bIOGTk6hmQ+hBMpd5TiQ/cCEr158ISQTIh5UEy+o4hDa9OzhfPmCV8dWEZSyO1x2jgudoGNkLl07yKFLeNmGXBE0Zqk3i4uubZ5j77hlI5sLYjNpzgXigukOJ88y6RV+E9TQgsQJQeMArU6x0jYyXIEyg145UObFu0xe9Tmjvy9IsVngDIZhsq9aVCcoRQiXzkpU8+0iRU6pa3BC8MIGpcS8SwkaYt1RKPCFnILjmKoo9pagiMkdLQ6NqIYHj8gpGC39rs11glKO0o1DT16EOPbbY8jF/h/XNicBSgi+C0udoJzN51KKbqOzdDVy1ClNPNspUqA8+PfrfCcoeuRQJRKu95EXnnbh8BknpP69NorwdRSNoeXSO0GLe/EHYt/YKUFljA65oRfZLgOECqorrTYppNxlyAEIJQJCckuPyxcJuiMmaMghn7cuJ30g6eK+UO04RCxh9ng3N7UmKIJ+MOmKgXpuR8l5uhjU1JcBq/vU46lxdUHZnx84+IGgmMdJEcCLVjNIaBijXGNI8Clu2QiSNOM4xRMUoNSHNwm3cp8enTO+DISoT30jJ1BqfwqGoGSfHMzx9AZSmoKof6KILSX6bh4DDlPJiMo3FyUYHYGSoBcCh8qo3zLOyMLH7mzIfNqYtkYd1zftYZbYZtXnuBdZTdrLrC4IO+r3uNDeFwSV3nqSZnvCgJ0F0j6QwgpTg11ggVCZmvU+JZoxvCDEtw0oRHQNOJPlQnu/VnVe/DHNlkw/pC+G3FGvoXX66BJOqiT9fxZZsaOKwNDiCzOSywfl1GXIxnrXO1J5zCW4BLx3Sr2TOQIkQRGUpzzkmSHB1Gt03OH4hC4msTLgEpyQIzcfTBn11AduAmy//Q4Euu87+KrFQGzJSkBmHDXr/5nbqWQJep6PN4xKDFpttUzSExI0+rIV2TQ46clGYMpqkqgPjgxZKEFA2zZtch7SEQ1og3QiOwJlYuXn+Zhd0GUE5ZJbgzf+QaQJOtxdgxP6zfuab+kFkjRbMG0vjfkFZJjpwwFptmXshmBDTkWg1Y7qamcbUD+qDYLoDJWDCS1J/GnKlLMhKNl5zHX3u7aAgPpEmwSioILpGXrXx6G2loD0pHYn0/N8bAxdlhJUvH0BF+TujRSNaA8G6flX2TxY2/aLvbVFI9oFpCdFztRmWLGVBBVvX8QlXEQpGkECmzpUGZGwkZ6iYo96bhfGtzLWCH/ATWmxkp6iCkEhJancyjskl0REvAO7RhwvrE3Dqi3AuROvQt2jj2gNaybu+WgrPUVVgkKKpsRbN7GXUoQCMpao2PmpqklYZ4jCitmj/2oohIoYCKBJOWG1rFq+XpmgEM+cqt9EVT94bBjVvkcCUiXUGkNzno/XTOe5qOoHDINqF3Vzca+Zk8RtUX1FcDZiQIDXzgmnR/RcqIzaBMUXPjJvr30rU45oHZxql7VGtXccr5o0hy9mVX20R4eBJM3WhoLEq7RpE6MQuWK0u7jL1H/AnOPmQj3UVe0KVxMUF8AZwHMMqo3oIWDGcULoGc70VWhkmCzCB1QAX7yNnY5OU98A823H2J15UyXqTU47XhqGHkSnqUcoISdKrpvpJ9sYQXFBM8YevXkbwh9J2hPsDL2ultfanToanRePXSauDCSStAdI0mxjIOdTnd0iExolqPjtNHF155GkAQPknDN3IHM8G0+7bJyg4rfTFEnaI5SQ89hWWyHrko9aJzff1Omt0UFz9kpE84BDtC4h57StIRutElREkgYNzVvnbM5WySnaUvE6UPfMxUiVuo9xUs/gAzlFFwQVdiT9Feua/AH8g8w1OUUXKv7Dl5nVvQCJK2ddRzQHaDOunkh0SU7RNUGFub24whE7EbG1TMdAVhKX+CG6JqdwQVBh7tWjcHprAsu35Yto9HmM0bDYNAmltI9SG3BCUPHbzuH2cxVka8RVVPntwUKlC2TEO8lKc0ZQYb9yc0jT2F6nQWjVl1wNkYAmWza9fVkFTgkq7ALBClGaNgRLqZnDF3Aao3ZOUAUL50n4sKJDhpZgXDYv6hlay7kw8Iag4vcPaMqWUdhDmka1bwFoqVWJhy4gAFZNZMI3Ba8IKqr9mAJx01UMSdHAb7nEy6TOBRb9wrff0juCKqD1+MayZ3wkqoaKxPROaurwlqAKKLr7YXl4+jYleJjJJxWJKXyVmjq8J6j42LXCdhjsHkQdRKAftvsSJTc2xMzhbHr/+wRBUIWKal9os9c3fVP/kJZqRLrtLPwTFm4wpeBBEVQBcbxVBaIKba7RNmSyokHXzCJurEP15VyHFkcOkqAKNYkqQNYtyOq1vQrzZgpSmnZ9KJywKNehLsqgCaoAolZRdTpOyAmQr4Pr2KpGSPWquvhEyBKziF4QVAE26qKi+qOwR8LuQU2Xa1oCwYZUE+0UKSeWTg6HI0jZm522XhFUAQ9fzd6sI1U55CCugMQt4oCRiVRvAEm+W7yavKYTzJVehtd6SVAdCMEsYMPVUZc+4qTZ0L0OpfWeoDpA1mkLkrUL5CDlbkiJ3IMiqA6YAboz4hthJSGV87Yb6jbuYAlKAU6WPo7bdufqWhw1p0xFEwaf9yoiQcuhedvqX6F53kUoQh/hLOlQ8+YFyJi1ER3oGyJBI/yFEOL//lpYdcMtnS4AAAAASUVORK5CYII=;" parent="1" vertex="1">
          <mxGeometry x="290" y="150" width="168" height="168" as="geometry" />
        </mxCell>
        <mxCell id="H3LQPbuVWB5SwZg9GpPZ-6" style="edgeStyle=orthogonalEdgeStyle;rounded=0;orthogonalLoop=1;jettySize=auto;html=1;" parent="1" source="H3LQPbuVWB5SwZg9GpPZ-8" target="H3LQPbuVWB5SwZg9GpPZ-13" edge="1">
          <mxGeometry relative="1" as="geometry" />
        </mxCell>
        <mxCell id="H3LQPbuVWB5SwZg9GpPZ-7" value="Event Trigger" style="edgeLabel;html=1;align=center;verticalAlign=middle;resizable=0;points=[];" parent="H3LQPbuVWB5SwZg9GpPZ-6" vertex="1" connectable="0">
          <mxGeometry x="-0.087" y="-2" relative="1" as="geometry">
            <mxPoint as="offset" />
          </mxGeometry>
        </mxCell>
        <mxCell id="H3LQPbuVWB5SwZg9GpPZ-8" value="" style="shape=image;html=1;verticalAlign=top;verticalLabelPosition=bottom;labelBackgroundColor=#ffffff;imageAspect=0;aspect=fixed;image=https://cdn2.iconfinder.com/data/icons/social-media-2285/512/1_Slack_colored_svg-128.png" parent="1" vertex="1">
          <mxGeometry x="-331" y="380" width="150" height="150" as="geometry" />
        </mxCell>
        <mxCell id="H3LQPbuVWB5SwZg9GpPZ-9" style="edgeStyle=orthogonalEdgeStyle;rounded=0;orthogonalLoop=1;jettySize=auto;html=1;entryX=0;entryY=0.5;entryDx=0;entryDy=0;" parent="1" source="H3LQPbuVWB5SwZg9GpPZ-13" target="H3LQPbuVWB5SwZg9GpPZ-15" edge="1">
          <mxGeometry relative="1" as="geometry" />
        </mxCell>
        <mxCell id="H3LQPbuVWB5SwZg9GpPZ-10" value="REST Call" style="edgeLabel;html=1;align=center;verticalAlign=middle;resizable=0;points=[];" parent="H3LQPbuVWB5SwZg9GpPZ-9" vertex="1" connectable="0">
          <mxGeometry x="-0.0328" y="-1" relative="1" as="geometry">
            <mxPoint as="offset" />
          </mxGeometry>
        </mxCell>
        <mxCell id="H3LQPbuVWB5SwZg9GpPZ-11" style="edgeStyle=orthogonalEdgeStyle;rounded=0;orthogonalLoop=1;jettySize=auto;html=1;entryX=0.5;entryY=0;entryDx=0;entryDy=0;" parent="1" source="H3LQPbuVWB5SwZg9GpPZ-13" target="H3LQPbuVWB5SwZg9GpPZ-34" edge="1">
          <mxGeometry relative="1" as="geometry" />
        </mxCell>
        <mxCell id="H3LQPbuVWB5SwZg9GpPZ-12" value="Updates Custom Salesforce Object" style="edgeLabel;html=1;align=center;verticalAlign=middle;resizable=0;points=[];" parent="H3LQPbuVWB5SwZg9GpPZ-11" vertex="1" connectable="0">
          <mxGeometry x="-0.2661" relative="1" as="geometry">
            <mxPoint as="offset" />
          </mxGeometry>
        </mxCell>
        <mxCell id="H3LQPbuVWB5SwZg9GpPZ-13" value="" style="shape=image;verticalLabelPosition=bottom;verticalAlign=top;imageAspect=0;aspect=fixed;image=data:image/png,iVBORw0KGgoAAAANSUhEUgAAAH8AAABqCAYAAACVpo47AAAAAXNSR0IArs4c6QAAAAlwSFlzAAAXEgAAFxIBZ5/SUgAAHXVJREFUeAHtnQmcVPWRx6vPmek5mBPkkBtFAS8Q1MRr1Rg08YommhijoOJiiEfWjclmV+InxpiNR9ZVCa4ESci6ksuYqDGJqBFU8FYQBUfkPoa5e2Z6+tpvvZ43/bp5Pc7BzLwe5v+Znu5+7/2v+lXVv6r+R4sMpoOWAi6n9XzhwoX+nVt3nhyKhtYtXbp0l9Pa19n2XHHFFWVer/d7rrjrOM0Tj8c3jB47egH9i3S2jN5+ztvbFXS1/HXr1klhQeG/e1ye8quuumolBPxTLBZb+8gjj1R3taz+eH7BVQsqml3NF8YkdqXE5dhoPJrrdrm1KYEdO3Y4StgcB35JSUk80hrJE7cc4RHP2Eg48hWXy1V5zdxrVseisZXhWPiNZcuWbe8PYDPViTR7t2zZMoX7FwYl+AXAHi8xKYzFY14YQMRRkCd74TjwtWlxV9zvEpc7Eovk8zU/HouXwgBTYYjLYYhdc66cs47rryJdrxQXF2+47777ajVfX6Zrr73WR5smRcPR0wH+TJVyt9tdGo1EAxFXxGO0RYEn8Ry8EPMnvjnnv+PAHzFiRHTrJ1tXQqLRXre3FJUvMVfME41FDUaAKcpcbtckCPr5eDQeqqut+5jh4W2+rw6Hw2thhsr7778/1BskXrBgQVFjY+NUt7hPjUViJyHZU6m3mDblwag5fE9IeRvoHrfHAD4u8SpP3PO89q032tXdMh2pkK688spipOgICHsuInMBxtIUPosyAlohta9xiXo8nhD3WxgW6lCxGwBnFZL498KSwrfvvffe5tQMXfs2Z86cQoA7DhY8GwY8hXom0rY82pIL2Cr9CRqaUk4DaI9wTw27t2DUJ2DKZ8nzIQZsn2uojnrrSPC1wZdcconH7/fnQ7Qy3s+AAS4B0JMZT/Oi0Sgf26md7B8XwSJCnmbAaeLGuzDCn/15/icfeuihyuSDn/5p7ty5E6nzfKo5l6ePpMz8NsCT2rK9CS7hfqJQl+ygGX/zRD1/DMVDr2Cw1jc0NDStWLHCUVKvjXUs+AlKGv9dMEJuAckdd093eVxfApRzUbXDeRek0fJoao9glDCgBGGWXW6P+ykAWbp46eJ3UzOkfrv66quPYjiZQ9nnkGcogOcjxfsBrrnUilfQAbuJ9qzFJnmytbH1OV++7xMs++DTTz/dK8NPaou7/y0bwG/vHUzg9/l8+UjTWF6zIfhFgHMMY6snRRuYOczegQ6quAlAd/LxD/je6i20iar5MAOMS0bxzAUAegjlBfieKMEy0piAw3RRPm9gGPoLbXgmFAq9Q5saJ0yY0Iz1z+Dv/GSSx/kttbQQ4rr3rNsTqPPXFed4c2ahDb7A7TPxCkapJAKGjrnJHGYvQR6AgtxIUxdtj8bFE4niYVhA149apg7tMIQOKxupb6U74v5r2BV+nSGphtxNixcvDicrzI5PJlmyo7U2rZw9e3YOVrTaBsMB/UTk90wwPglGOFQNLx0a2l/pxqJNeQq2CbiRT+LKLB9w8UWGnVVxd/yt5ubmfTU1NU1OV+s23Uu5lPXgW3rjZljIycvLC/Aa1traOg2GmAFDHA2YE3huKINzAMl1qxSnpzagI7zXkW8bLPMez7zG6+1IJPIh14K7d+9uBvBWrlkGgvSSsuf7/lTox7YTOJkGWDMAoCYQCDyHv17fzea4cRf9wWAwJzc3NwcNMATAR/AahuquAMgSxusCIPQzZiuQQe7twSDchirfwjNVeo12tGzdujX0/PPPdzkef92V142NeqL/xADki4fje3xeX2VYwpVLlixp6GafDng2R4BPkKYC4n+H3n0JUIogeozXO1jbv4EZnoBgO3rYc9dpp53mmTZtmgfDzIMke3C/3ISSjWJhkjgMEa2qqorgVER64Ja5cBGPoe2X0YNzYbrhWgHfo9ggzWigSvyDv3pzvMsXLVq02ai8H//1O/gEUUZgfT+MMj4FUAoYW40EE6ib1gj4m/n8NyT0CbTBa70VvesJBsq8Xpf39KhEz0ObfJZ2l6m3wNCR9CjQL1yPwORNMMZmfI2fwNTLe1JvT/P2K/iES3MIly5hBu9iwqOJ2Lc5mra1DGmJqZsGMYMwyJsQ7+/euPf54bHh7y1curClpwTobn4FHIk+nrafCWOeDOjjaGs+/ciljYlizb6YlVj6BEPXkm8hDHC/ebuv3/sVfMblr+OjL8Znzs1oQllaiMpsZShoxh1rhFA6ufMahH45T/Lejvgiu3rT3Zo/f34BYdoxaKcZtGMWUj2DusfShgCMmYvGSpnM4XrmRJ9gFHUfq70+72W0+9nMD/feHQtpe6+S9JKRGNe8efPywq3h5yDALFR7+iP2383WqgrVYcHjbqEsjelXoUY3UdYGPPj3XF7XR/jfO/Hpq8rKypq6soBCtRFjf2FRbtFQwrMjUdWTqWMqUE0C8PEwayHfcwE8px1wbW26lNv3IHmVvujED31/oThYPPveFT2bg0gW3PlPJjk7n+MAPKnToS0tLTO8Hu9KDKGcLhNO22BpOcAo90QYHtQNawWYMEDVc30v4O2h/Dqs7mpsizqYJAR4+oqhsn0879OpYxinhFexvnNvGNdLyRcAID9l+bnmQ0PpRA632lJXATfzme9aVFxa6cupTPq8Yl7uq/dkzLqvaqQegiR+pPIsCJlDUKZ7yUJ4xk41rPwMB8k587gMxUYYB2gazYuhKTR8q7WpZa+59YWjF3fhhum7qm03xpgG670wixEPgDG4nEgwU9cl3Mxs904LaIsfOlzA7YMDfFRyDpMnX0sJwdoRp7PXLIzQnkXVQWJCJsHgds+0P5z2AYzREgcW6LQqzK8GDeJyKd9vNa/11Xu/SD7jnAdJm2BV3Qe8w10B+4BX3oUCaSeSH+hCjgP2aNIPPWBFdrIgtY6zBaBOdinbHus/8AeB73de6T/w+73rgw0YBP8g5oFB8AfBP4gpcBB3fVDyB8E/iClwEHd9UPIHwT+IKXAQdz0Z3l22eZz4c65nzVGAecZeJclvWqpzv/TiPb1aRzYVHnbnFMjybQ/2dZt1UjGRfr39LskNzJdQS68PBW62Ww2r+6TX6zG75vT3GPP6u4vH9K7E2RAhKfnxeIW0thZIa+/vMNJe7iwYadOcg/hSH9A9nbpW8Im2a8B9MOieTqSB+n1Q9Q5UZDvRr0HwO0GkgfrIIPgDFdlO9GsQ/E4QaaA+Mgj+QEW2E/1KWvudeDirHzGcGP5ZvWmNcujLdHDMd+M6//R9AKeBDb6CaWzCFSngcLfRAb9MKPDI+CK/DM1xS47HJUU+t9SHY8LebNkXisnWYES2NEZlS3NEdjax+y5KIQOUGQYm+Ao4El6U45JZ5bnyuRF5MrMiTyYVecXndokXMD2865jHG6d4JIRfcY7wRRmhvjUu79WGZM3ekLywKyRv1IQkxFYQI5N140YWa4aBBT7YKJIj8j3y5bEFctHogBxe7JcAaDdF4rKhthVAW6WyISJbmyJs7YlLA9cLfcoQLilHGxya75VxBV6ZVuqXM4YHjNeNU2LyVnVIntzSLL/bEpSdQfaBKNeoRsjiNHDAB/Riv1u+PqFI5hxWIOMAUdOLu1sArUler26V7ajxEGCH26RbeUX3ZuhpLYqjBwZQraDaIZ+ydIiYUZYjZ4/MkxPL8wwtcs3hhfLYR42yjNcOyiOTVpOVKdnyX219RLy+ORLq0ZmFfU8EA8G4nDosV/7t6GI5vjwHcEUe/7hRVmwOyrrasAQBHC3OHk7+6fOdSVBG2Yf91hLAXpgyxCcXjM6Xi8cGpMDnkQ/qw3Lfe3Wy4pOghHWYycKhILvBh+gcaS03HFEkN08dguR7ZAWgP7ihXtbXRqQxqoZcG9LJnnYG+sQzZl6+qUYoQMrHFXrlGxML5YoJBYbj8KetTfLvb9YYhqIxFHS+9H5/MrGnXJtx0c3ni9tzrESTGxP7vXUdNQDVPTTHI3fPLJV5k4dgqUflljXV8rMNDVLZGJEm7htenYLeHeC1bjMv7xQnLRS4JxSXl3e1yAsYghNhhNmjAnL6IbnycUPYsCWySQNkJ/ggMSrglYc/WyHnYdQ9v6tZ5q/eJy8wvjdgxPUYdDuma2MEVQbKBNtxCZ/d3iIR6juP4eDzMMEWrq2vYZd4lgwB2RfhQ9WPxphbenK5nIUL9+vKBpm3ap+8WxeWFkXGlFb9rOJ6oJK1POpQr29nS1T+k3F//stVGIkii04sl2sPKzyw9R6o9tuUk13gQ/ByrPD7TyiTU4blyQOM7besrZUdgKA+ert6B/QijLQL0Ap4bz1PMNxEYgTnjspLGIyGgZeor56KV3zcJJe/sFfqWqPy4xml8jXsgUSDel51b5ZwIEjTm+1Llg24evLCj6eX4XoF5JGN9XL7WzVS04oOtko7YJyG5f/YyUPl4c9UyNn46j3SANTrwx/8wTEl8gvKfHBWKS4gfoCpVai7GWZ4HjtgLkNPHe25Bwb4HO6h0xkge8CH2HMnF8plE/IZa5vktjfqpFb9N7MHxse4XHd4kSw7ZaicwZCgQZubpxZxtgoIcb9biXq/PCEgF6JFKihPLf3HTx8mZw3PTYKrwwCFr4IBvvnKPrSNS+6dWSbjMQjN8HK36u7lTNlh8AHArIocY0zdTcz96lVV8okGWCzAq3q/Hen8zlHFMiyPH2NRbUAagWG4AZ/8PYI8XXbFkOgx2BeLTqqQEZSpSQNAQ3M9ctohAfm4MSwfYGsYBh71qaH5CdHDmkhMLkf1jyLvHz9pSpzy3NYeoxCH/DPJ55Dm2DQDic2D4D84tliKQfi7b9TKh/jw1uRCrL9/9BBZcOQQKcEmsCb9evORRUberkq/h7o1cHR4kZ7blEzKWKOJ/j2AgafRv3b1znU9EerRDxtl+UcN8sVDA2gNfh3GHCKSRTjiUyqlHNGktEZAuEvGF8jpjN2/3NQoTxOqjWmrTUni/lxU8Q1HFEuBRmJs0jGEaL82oYtWOLbDObhvX6VuU4tYi9aaRgQ88t+zyuU4oortAHMjSHDpjnfqZFdzVBaijcY6VP07G3wkT2fmbjyiEMNO3ap6zlGD6ibGAD8dwi88tsSYnLGCY/2sPLGAMoYzBHRK+qlDh47bjiuR/AwMpeVrM8bjBdw5vdiYGm4vG031UV1E7llfJ2MxDudMgvH0TDCHJWeDD7jnjy5ghi1HHkGVfsTYbR3n1ZC7DbWsEvhpaWKhT65lUqZdQjvKwFh/y7QhcnRJ8mS3TI8rAXX8v/awopSyVTst/ygo72JrXAX4Y3XoUBfRQcnR4Otii2smFUgD7tMvNjWkCg+MccHYfFwq/TWUT0+quq8GhElM0HQIAur+DCz5uZOKjHj+p5eMCwoVvzWlUCZYy6a+GkKBiz5okJEw58W0NbUDnSm5d59xLviAewwqfWZFrjyzs4nYOUaeiTIClM8c/HVE09TK72zSef7rJ6uEZshBuaW5brn92FImiczKMjybdlnDzV/HPrACrNPFT2wLGqHgy8YFmCbmgoOEvwukS+ttb38FoPMOzTPAfbwSdwlmSIIfl1MOYX4dxuhK0s5+FRfsWAxAW/WPWv4WHsPxuJVdTcoqGtkbBoO1A0yFuxtj8tT2ZmPoms6qog61Tlcr7eHzzgQfnHOQbF1+tRO/fnUVawyskyXcv4jJlDSvrp0U61mt836dOl37Jw383DClqN10aH8C5joJZppPkIiqMyadPKrVqKJN0hVAJxN2tjIWPwMpf97abJSps38ZtY5Neb19yZngQ7CxBT45Yohf1la1yt4m0DZbinSWE2Q55ZDM0rn4wwa57c06Yy1eOgEV1wvG5JNfgaBcTbwVgfjtxxVTtllR4pb1/xamir/JJM6Le+yP+Ve7Yjbxfyuf6pc3q1tkL/MPCr5PH2qr1lp2f3zO3NP+aI1ZJ4J1ZLHPcLNe3RMSDkM27xiEm4wVPh7r3S7tgch/2tbM0q2gPMW7XRqC+/btKcWSY6JE+fMOH2JIbQdCL/e+Xy/v7w0zkRNs55v08meW+XE7IavZZD7uaI6hicIylXaXB5xDcue0xEpFCDdZLWfSe6q+rYjAGFOHeDNa4rradjPGYQuA/vDtWtnLIg+7dObIXJmNTSGocA3S3MhYn2kY0fzP7WyRZRsbhUPX5R+7Q8biEbtyx8KUwzSe0I4+NiDLiXQYKmXIGZGn/TI5w66EvrvmTPAB+wgA1oWWlayhTwEf2hzJitxM6SXAT6y1R91WheRuAkN2SZd/3TRliFTghv0HsYLhHUikztTdxgxiNYEmbcs25hXeqdGpnP2TBoUm0/b0sV1D0srDuijU6hHsX0LfXXEo+C45BAlpRmJqUeMp6NPi0dgDmdImllMZVIbS/JqR/A/j/1qYwC7NxPpezGqgs3Wctnug7drDSLwOP+YETpTw7cYGe4NSyxmWs38kcU+bBlJ7xSnJkeArAXXY1NUyxFxSsNd7mejXiqbYpbN9JpK869q+O96tlZBRUCrZtRxdg6daIFNSdf1fhGm1Le3l8rnGiDPb5ypLb6C2o81D2O+efRF9ctV54ENYHXvV+tZtVC3Ww6G458VazjSBo/gY8QAr6ZD+Z9hs8dhm/U2m/VNHQSLllzuZoNmmQ08apfjplf0La7vCIuL9EnxpJDX2nZLSuuSAZkEcXaOBVyWFXjeMYGki99QO0A0zdsmPBBcq51hxIQ8/qCM/eadetrHAsivpGRaN/Jb5eONHXNIyWqtIu2UMV+nXnPjdQlnnNE/nPxRksN/fqsfar81gwatQBTRTekL6ddHFz3DVOptqqEO9hSYWZrSre0vmwg5m+/ZrH/3R4JKmvUzzOiXZUMoBTQN4jewVMPAXGf6XRc74qON4pjRcx1vL48ZzcEWU1xJmBl9Sw60TaRFG3ut71c1UlkpLaJjR+Zk9Do01pDNMadtYUM1O4PR7aaX32Vdngk/3N9VHDKkfXwiY0MuaPmCuPFOawPy6bQJDddXueEelOZ07UnPoZs4H1MjTy+nYk1Xd+InaLpvUiGW4ScestHyH0S6ttVLHrLR7NsX0ySVngg9x3q9PuFKHFRHGtWJFi99kjlz349mlmUzaGCFUu5tI8UomWZazpStT0uHmRxh5O5qowJY6caKLflbn2LublY2txjo+K8JuNMVkYhN1SP32oLKUM9C37V4mwvTZdQW/higd5vYJFX5xpbTSJRthjF0MC3bpSEKoY1T61XBIT5Srxt9P363jAAb7/E+y9+4JNl/qdKxtQnDPGJGbcYXPW/vC0qR+odlm6htGAGlaiU/Wsxhlr273Me/ZVtB3FzPoyL5rgG1NSKgGa3Qn7AlMr+rCzRp1ARQQCLcbqVzF2H3puP2bX8az5+G73wPAxjbb9AqQwk2Ef299o4aFILkpMXq17R5i8UWT+ng8Z5fycEG/PMZ+AUkUoH8P8yTcwLb8lDkVqa/AFnmUNYghrcQh/t7+1LPrcV9fg24a3VtJPP1b7MDVbdfPoq5N4ysGkf+PyZVL2C6te+qtSb99g3n1X7LyZ6/JMNYH+Az55fdM/PyFqVZTP2g+/ax7/cx6+JqauHcOK3KMefnUO8a3ddgKum8whXEobnbbaqO/7bSfaLIpqk8uOUQB2fRVpUhX6nLrK+NYIWOipI8CuM6rb8gwZ6+q/5vE7VPE2loFSKtBXo0U6hp7fZmfI1pRKj8lctIeXeVzC1vBMwWGlmwMSp1uGDTz81HnDi6ESXWNwRozRGxtSz9+di74qF2Nyb+5LyTnsKhDN0C0MwCtrmXsfGBDY/slKw3VBb+eRRmXjmfdXCbLXgGye1kLsnzW0ztuYRpYVwvbJW3rr1DrKQEhjEcNH4/GPfjN5ibjnB+njPfaB+eCDzDNmPQP45sPQ3qumJi6+VENssdQ/WuZxbNLOvbffXwZR7QU8uvIIAcQ3U6o+6vYG3A9mz/sYjs6RP0IG8OI3ytDaaK6AuyD+awY1rjE/+Jh8IPPiXsO+e9c8JVAqPffMja/j8qchySP0g2SJv1ouUbh7mCLtBLfLumS7p9yeMOiE8rlsyzRAouuJxjn88z6/XA6ewPskKfE+4gcPoOh167utRaY7SIOhToO13MZS7g3aWwizT7pemMObA5ng68Ao97vW9+A2vfIv7KWPkWCIeZfsAvuXp85bKvbty5Ha/zilHJD/dq6gB3RFKPjfNYLHtK2Vy/90T9sDcrdSL16cO3gwzAjUfXfm1Ysurfw5x/UJ6bwu8N86RUewO/OBp+OGuq9MigvsgNWd76ciY9t3RunM6v3Iv1PbUPyMqQ8XCt1w3ZrWDijA58hM+Wv3tvSjqv1qWfwQG56pVr2acTJQknV7reyQET39N+1rk4qiVZa71vL6M/Plib3ZzM6qBtpaeBnWW7j0CONvt01o8w4K69dA9CD6nBUblhbzWGJ9gsrtfTXWHsXtG7p7qDKlFsYni/uDDHXAONY0p9htutfadstbLmujKmHNV2FttFnHsUD0HkFJybng29QzSUv4yb9kEUZR3E44l3Hl0q+BkrMoR71r9I1b3WVcUiCHaFXIb0pC0HtHrK7BoX0wMZXLauBllc2ynUcxPAxa/KNJpjgAvyprNC9k8MZdpHn1teqpQHGtFUbdnX18bXsAB/iakR88fsNspwzePSghNunl4oRXW9jAB1yNxK5m/vSXnmU7dHW1AwohlfQzd7G0DhPYdDVsxrn+2igm9bUyDY0gWG9W4DXzR4PnlRurAy68bUaIpTOM/KsdElOTTn9KDaIrOsn1zDNOpU4+cWsvc/F+l5FsAdsDenSN85cNOyDIIGbo9ngmcczejTbnYy9xkoqEywrFT71s8uwF1YyrPyW83c0KJQizXgbCvySk8tlbL5PFqzZJ3/ErzdmD7pV36c26IA8kD3ga3chZCOE1uXZMwi26ImY5Vjhq3c3J9boaTyeP5X0N2GSl1D1GlPfiJv1OKB12+iiTJ2M06PWWIKfBF65Da3wRTTRIiR+ZMDHnME+Wb6pSQzrg3xOTs6M7XdAMaW3SvI1q/bKfbPKjJ23I/K88t3X9yW2cHvQ7RC9AVBeYn39+rp9xnpAzdeTpKO7sZzQBJTydbPoAg6AvJnInw4B/4wB+AckXg9oStEMPam4F/Nml+QrISC+AqmHMal1X5HnZoIn3ziAaTcrd3Um0HgALQA+rPdj+TfPdtXDs6W5Aq/A8jcTzaOHLl1B5E/P5lnwcrXomr9mbZzJILaFOOdi9oGvtGtjAN21/Q/G/H3M0nxxVL58ATtAD2HQQ5F2m64ZnoDi0eOknMSfHrn6L0wa/RiPY2pJjjyG5f9t3My3WGCScmpIjyvs/QKyTu23k8RggDhLs+JE0BrlbXbQKCi6TVqPQn0cUJYTHHqb41DVWjfG+66EV5Vj2qTcj9E4FePxUvbYX0zItgI74wNCzje9uk+e3cGuXYI8+ni2SLxJw6SCytYj17UnUF7j9iUcxHzhoblyDUek6I8sNAKKTv0+jZv2KkZiJQab/sBCuypI9j55TctjyCjmLKCJWO6fGZojZzEfP50NmLqgVFcR6cFQv2MvgPry2Sbt2j0zJbufzeBrb1T06E0A6VYP4GzCwBfjDZw4LHH+vnoA+rMpumfuQ1YJ7WFY0EOeNDKr8aISVtcOYR5gjP4Gj24Ph3l0YiiXm+rZrd7TbKwvWMlPrlSRV5f4GSt2khQ0aZo178mmZzv4JskN/Zs4u09/VOkoFnaciA/+GWb1phAfKEU7aJhYFYC+zKReojKB/tyK3tcNHrqKVyOLa1hToBFE/dGGZh1CNCUpl/iehf+zd8zPROw2UBSkZlbV6ITQGly+n/sajLF6JFrhUKRbJV3X0useD8VTl3XrwsvtqHI9yFnXCeqwoYtIdcZOJ4aMNABAN0k38MA3e9YGki6k1Z9BaWBwruK1EVfQu9sl6ua0xYSMEUMZIEYeBTmCX5jykyxa1gAC3STRwAXf7KEFNB2jdYwPG3CbD9i8mytuLHltnsr6SwMf/HSIBjig6d3t6Hs357k6KnLwXrZQYBD8bEGqF9o5CH4vEDVbihwEP1uQ6oV2DoLfC0TNliL/HyOEvS6Nh8GPAAAAAElFTkSuQmCC;" parent="1" vertex="1">
          <mxGeometry x="10" y="418.39" width="87" height="72.61" as="geometry" />
        </mxCell>
        <mxCell id="H3LQPbuVWB5SwZg9GpPZ-14" value="Sends Data to MuleSoft realtime when a slack user creates a new thread" style="rounded=0;whiteSpace=wrap;html=1;" parent="1" vertex="1">
          <mxGeometry x="-200" y="470" width="120" height="60" as="geometry" />
        </mxCell>
        <mxCell id="H3LQPbuVWB5SwZg9GpPZ-15" value="" style="shape=image;verticalLabelPosition=bottom;labelBackgroundColor=default;verticalAlign=top;aspect=fixed;imageAspect=0;image=data:image/png,iVBORw0KGgoAAAANSUhEUgAAAOIAAADbCAYAAABwZU2yAAAAAXNSR0IArs4c6QAAAARnQU1BAACxjwv8YQUAAAAJcEhZcwAAFiUAABYlAUlSJPAAAFJNSURBVHhe7b0HnFxXfTb8353etldJu6veu2TJli33ChhjbIOxMRADNoTwkhDC+8EXkrwJ+fG+iT9SKK/BAUwwcQB3jCu25d6LrN61u9L2Pr3s7vc8Z+bKo9Fsm53ZnZXOI92ddu+5p/yffznn3HMK5Kf7h0VDQ2NaUZh41dDQmEZoImpo5AE0ETU08gCaiBoaeQBNRA2NPIAmooZGHkATUUMjD6CJqKGRB9BE1NDIA2giamjkATQRNTTyAGceETmzdhB/Yjj4ymOIX44A/mScN57zNTQywJkx6ZvEGcIr1E6p3SRbSiyyyGOWYodJSmwF6ju3tVCspgKxJVQTeRoB6SK4LhAdks7QoAwE8eoflL3emOz0RaU7gB8LcLI68IevGhoZ4PQkIks0PCyFeC0B2ZaDdEuLLVLnMUmt0yQNOCptJrFbCsRpLhSHGQQECU2FBYK3CuRuDGmQkFEQ0o83IRDSB2a2h4fkeHBQOnAc6I3K4YGY7PfFpIusJRu1w68xQZxeREyUpBhsqgcB57rNsrjcImtBwqWlICI+F8PyZQP0UH0g5sG+iBzqj8n2vpjsAikPeaNyEARVFniqLaTRkuoVf4zPBlR+Epniy1TnT2NEnD5ERCnc4FgVCLgKxDu/yiqba+2ypNQqTlg7GLucgZzrhzXc0xOR51rD8nh7WFr7o9IFokZyWbtMO1EuWnI3CumidccrXWwYfDHBZeZpgzDxUbzhEcF7H45eahP+aByamNOG04KIlB8X/qxF7Hf9XKdcWe+QhiJL/McpRgjC3Qg39Vd7ffJoW0iafYMSxneDWRZy6Bax49VMJQP3uhSx7lp6AHDDa11wwRH3VoCNJCYbuA/udA+URS9d69CQ7EKc+3xfVAbhcg9DYcTwSqURUalrTDVmNhGZc8Rx7Gj5xhK3fGy+S+ohjOx0oaBOB5glGppQDG4rYsd7D/jlkaaAHPXDXTUC0EzBxGHJTHitLTLJJ2Y7ZH2lTRqggGYj7qXlZ7lpBekB0AlnHxLBmJeWG9V1Iv4N400r3OhOf0ze74rKEy0hebELVETe4wngSFyvkVvMXCJC2suh8c+rtssXlrllKSwB3VKSMF8QgpVpg6C/0xGWhxoD8rvGYGZkJHPAqKVFZrkC7vZZ1VaZ7YLlQ/mLrPFOJ7qj5M1EwIantWZnFOPdTljNRpByB0j5Jtzr17rD0kdfVhMy55iZRESOV0EoL4dFuLLeLpsr7WLJ457KPriC70GoHzgalHuOByUIgVcsGEu4SUCQYHOpRc6qssnGCqusxvs5sPpuFDjb3GCW6Fq3gox0qV8DGd+EEtkOF/YY86zJmDPMSCJuhCv28QaHXFXvlCV4PxPkIwjreHAgKnceDsirIGMT4kh6q2kzjxZxQLGw53d5uVWummWXc6ptUgerT8s3VWhFHt/vichL7RHZhnj3rf5o3L/VhMw6THL1V/8u8T7vYcaxBJbwS4sRDzY4ZV7RzCAhYQGBKu0m2QCLNgRLR5e1B1aGRu+kQuBzEdzXlSjb9SjjF5e65dwau1QhBjQbAd8UwYPYe0GxRZYUm6UMbnBbBHElXFj8V3zUyB5mDBFJwhoIw/fWFsEddUqlk9/MLJBHHriUi2DF+xF7sXfVC6keTiKYA4Q9B1bwT5e75bPLPCruNU+hFUwF71wEQi4vtcrliE+PwWXtCg1KEC6sJmP2MDOIiEZf7DLLdzeWyCVznNDUphO9gTMRDlOhrAPZnJYCxI5R8XNGjrKMBXLLQrd8fXWRnFvNuDd/Csk+MMalF8NNLsaHFhCSVn3CPUQaaZH/RISAriuzym1w0T4MS0h3aaa3PZUIp9TVwNpxps8zrSF8USjfXFUkn1mAuBduKafd5RtY78w3ZyjVIIjltL/D3li8QBqTQn4TESSci9jomnqHfHK+S8VJp0ubsxi0MKUgoB2FumyOQ8WEi0jCPBqCSQcX8l0NJVICJRKCi31Qk3HSyN9eU+SqDK7btbCCtyxyyeYqW+KH0wvsTW3zx6QIhGQslk/u6Fjohmv6PKz5v+/2yTs9EYnyS83HjJC/o29Dw3IWXNKPNjhkXcXpSUKCLui8YouU200zioREOaziBYgZb1/qkgXwVmyZZp+mYDzHaYy8JCLbk9O1rpvnlA0VVoGh0MhTUIFc0+BCbOuSOSAmHz0bL6h3rHh14NWJw504PGhvT+K9C+/5mx0Hw2b8Py2Rf64pcsOK/xM07JdWeGQ+YqaZ3jlzuoMC5EOs+Ndv9cojTUFpC6XpTeWAKU9UB/4wzrQXymKnWfUDVCAMYczsBNvMOIaGRCKxIQkMDos3Avc9MiR7AzFp9A7iM3uZkQbjUt6G95rhMpKXMWIpTOBDF1fISj7ClIe9hxqngkL0SltI/nmnV55kL7BBOL6iPZe4TLLKY5EFxWZZ6DFLBchHt7wY5OMTIrSMfDCb/VSq3wfXkbvgoZqgHsJrfxTExNGD2PQoCHloICZNA1F52z8o/SQ/BzbpPc1AzZ1fREROytFoV8y2yx2bSqXElv35lBq5wwAs1b2H/XL3AT9IEpUlbrOsKrfJHJIP7+udhcqVrbCZxAULSL4UgnXj4Q2FVBlVkJIdXL2hIekKD0o3Xg8FBuVgX1T2d0fkgDcqR/k8F0+eQYTMOyKuRKP9740lsrXGnldPUmiMDwf7o/LHlpDs6Y3KpnKLrKwAEV3mRI9w4qQsgkaQT5Ac88Vkf09EdvfG1JzYAyAmnyThskIKeS5KeUVEPmF+aa1dfnZBuRpL0zSceaAw0TIGETPWwB2dagQ4yQDW+JljQdnWFreQHbCaXvq4eSxQ+UNEuBLrSy1y2yKXfHZZUeJLDY3M0QqX9bHGgDxwJCBvwG0NgojkYz4ifwYGYA3riiyysZoLQGhoTB6c/XPTIrf885Yy+da6Yql1FIoJFlOZ7TxDfhAR1nCutUA2gIh8tElDIxtgXw17Zhd4zPLJeS758TllctNcp1SyJ56dOXmEvLGIdU6zzPeY9HCFRtbBieqzEK9yWZXblnvklgUuNadXIU/4mB9ERGXMgdbioaGRC1C9swNwY7VNbl7kkpsXOGVtKUcvgTwgY34QEbU0y21WCyJpaOQay8uscutCt3xukVNWlFnEDhYUTDMZ84KIZg7yuk1SiuBaQ2MqUOk0yU3zXfLddcWyuNgiSvKmkYzTT8TBYVlsKZAaS6GY8sM+a5wh4NzWrYgbf7SlTDxGWDRNZMwL0a8yF0oZ5xvqh0s1phCUNnYOckWEf1lbJItLp68DJy+IWAmXlFOgZtDUQI3TBBQ5Tjq/YpZDPr/QJSsNMk4xpp+I0D5uW6HY9LCFxjSBBoAPGHA1iI/VO9TemVM9zpgXFpEbqfARGA2N6USdyyTX1jnkw7V2KaVhmEIu5gUR7Si07qjRyAdwaOMjcx1yfpV9Sq1iHrimw2KHRZxp67VonL5YW2GTG5e61SoCU4U8IGL8eTI+ha2hkQ9gTyo3u/2zxW61bMtUuKjTT0RYQkVEbsiioZEHIPdqnSa5cZ5DlnjMakOgXJNx+omIUkdAxEFtETXyCLSKS4utck29U+28nGtMPxEBbpTJVbs0NPIJ7ES8Yb4TVtESt4o5RF4QMRAdVlZRQyOfYIK3Nh+x4vlVNqmzm3Lai5oXROwJDYovprf50shPnF9nV/tE5hLTT8TCAmmODklbeFB12mho5BsWF1lkdZlFZuXQKk4/EWH+uc9eZ3BIwlxPREMjz8B50EuLzNLgBBFzJKJ54Zr6ESM2+2IgZCzxzcwADXhHYFDt5tQFZcJy5Duo0LlL8TFvTPb0RuTdzrDs6olIK8rAhXs1TgVjxaWlFllcAvc0R1WUH/sjonBllkKZ7zHHCzsDwPbwg4kPH/LJDggyCckFkfkkSb4iAhY2+gblLZDvpbaQvNIWVgcXA+aEijKbSYqnoKt+JsIB+WyCsXi5PSyDOXhcL282KnWi/RfD/K+rtM2IPS9pWTpDg3Lzs93yUFNQjg/EpA4kXIX85ysOewflF/t88u+7BuT+xqC8BkK+BxK+0RERu6lQlpSa1arcGqeCSrYJyvat7qj058DzyQ/1V1gge0JD8haEuYP7ss80cJ5snmsP1uq33u+Xn8CCN0OgVMuz84HEsxfKsgqrLCtJLKakcQpYXXNRX2dx9bccdCrmjR8SQ9zSibilsV/tO5v34ESgMOR5eLpXHRoHOEb7fHNAGrsj4ofCmwXLzW3vHrqoQp7A8fAllXLDPKdaOkJjZBRBYc2G15aLntP8qXmUrR3WcO8MISJ7exnE5/sOHRQZf2xYnjwWUh1KtN6rKmzy2cVuubjaLhdU2eTiGrs0wDKyPBojgztZzSURc+D9TD8RKSko15ISi2yCUMzOwtqmVFh045n0RMFr6HmMpfTYFPRIM7kJL8ngMgVex306x7tyPMvijQ3Jy10RFdtwc9B15Ra1HbphAPkMrCpLGvAe47lPNmHU/0Tvm+u8FlsLZY47N51x07oJDb06D8pVD7/7ugaHXNvglCUZzmCAZ6tm6PSrnYiGlKBaoOIZZNshZaUQQLpeyVqfBY+ixTns0B8ekhDeqwnoeOWKAXxOkovSsifRg2uTFSHTb/bHZOuDbdINQd8ERfKlpW751DJP4owPQKEKId1e+LIB5A+3UmnxGUxOLuYyDS6mnzg/FbzXAK7txYV+lI1bjbGWuJw88+eBgBQhDWsSm1gm7qzbj7w1+mLymZd61Gae60otcjPc0I80uGQINeA0F6q6Ma4lCXy4Ry/OZd2Q9ISN9YH7sVeYdZour924hvcdgt/OdHkuh0qMuiW4JXsZvmfdGmnE8Butdh/c5vDgkPiQCf7GPPG+LGcJrBHLahSRqaFoSDve5uwR5i34PVf2LkV9kDjZfs71hbaQXPFER9wdyiKmjYgkIZ/12lJhla+tKpKzYA05cDpRMPMkz7HAoDzdFJA3WkLS4Y93+FDY3Q6zNMCd2DrLJhtgBcohdEbjBHHdcQjpdliLNzsj0jgQE18wpuI/Kxq/GI0/r9gs51Tb5Cy4cRR4o/4psCTieWMQkef1QVD2D0TlxeMh2dcelh4ITwHywPQX4LoLZttldbn1FEVB8PoWlO2l1qC8BPfyMFz3EM5xQgi52+4slG11lVU2w72c6zafIMl7iAdfagnK3t6odOD+T7WGJYy0uE32Wii7edCAUVTTcljHD9U7pRrfkxBdIMN7XWF5DvfqRt30UWsAdMvqyyxy9XwX3FhT2rw+eNiPayNqPHIR6u2GhW55sz0kr7aFpcmHm+H8pSjvxxciDeSV15NAnSgfh4BeRNu19sWkBeQdxvce1FEFSDsPdXNVvUMWIt9UXGwfEpu7Pb2AMr7ZEZEuvI/yOvxWAa9qa61NLpjlkFrkNVlBTRYvdYblQ891STRRL9nC9BARZSiCJdyMCr5jS5nUo1Go+TJxvbkfHhvx1jf7pLMvqhqDGlm1OnhdgERN+GyBhr5ijkO+tsIt60FI4uEjfvnZPr+8gcql9gc9lACQ3ryOZKGweND4N89zyReXexSpiThBYnLOA6MTkdtL3w0B/dkBv0RhMWK4UGUPKED+aHmpub+8xC03LnKp1c6NauA9jkGpfOXtPnkLRIyAJPyOlyOnKF7cQnDNHwr4X60pkstmO5RF+OkeL8rmkwMg7hBOiuAaXmfCHzMywFd6Clxk909XoVwQ8h3dYfkV6uOeQ8grfh9CXfAaNgzvU4j82pDXb6CcH5/rRF2c7L38/Ws9aljkGMpZh3J8BPX9a9SxF4kp1YjENpZZ5a4LyqTOY1F1SyLdvd8vjx0LKssPg6juS7AeqJpZP9/fVCIX1TmUZeT+i292hOXfdgzI29xujdewUhPcKETCFny8DAruC8vdci6UVLYs43bI2ldf6ZH3eiBr/CI7yU7DOCIkieNtH4cb+pfrimUhGlNp8QwLtBPk+8obfXKwNyIhamIQ5dJah1xea5eVEK4Y0u1Gw3mhwZZDWKn96QoSh3Dty9DW+72DYsN3/J2dFxQWujY+CASvDaBRj0Kgua3XLFgOWkbKSjfS/MV+rxKE2RCQjbDuyeOIR3DNT/f65DcgIrU+BXFTuU3lbTXuRblpDMJdxffc4dYNwlc7zerehB8Ev2P7gGwDCbvhj9ISXQUtz63N1+L6MtyTrienB9Jisedzlup0KZBXIagHoQTMSLOTEk4g07U4ry5RBgfuc/M8hyxDed+FJbsbJHykGfeKDEsUgnsu8nouysNVzQrxmeNoLCt3BWakxIdnmQcDf2wMyHaUowv3Y90d8sakHRdE0AYxKMJieCNno46uX+BSxPjDUb/8HPd8Dm3Qi2uGkTb319+CNliF8lUibZMFLjHy+idLPVKDslFB/B55/If3B2Q3rD3d0gZcczG8FrZdOWRrF9oljBM5dZJuMYnMXcaywRmGB+/AqzkEBamUy4wkIip6Dir3w9CUn17ikrVoaDMtT+LniYIuHwXuLgj7EAhOC3vTAqdcC+t1Fty1Vfi8Gg3PTqD50MDr8f4cuJiGdjTjlQpgJfLxSVx3JQT8wll25Savxbm0Mox1dkOgvBDOMjQoF6GlsFO0Gf/8AoIUhNClEpEk+8F+nzwA4WwG0WeDRF9Y5JZPLnTK+bgHJy4sQVpuq0m5kf1IvyMmEBizEkbGP7Sm39/lVa7pAtyTyuvmxW7ZWG2UzSbrcE8SaXmpVS4CSY1Y1gEBXob0mVYb3MIe1BWf+bwedfMnSOMCuG7Mx9lVdiXcvzsakAebgtIKQXOBoP9jRRGI7cB5dtlQaZUVSKvcZlKzcLpwTgeIQzKvxn1Zj8RzIMgu5LkfbUHvgl7GdcjzjSDe1Q0O+RCs9YW4b4PboqYF/niPT56FUHcjrdnwiriu6Cdw7iVoh80g1ga0w2a011bkYT3Ky7Z4ETHaPQcD8hJcXkaSF+Gcz6A8TH8TruFW4YvhFlPxdcKDaCMRUZ41cKt5/WRBYr8LV3g3yqkmZGYqvCmYOiKiscsgHFzI9RMQxk2oYLomk0EnNB7jg2cQWxAXolGunetSO/5QM9K6LIJVXAOiLYCAcwodYyEDHghWDc45C8J8IRqbeyCQZNS8c6FBlbVG270CYSHZ6EaugUAwTYIuEmeqpBIRH9XEhDtAop0QXC5guwkC8u21RSCgHXFL/B7U0uUQkp1wd7qQFkmwHGlzvRRiH6z8fx4JqOc1lyHvH0KcdGmdU1m/SuS7Ht+tAAmXQWGQwHNAdoMU3KST+cet5XnGXrBM7OzgsAWJsQwEWl5iVZ0870CZ3X80qKwZrQcty/+DuJ3KiDt0kSTMaz3Sfx3Wi0RjXkuhRKj8jGlxyUR0Q+jX4x5/sdIjHwEZt6BeSNo6pBVGBf0RruhvcM9m1BPzejnk4s9XeJRcsFzGPakMWT527tAC3XsoII80oU6gVLge7jfhVl+N9BeiLCfqBPXXjfLSI2hF+iUo03KQcw7SnCzY5tu7ompGUjZd08mriPEClX82NOvHYXlY2RSQyYIyd4LMeGWHzT64TeyAYYcBCUHwXiRP6jNl/H4eGo7CwV5N9vodw7VHB6LSCCtIi+uC8pgFl4r3acLvJIxa1gP/cQleEjdJAjs9dneFxQ8hUO4gBI1kZ+8wwV5ZHkha5oGQH4OHwHiNpqkH1ov5OAn4qRP3PTAwKEeQNwoD78E7M190ESmsqXEQHytjR83hMNwo5JnnFVtP9UBe6YzIEVgoJliLst5cB2WBc5PTY8/lQtzj4hqblMLqMq/dqKNDUBanAOlUgiTsCV8Pi5s8UYB5ZgjxyLGQdCBfdB2Ww1vhuYw5T7RnGrA9ON+TrjjDmVq02wWwsuzkM+qU8SXr8vI5dqXkeEM1Pg3iZAOFcDfYezxKNjPClBCRmWZv16ehjbfAWlEzZwNuNACtCzsn2LHyPIT/B3u88p8I/ndDQNoh0OyKp4tEAUgHCmsXztsDa/AENPovYeF+tNMrP4U1+68DcJ1awoix2AGEmBB/AnH2KfeP1rJg+NSyQM5kL4J5DjXw3GqcuMhVqKxkC4T3OMhmHP2RQbUmChuYvTgcgumFS8Whl3KUzc04Ce/34bp7DvrkBzu88lprSJrweQBWyei2TweWm72e7eH4OQscZilPIoWB5yGkh6g0UIcOWLkF8CDSNRGJuQWuJS2MUg4g0j7U2ynAvXjOFiiY1B5L5qMfFfQcFGYvP+Bnxnh0QccClSPrhvVUhCxsonWFQmhHvJZcp22BmNhgkRnXElRcrTShWcII1T0p5J6IyLUDFf7FhW5Zw5gojSBkiiKktazELJfBlbKSIABdo+/vGpAbnumUT2/rkv8LUu0EKUnIdHgOLtLXXu6RjzzZIV9/rVf+ZeeA/BwE/Mk+r3x/B96DmHTrBhONSsJTeChDNFzDhac2C60Pg3kYaGWy3oCw/tkbfbLxvlY55+FW2cLjkfhxxWMd8u13+sXLBJE2VyrgADxdsYUQtC/AHZ2VWH25EaT65WG/fObFbjn/6U757rv98ipipv4RyhZFOkESLKEQFrpN6RdCYkFYf1CWJhDIiYO9xqngV4ZiYF57kFfmKR14m9nwBBLVdgJKOUD5DFFbseqQlg1W2kP3YAx0g2ABliVx79/BRT3v4TbZ/FCiThPHeb9vk48+0S47QXZKOHvWu2l9swBaXeaBWc8msseKdEBu3bjDOsQxtyw5uWs+G2Ba7IT5zsYS+RZimnq4Tmxfkq4dmnN7d0T+A6T60xd75HsQ9rcQCyXjt7AwP9njk20Q5l5ozSC+Y2/mpdDOnPa1GXEdOztOPPZCmaNbClDAEGKmtYjkFF1CWiuCnSGc1dIVhduJvKkDv/PowfsBEGaY/fYggxrETrg+HOS/BV7EN1d7VNw7iC8pBEyrG67kfY0B+avX++R/vtIjjx71q3slowMkOeCltsAHXFsGYjvTKUJVrvhb9mdQwZ1aqnh9M0/K0qAeBpHfGCs8FfiqEPVCq57KZ56NYsfBV6RVwPPi34wKDlGou+FkXhrEh+7kOjUOlLs3wiU6cQLagFPZ3VQeWQDtfw/SNoqQLeS8s4bx120QpvNrEQdBwLINuksc9GVHxXwE5MsQB9YjvuHYWhMqjL1cbSAlB3/ZitzfoBRanW7ij3b55IX2kBro5lLrX17qkWsQ+LM3kT1w7D3l+a2IS1SvI9K8HOXYUG6F/BTIABr95yByameNmmTdEpKDcKWojdl5wPG66+c71Tgfx7fir8Z7HLgnj4vhzrEjhb2flHfGP4zX5kNBrET52HvqgYVk9xTdWFrr4yhLPwpRhfiOrjqHLwiOIT6FWGwv8kFcP8+pJg6QTMm456BfGlk/uOEsJ2LWOofyXHj/ZFCvtOM8jvkx7ioCa/nExuXIM3GiswaKggP27M2k/CcnQ96y1/XeowEVK7JNNsIVZo/1WOCwyesdETkK95OuL3tMb1vmUfc/UY8nDnyXqNNLcGzGudnYGp6dP79vCsrRLA9f5M4iooKL4W7QHb0SDcs4Lldg0vMg7J9scMmX0Pi3o3FugwX+9EKX6q2jMFPQ2OX9dnsYwjAse/sisncgKn0QGgo6x+a+sMQtV9Y75Tw03FYcF6KBt9TYZC78LA6AKySKwY8jaUXmZwEIzOlcPJEx4iWIrSg0zNvty4oSr8b7xLGiSC7FPZmfZLBT4sMQrNsX83yUb6lbbmVeZ8FtxX1oWV9HfPxEc0h1UhlZpfJQBCOQFfYiM65OhQvfqViOFg7KhdPGhhOWPxn8qheCSEvIm7jRvpWjrDPIJPH/JFAXF4PAdbhWdVCB3WHkky75WKA1p5VlRhy4dgnqhUMxt0OBnlSP6kjU7/Ii+dQitxoKyQbYqXeYdcAPqYWbBHJIxGHVI3gJLAv3x0/VrtkCyQDZUWAj10CIqf0+vcgj31tTLF+B0FJYWWkcV9oPjU0vkPMvOcWNmMNrYM1KIZDj1Rc8baRTOYTA2FXFwzipDYK2C9qcVpS9faMdLAPTZc6YPZaN7/kdhwn45MS1UDDfWFkkX18FlxUWjl4BVwvgUAktMC0Xr2UPL3t6ea0deeGc0nQdZRzaUbEjLgzhmsOIaRNVcxKYlze6qbziFV5pNcnSEawMSWv07CaDdVOJfKxnRxSlj/lEHg9DKY4FWnuOXdLfZacZJwxw/JWucrq6TD4UgbMA6rXDCAsYJmQTOSMiB+qXwkpdAMuSK1BYOKhOUvE1uXeUAs15pZfWO1RsRIahzdSMjyH8RlIYjxKyTnlQgNPhxPeUvyRLMVLl0TVsgLvlwv0LkZHdyN8DLWE1JY69tElJnCCc2naAeUv8xlcfYkeWjT2f/N34jXmlteX812UgosdaoFy+fmgYY9UfEpIuIK0llWCdsxDXxK9NxWWVVlkMISe46sATcGdZnyfKDTCP7PD48WG/HINC45gq53FOdGkT3p+ysRChgPIYgCNQjtvg7nLCOMth3JavvK/RrhyC4sQI8F+NVb4AhfEaPAHO3eV5xnUE3/M6YxJ/NqDywj+o12wjN0REwZe5TbKpzKLcqlyBcd5/H/LLVY+3y492DKgZKozbDLAh3kVDeanGUIGcQlaFWI4ddHXQ5Mo1Qr1Ssz5znIPegycJHwHZkB5cq1JlbUGICJ7HzsZ0vabs8FhWZJENiPWqaBUhXYd6IvLt13rV0AOF3AAJxrExCuJO5h/EIYIg4ftdEbnm6Q75f3Hdc8gfO5SScQT5PtwPooIYylVzmBG3xefHcsytj5oHl9Dt3ArBL2HG0mAD4t45+J3aqxsFfhh5+UNTQAk4wRJyuOQnOwcklKhLTrfbUGFRY4ungNUKspBU6cC+go8iXq5MKEjGsJwX+3/RhgdgGen+saR8ZWzP+aReJMY6P7/aKufDK6B5HkADcHojpxCyLozOMf6lHHD6I3uVD7H3NAvg0yzsL8gFcjPpGxV4eY1dvgi38EMNzpy5pa93hNXwxH1H/cr95eM1LhCtGnFLCRr4QBDxDirusDcqfgjllbDO/3NNkZpQwC7/b77eK49D6DgpuQzWiwPunHO6EO/7UAZaFC/S4PVshGGk+c8bS1TnE63eMbgo5z7Upnrq0k36fr83Ij/c7ZNHkD9qe7pV7DBgR4zBCUVo/BaMDKo5rp9DGmej7jix4O69PvlXlM8Ji1cFc+ZB+djRNA+apBf5o7XcDyLygd8lxWb5ztpi+TDqm0MfnJXDea4/xsEew2+t8MinEFemU4wkzLMtQblrn18eBQFxuproUIGY0op7UUBCqIvjEPY2CD8nkd+6ELEZ4vDVJHAC33m5W37bHJSmwJCch/DgsQ9XK6WXCqZHBcRe67v2++UtKBz2IfBZSXa8OVBPlBlOyaMFYo7/fn2xrEH4wCdGWJ8/3u2V91F2Ksd5KBNnG5HgvI7ps0xB5Jmzmq5pcCCm9qj3k8FREPq3hwLyt+/2xQeRs4jc9JqiEjgd68o5DlVBuQJjvQhai/NA98EqcLCcyzI24/UQGomDzXwkSk1gBvluhBY+D0LOWSIUVk7+jqLF2APYAgHjjBxqfl7Paw/iaINGVoMeYM4SuG9XzbbLClg6Njatzi/2ehFrIjaFAHEu65rKDzoFOHmbBHebTcrCHUEemR/mkYPTPHi/FhC6E2SsQJ44d3QuXDAiAh82iO+P4D60mlwCkecfhSu3B0LBVx8yQpftOm47Pc+lpqjRaO9H3l9sDavYlOW9GWVfjHzb01hFCm8Z/L0yG+IpfOZE6kYv8ol8qTziPi3IN4cLlkPor8N9rp/rkBUlVhV/GTip1xR1dQuIn05ceQVjRXondKv5j/fkUxutrB/eM9GOx/GZ6a2FdzUfipJTF0uQV9YticrFqbvRRpyPy2uMOqUi46TvADQd6+ccKAa2+WTAKXNPoow7lAKYXFqpyL5FRGrsG/mHDSWqR0u5fzkC2kDaEXe91h6SZ3vgoqHyvWhMPmTKnlFarRJYnyJo98tn2eTiKs7z/EAxUGu+gWu3QWD3UKjRcOyIYHuxU4MHBa0Qwm3GsR7u9qWzHWo1AVoyxlN/92af6iihq3YpSHohfk8G51UyBnoFLtJLPVEJQGD8EDqjo4j3YK+lA4TdUGSWS6C8SBiCLuy7sPrPwDU7hsYfYP54LTLOfLFXuhTEoAK4rNqmhmAM/O6QT+7c45NXYG1KILy/3VqmJpqPNqGCQz37+iKqPrjWKRUc41SC1rwEFvLsUrOcj3LWuy2K4Mn4zT6vvN4dlU6kwwe8vw0rNpbdYHjBkOL1zojqSAuy/VA3rF9UiaqbYuT/Gij2c5B/dlix6jgNkMtCPtkZlV54LHzgmj2vjAnVw8RsPyRAT+KCGptcgXZJ11E1XjA/D8Fb+O72fjXxPf+JiIpYWkI3qUSunetU2i/XYCV1IZ7hU+W0YN2wPGEIEGMjBve1EBo+Lc5pdunABuS6pB3+qNLAHIPkOFUpBJ3rWVpMhWLH+zIIQfKULQpEY6K3jz2XHCYxJkCngvEL88U8dkB5qPgNKIFFYN5KbCal7dV0PfXLB6Bi6cU11Ppcga0PwsthCC4CRXe6CmVMFbI73u+XO+GWduCe9SD4vRdWyGIopLGGkVgm9ki2Q7iZX05jI6pwL06Q52TskZIwntBnbM77jHeSNe/JR774cC+HR4z5vJxYQFe1CHVDC0iCJcs/a5BhRQ/qhvdmr3gA6XDCOduPCogeGZUI/k8KVIo/2e+T72wfiGc4y8gJET9Z55AvIybhU+MaUw8S4S9f65W74DZz4vMVFTb5l4sqMloBQSOO/fAUfop4/0f7fKpTK9vIfsuA1jXQ0LrRpw9csYAxHcGYsKHUkm1P6ozDAbij+9n7miOxzgERh6UCfnnaOY0aWQfdGcah7N5n3MkHbh9tDKo1cthrw7HUixB3JneqaEwMDA1eRoz+pi+m6jQXyIlFpG+fGshr5AZtsHyPNwflX3cMyH/sHJC/2emVh/CZFpFPP2yttKmn+TmIrpEZDsItPdgTVeO1uer0yInZ4nhNcqeGRu5Ad+mRIwE1jPIzHPce9KlnK9kxdUG1TS0hwWEa3RyZAcZQHm8JxRe+Zq9gjpBdIibyyZ5G9jxq5B58ODgYGRYHLF4U6no+SLeq2Cwfgjt63QKXbK7VHWaZgp2jfNrk8bawHMBrLrVZdntNmVJkSB68skounsWns+Nfa+QOHD7Z1RVRg9+UEw+IyFlGSzm9jpNLNTIG5+ved8Qv/wyX/yCf68yhbdFEnOGg1k6eLE5ZISE5c0W7o5mD9co1kK54plPNaMrWxPGRkH2qoPHpV8cX+dXINRgBcPCcnWNq6h7jc3zWJJwcOH/3UVjDHpKQrMwxskvEROPzyWtOP9PQmIng7KAdvRG14jlXX8ilS2ogJ84jJ/Bydr2GxkwDpfaANyoPNwbV2qW5eejpVOSEiH3hQTXnT0NjpoFzjv94PCgPNgemxBIayEmM2B8ckpD2TTVmGOjF/aExIA8eCagJ71MZaGefiMg8nwsztvPS0JgpeKIpoPYAycXzhmMhJ0TczgczoVF0lKgxE8CnVV5rC8kvDvjlHcSF8QfbphY5cU35BDqfOudkWQ2NfAYfst7TE5F/3+mVN7hm0DTJbE46a9j9e3hgUI6DjBoa+Qo+7Pted1j+Y69PnmgNSS/kdio7aJKREyKyMFxyYR80jR7F0MhHcFkQbkd3D9zRu3Bwu4XpIiGRMyIehnvKdWDU7kkaGnkCjs9zDulrrUH5MdzRn4OEuXjifqLIDRELC6Q5OCQ7uqNybBwrOGtoTAVIQq53+pPdA/K/tnvlSW5KlAckJHJDRICL/3Cx2BeOK6OvoTGt4LTL3QiXvvlmn/zioF/2eaNq86F8Qc6IyCUFuAHKto6ItMBNzfHkdQ2NtGD/Cx+e/vV+r3z3nX55vDkgR/xc7xQ/5ocxVMghEREQQwu93ReVXx4JnFjHU0Mj16CkqfVkQcDfNwbUiuc/2++Xh5uDavV21ZefRyQksr+cYipQ4FKnSZ64sEItOjvWupoaGpmCz2WyI4bT0/b5Y/JuS0geOhaML83Px/KmeLbMRJB7IiJ1J8r/xUVu+eIyt8wr0kv7aWQHFFzyi6u6c48M7hS8pzciz7WE5S5YP66qrk7Knd+XNeSeiAB558Cff91UqvbEyOV+GBpnBtjnEMIfTtTe1RWWl1vDsq0jLO96YxKNxLdhn0nPpk8JERVQYWdX2eRrKzxyxZzJ7UOgMXPBGWTcWevQQFQqoJC5pD5X/RtNGiigassCLscPq8e1W5sHYmoL7zcQB/YFh6Q3zH1LhsVLhvKCGSZeU0dE3IX7v1w+yyGfWeTSa9qcoeA85F8f8ss7HRG1rAf38LDi1YKjBIcHMsEdgNm51zckqndzGO8Ho0PiA4E5f5lT09T+jyBlM165K9gJzFD9PnVEJHCnCkuBXEoyLnbJ1hp7voynakwBuHLD8y0h+dZbfWpvR/ArThwQ7wQR8VkREX5lP0I8H0+ilaMpTYYhN6dJh8PU2iTUWRfch6dbg2qH2Pd7IkrzpVSxxmkIPmrEjpRHm4Nq+uMgQxNqYb7iPztbuJ3b4cCgHMTvx2EKaQEVWykgPC/5IAFPExISU+8cou66IyDj8aD87Ru9asNNH8hJpadxeoJNy+3yHm0Jy6+agnEijQSDYKcPx8aF6YnSUMlcr/WFroh85PlueaQpoIJtjdMT3MPwPw/71V73WuOmx7R1lwyDjNyrs9cbk//z/oD8YLdXbSemcXqB/Sj/ud+rdqji8vUa6TG1nTXpkLj7ApdJVpRZ5axqq9wwxyFzPJZRPRiN/AYNH590+O0hv+ol3dUfU1tyn2ku53gx/UQ0wJZDbDDbY5YbZ9tlfaVVVpZapYbjTJZCTcoZBI75HeN2cceC8st9PtX5EqRp1G04IvKHiAaQG+68vpQ7Gs12yNoKq8wFOWvshWqfeQsYSVLqNs1P+GAFDyHcePx4UO7c45PO0CDcU91gYyH/iGiAbgxQBgKug2W8rNYmW2fZpcRuklJYSE4GKCyI7/Fg9GLzc3xaU3xIhO+ZDPfh4H4Q3JhFy0NuQIcmhMp+pyMkPzsYkP9uCsTH/rQrMy7kLxETYG8Sh5tsyKXa4Qix5EUlFlnlhpV0FkopXstATm7M6TIXql17OGYVhivUE4xJc29UeiLDci7c3Y3VNrEZrNXIGkjC1uCg/O6gT+4/GpSdA1EJ5bVU5R/ynognYOQSzCyFlvXg4K7E3KrfAgKSsFS+tILD+MOQhAqZT2ZHcHxqgUtuXuSSxSDxmQBWF91CTgNbWGzJSfc4Y8EmuKFPNAbkkeaQNAVi0hkZEtU5qvXdhDBziJgM5ljlOpF17g+vGBj/qKAEAX/4it82lFnlS8vc8umFbv5w2qMdFuqJY0F56nhIZhVZ5KIKiywGIWucZnFZMnPRafn6EQO2+2NyeCAmu/qjsr0nKvvgdewFIfk4kmqLTBI/wzEziZgB3DCXN81zyrfXFEv1GbCT7h9Awp/u8YGIQbHaCuUiKKJFpRbV8TUb5a/Ad+WIvyvZAUZ3PUEe8oggpwguwMs5otxYqCc0JDtBuBYcR/pjsgevtIIK2uWfFM4YIrLXZkulTb6ywi3XNLhO6z4EPp3wj9sH5O79PmXBFEnYa4VCF1sLpM5hkvkus8wHKRcVmdUGpwVgYAH81wKei1OHeD7Y2AvX9jh8Te6a2+QblLd8MYlyIRgyNYnAGpPDmUNEwAOBu7jWLj88p0zKrIgrT0MhYmO+1BGWO97rl6daQul7LXkS/Uy+GoRSBz4niCjcVk+REe9pJo0g83TWYNOIXMTweQtOLt/VHZH7D/hOy41UWSKW6//b65NtnC44Emn4NX9jdzR7u/ie3zEB1gtJSkLyN44TIaZU52gS5gxnFBE5v/VYaFB+fsgv73aGxU+37TQCe4h/CyVzCMomwom8GjMGZxQRCfBQ9g3E5I59EFj/oFL+pwM4o+XtjpD86lBAPXKkMbNwxhGRLhhXeH78eEg9fnXEO/N3rOKMln39UfkZSPhWb0R81C7ai5xROPOISFBIY0Pym4N+eeJYQDqCM9eCcBbRASiTB5pC8t+NAT2jZYbizCQiUVggByHA94CMXA2aVmWmgYaPU8t+czQg3989cOq6LhozBmcuEQmQcWdvVFnGx476E1/OHHSFB1UP6Z37fSfGCTVmJs5sIgKxggLZ3h+TH+z2yQ/e71fL9OV7Bw45dxgx4V+/PyAPwZr7Q0NwtzUJZzJMcvVX/y7x/swEO28gxz0gIB9m5VhjucMkRZZC9bRHvoG9oxx6+cE+xLfHQ9Jp9JBqHs5onFEza8aCCTVR5yiUKxqccnW9Q00UL8mTVZBppdsCMXmzIwwrGJSHWkJq3FBBk3DGQxMxFZR4xFrX1DnlxgaHrCu3qkni3MVquuSd+70fAQlfag3JH44EZRssoo4HTy9oIo4EBGILXSb5KKzjJxe5pMFlVg8fT9VT/pwCGsUfPv3wUktQfngwINvaQUDOBtIkPO2giTgK+LCUHUexpUA+Nc8lH5vvlCUlFvFwDmaOwUePXofl+9Ven3ptR+yqF5s8faGJOBZQO6Rdja1QKmEh15da5YIqq2yoskk1rKSbjxDFz5w0euiC9kfl1Y6QvNAZUQ/ftvgHxQurmI+73GpkD5qI4wXnh4ORldZCmYeYcX6RRRqKzbLAWShzPRaZDZKWGavM4TySlw/cpnKHM2HYz8lQNAQrx+UsGr1RaQfh3vPiPYh4FJ+PBgYFX8WhCXjaQxNxomBtIXYjyUrthVIH8jW4TTIH1rHUUai2GavG4cTv3HbMTmLiEvKYG2v2g3y+wSH1OgAL2A3CNXpj0orXA0FYP3yvWMqhE03AMwaaiJMFSUOWsXcFpHPDhZ0PchYnSMin360FBcq19MeGpAsHV5XrQgzox6GuJeHUocl3pkITMdtgbZKco0FbO40U5L7770wDCcbhhdEO/NfQSIYmooZGHkATUUMjD6CJqKGRB9BE1NDIA2giamjkATQRNTTyAJqIGhp5AE1EDY08gCaihkYeQBNRQyMPoImooZEH0ETU0MgDaCJqaOQBNBE1NPIAmogaGnkATUQNjTyAJqKGRh5gZhORK1JwR5bkg99paMwwzOg1a8osBTLHbpKCJHXiAxm7wvFV0jQ0ZgpmLhGR6/MqrXLTPKdUOLlgYRwH+qPy5PGwvMDl6bXjrTFDMHNFdXhYqh0m2Vprl6vruXtT/NhabZc5+F4tb6gRB6tirJXlJgojzWyne4ZiRtsMhoTRxHsDQxAMHhoi5gKRIvypdxTKuhKL1MNzcHIVuckAVWuD1FRYC2Sx2yyriy0yC+lr52NymNH1NwzCDca4Qq9GKrjS+Cx4BpvLrfLFhW6587xyuaXBKfV2NHmGiooULsafBSDgVbPs8q1VRfJ/ziqRj1bZ1WY9uqMsc8xoIhZCu5vNWhefAhDtcwtccu8F5fKTreXy5ZVFsrzUIpUwZVYubpwJQLIivPzr5hK558IK+d7mMvkY7jEHpNTmcPLQVXg6AqThfhzLSqxSZTeJyxLf19EPXz6SqduOmBuUk02IwRd4zFIGUnNLASVA2imZNDQRT1NYQRLuu5EcEnIXchP318gQBbi2CInQqianoj3SyUMT8QyCDUSabF9NOkyC2xoJzGgicoRCa+PxI4YK06M6+YmZTUTdazohBFBV3Jc/29DknjxyT0Q2Egf8Yjj4OtoxwY6ECfWaMu3U++H/Sd8becT/rMFIn2mPpw54TLAeTgEvHykJ6q109+Qxmfumq1/jwP8JY7T0Ug/8nzRS00xXF/yKv6W242TbC8jdFDdmELFDqcMkW0ossqrUKh57gRTbTOIyF6gtAmnMAjjPHxqUYwOD8lpvRN7yxkTC+IH8Gm3jThT+2gan/M26YllabEl8KfJ6W0ju3OOT/24MxLdAYyUhuWXFZtlYbpVFOLc0MbDtshRKCJkIoGL90SFp9w7Ku13IA/LRz8rm9SPdfyyw/PjPwe4VRRZZgvvWeEziTpQft1bAbcWPe/nCg9IbGJTdvVHZ3heVliB+4My9sYYbcI94GXGwvpC2zVogd2wokS8sdMfPSeDuPQPyh6aQNAUHT5qfa6ArOizHQ7ivkR7eKnPHPKAuKuwmeffqGrx+cPExX0z+66Bf/tAclPAIpvEQTLGPjZ3+55PB++L/kiKzrIfMLMIrd2b24N6ssyjqlfu7hvDaBznZ3x2VZ7rD0okyqfTZZhMBqwwJL8U9jEtZDB9uchjtocqeyFOZtVDWQJa31tilzFmoOq54TQ/y8UZnRO497B+7vUZA9onITKNgG1CB51bZZDmEfx7IWOsyJXbQLVQVSplhgVmpYUhjHwSxEZV5wDcohyGM73WGZS9I6aUwpCsb7jMqEY8GVM/hplKLbJnlkNWlZpnrNithcqqev/ge9zGkw33tI6jzAfw57h+U7d0R2dYalndASArnuMmYqEmrpUAuKrPKchyLikzqvhxG8OCm3M6b++wb7cXqonCFQMYg6qENdXBwICbvQSG82BqSQyBkjOemywOuXYF6poJZAEXjYcXivxn3OLfCBuXzQb0Q+0HwZn9MKZ506b3eEZH7IUwtyMMWpLkG7VeLtrMhPWaYvbCfmOsUhyGxAJXIoYF4uixLOtxzwC+vQFC5S/JodWnFsQXttbHWLqsg8PNUexWKk8oFZVOcQBKDEBwqsCDu3RmMKZlhm73YHpb3+qNxJTgeQuA0zoZcBEX5F8s9apiHYHts74nKP23vV+kU2wpla6VNzq+GPCN/8z1mJUOUZ8pxCwj7CBT/376D85PqZiLIKhFNSKkOFbcBgn95jVVlfi6EYSJZo5AchpZ9rz0kfwQZXkIFHze0XTLGIOKTLSE5D4J0fYNDts52SBWs4HjrqBsW+hU06iNHg/Is0muhhR7rWuSvHJZoKRp1Bcp9RbVVVkCjV+O+bLCJwA/yHxqIyDOwXg8fC8ouEJNPlZySB3z38TqHfHaRS86G8BaRiBmC+u7xI375p3f6ZDcE+y+WeeRjSHc+yjPR/KfiH9/sk3uP+mEZExYmDcoh7Jegva6ZbZfNKEuV03zCaxgPDoGAbKtHj4fk1bYwLPCwDI+jzUhEttMjl1RKKfJAUPc+1xKUa5/sUPm4DHX8ccjR2WjXksQ5yWiGvN53JCDffrsvYyJm3nIpsOH+82D1rqt3yt+u8sjNC9wyL4mE5BE1ZgTC44M664d25CsHmClj/J2g9lsJbXjTEo/cvtwtq2BVlNoZJ5gOK+s8aK+vIx/XLnQpa8z64X3C+DPA+4Ncxv2Nexsoh/W6os4pn1vikouRDj2xMXMALT3PZZZb5jnkH9YWy1WohwZoTgoxLT8tL5UMXahWCORxNB6PdrxnXfB3Ix/UzCvLbHLrCo98HmRYinTg4aaFC+lTiGkNWT7jMNJKBr8j4ZLPM85l2/A3gtVdjkKXW03KqzDO4znpYFyfnGbyMYQKYB2MhCrc60oQ8Furi+SjC1wyG5aQJOQ1bC8qRrrAR2F5G6GUWG90B2kVDSyArN003yV/Ccu2tcam5tiOKdwoZxD3OIq0mE8DNIxsNxus3pV1dvkzyOHFs+wnSMhTVdlQaLYbZZrHZGCSq7/6d4n3GaMQeWiA5v88KvF/QAhr8N5QfKxMun50YXpRoccheAfhch5ApfbgcwS/B1EIoxy8rBCSwFc27itw0XbBRTwF+G0ZCHsBtCfdTQPH4CLRhbocWuxc+PIcwOb9qSG7UeHHcP99/WjU/oh0Ih4KIR11T/zl7JNEthVxq6Auy1CWt5CHHpAlqd1PBdJZCAG6CPlZCbeO6TAsMojfhvse8UblZWjrd7vCSBOxINyfQ/iuD7+rMT7cH1mPlx+vFIaVcDH7cG0ThI/PWZ6klBL3XIx6YOzN+7CevTiYhi3F+lARDKDCjfN4DOBAVIBrhmRPT0TegCdAd3xNiVXqS8zKqvjwmfVHq+xCaJGcLNuN8V+vUqzxNHnwfKbNez7XFJDdqPMBnpycf8CBj9fBs/lf60pkLqwv802wzZjXIyg36+x5eDgvwkN6GyELXXe2hxN5YX2x3ZgnKg0+kbMG9b8dZemC0sNp8QYeCciSE0L6pWVulZ6BY5DNZ9DuP9xcJgs9FjWJgdlne3pRzh6kzfz14KBF3AHP7XUcJ1XOBDB51xQVVgMifLTeId89q1TcqJnkrAygJraj8h48FJBnOxBUo4CsGxKUdU4SF8BibUAjXAV37kK4kUtpBYEf7uiXX+K6naj4UyoT903nmnYg/UHcgBrdmFf5GlyWe+E6bEPM1YUYcJBfG/eH6l0Fv/8m5P8Ti9xiQ2Mat2LFUBs/cSwkf/lqjwzwi9R8JMGKsp8PzXnPljLlJu6AAnkbwvMUBOnF7rAMUfMibxRuJkWoPODVDO17M8rzaVhA5QUk4SgU19/A7fkd4t5U18eO6ypR1irc20izHcLynVVF8tl5rsQ3cdyz1yuPQaAZixNUdC04twppwqtWws0YGdwRJwS6ARaA3gBBHRDFPR67sEJq0d6GvNFS3YsY8AnUcYgJJsDzO/F5FtJuRJokPwX5JOD3W2DFblvqlvVQOMky/A5k5e6Dfrm/OSgx5Is5VpezvvCG1eBG/m6E5/F5uNFzESvzcp5D6/Q+iPjVl3pkO2PGlDo7CchnBX5/97paqaCfCjANxn3PHA/K9ahDemnEcbTDNnx3P+ThXcTbUbIcgsxy0VQEVAYzw+QtImrvIpDnz+FG1cE1M4rMPL0HzX/nLp/8dK9P9US2ION+VD6tUBgHX+ka0CLSZdsBC/Fqe0T2gHj9UNP3gIS7YTlTH3VSwHXpLCLJx4qjJaRg/dP7/fKLfT55BcqgFRaQ9+e9T9wfddmNP/vQYDuhtTchDqAlolCwLOzQYe8YY84BaP5ThCkJJJkJEmPDSXdBOP8LB+PcPShDLzQnBTWM8yJImQ2njkReWAeNOK8V8Rl7VelqGXDCV2qHMFPzplpF5fJSQ+N7/sajD+deXG2XjShLMp5DGV6AUtiH+u3CjXkutTpdY3oL/SALklIwLBK/53lUSEP4fDtI44aSMXLQjXbbBsF8Fpa0DfVr5KEbaXpxfh9e2TOO5E4GvrgA5Lt5gVM2VdmVAjTwKOLJuxDnP4X80jqzfigD6sB71hu/49zZo2i3wyBIJXz3OngHTIWeRSk8BD/u3Yr8sawnMpwKEIlPqnwJLq2T/jDAUykD9UiPLj/HXh+EIv+3nV55sCkoexMWmeOyQZQjhCtUvY10j3HgA1ucCVARGyAwH5plU1YpOR90If7rYEAegFvyPgSsHTlVhKKEpx4oxAB+PwIt9Bo02e+O+OWHIO8OXIevJgQSh0drIAYF4JX7YEXe7o1KB4RDVVbyfXkAdLn2eQflyWNBeQz3pstsgGnR4lyGWLGMrgvTGAn4jS4orTi789+i6wlXuU/dGDDuydumHkAb8vhMO4QaZGlPWC2CymVpsVm5oaf4x0iaZCSRjWOIJi1NPjlpm4QwzuMQACdF0N3iZ/DwA+C98T0Pvmd7J7J6ArwNSZt8rnE+0+Y9eM9TgDJdhLhwNdxIo7eS5dgJ9+63h+G9wCJ2kEBEcj0lHcwulfsf4ek8BoLsSYQw/JnK+KI5dlkAF1t9MUGwzpWCx7VPI+3fok2fg7I5gPbk0JbKGdNNbs9JYHJEBM6psqneScMNJCjIT0FLPgphbFbjYYnMjgb+jjRoMZohzK/CP1frzmRQQGr4dzoj8mu4NkdhYZjmiQpLB3zPIYIuaPRfQwiaUNmQnxNgrLWl0iolFBj61CMBP3shTFQ8jJnUsMNo900Fzu0EGffB7aF1TMZseBs8Rr1/jsFbpyXVBEH/ZaHHLBur2KtM9RBPl8r4gcaAavtuKpPxSCfqrAfXPQUyPodDDc0ksAgek/H4VzrFNBYoA0dgce+HTLwK766fX0ykPSeAzImIPJVCYyxBQesRzCbjHVjDl6E9jsIqZXQHFnYSOAghphKgy6LiwXGC+pTDJYdwnZ89LQkwO7OKraozYFwNygsmUQZ2ajWCjMkoZ8dRIobJFByr53zTyYCEmVQSuJYO82Vwm+fDwrNjjWDvdTPk5SG0WydN80SqDzK2C2HFK51RxLiQuQQYp2+AJ7FSeRKjZzrdr7TmD8KjehkyMaHx5AyQORFRMA6+LnabYA0T3wEs0KNNIdnVF3cTphqs7ze6o/IruBOjBukjAZV/BI3aQ0ueAHvyahCDpPZC5gq9EMSmpPsTLlQyO8LGpQhyBIam9M6TQlSFidYK3f1zazkm94Fi4UwWduodR4jAXtwJAw3f5o3KLoQ2yVgCq6g688aoN/6cfArfe9EO/4bYsImzPXLc9JkTETllZwm7iw0w8+wd4zQtDg1M1rKNhSGQJpZkuQi6hD0MLOHiZYo2WETOsjHAUnA6XCa8TgtqC7o5IxzDuDXfJoOzWZJntOQVJiJFKIIJLv7SpNiQYOfHc8fCEsnU3CIpytw+xOXJKIPXVuqCjCYs70hgEZLP4KSKvXBLY4zVPxCFnCFzIiLX1bCGRdYPiMigfQe0GnvfMqfB+FEAopuSxn6IFrg37DA5Wb9NACgXtTOnORmgBaBbWjjmVI00YDJMi7ELCQjho0vGKWQfrrHLDXMc8qnE8fm5TvksjitgLRZ4TnZD1Z35J4Ms5BPoVdTCu3CZOB75QWFIxD/CBVQrCBjB6EQO/O+B3B0GcdhLi48KdtQ3VxPgpIeRwNtRbzMZAyGkdRT5obKfCmRORIDTxlwcgEqA8wAZ27DXbCoEhu2YepsgGjRAKzkJa8zOuqSYX2HCFYVWLYYQrC4xy8fqHPJnyz3yjxtK5H+vK5Fvry2Wr68pkq+uLpKvrPTIlxPHF3DObSs8cvMSt5xVrZZjmhkYr6ziPM4QWuQ0n5j4TxjiMgeytAwytQJe1oQPXMc5zYwLwaETUL2faIcaehPJTEsC782fk11uKgQOa41wSdaRORGRabpryeM/zHRvOD6J+lSKTA0MZTqZ27MdM6r/xEWc9H1hlU0+Nc8lX1jkli8tjR+3L/XI7YtccsM8p1xZ51SD/5thFc9KHGtxzXoQcE2lTeo98d7EbIKx/GSWysgGOBWyBrEh85IsfJwU8vmFLvk8lNCtqKtMjltw/YU1tpO8UM664TihmtowgUalLueMp4zkIANkTkQUjk8RJDcsHQK6pcqaTGd7T7L20slqOuubCjoHtfZCOb/WIV+DZfurlUXyWQjWBbMdaoCeVsDOesPBJwjY1c6hFg73JB98vCe5Gz5boLObeYOPggm0Nde9YTSDKjgB6nIOxn96mUf+BHV2a4bHZ+BRcII269lInmnDXqhOppHAmqZVTg5P2busJo4nPucak2oXTn9K1j60JH3IfA5kaOLIYh5YRJJnVGOC+5GENzY45VfnlMrlsHizXNT8BcpC00tgBwBnqnCaH4dI3kUM8nJHWJ46FjzpeLEtJAe9J3c6ZAN+hM5h5S5MH2jn3azL+McTIDGppCZ7JI9nE/zE792jMJHtyhAy5dLJDdNMEJMiYiqYWAWYSQ00FUjXazptgDu6td4pf7G6WMUpyY3K+bZvgXA/2DkgW57qkA0Ptsmlv2+TG57ukFuf65I/f7X3g+OVXvnuW33y1NFg4ursgU8kcOpWpqBgoiinCugEmoDxNwfgp1LIObKoJnWMAhZhCrN0CiZFmfgAceIDQLeDD7+q6GYKSpWu1zQXYFE4ZWtEY4IfPoLY7oY6u+qhM0jIxt3RFZZ/3zEgf/5Gn/z8gE+Oc54n3PcepNeHox/Xph6cf0tXKdvITk2lcdcmwO1hMDAC5UnLjP8nwOcJv/FqT06OH+7zy3vsSU81eUngL5mrqMkj87ZBLbKbn7MPDDCxEgeIqAqcA0lKwXjitmyBsfCIrimUwYpyi6wusaqYxACfnXuwMSi/awzI+3w6PsinL1AvPId1lO7Afx4j3msSCIEEuSD4REDrxKmL7NlMzko/yPl8e1geagrKA6izcR/NOEa7Br+91h0fUhtNWHJQ3RNC5kRELXLmfYAFTKAQqVV5zPGe1Glu8CkDyjmHXedus5QYzwwl8Ep7SJ5uQbznSzzGNc7atoCFowx7ZQy6lewkyjbGnSTqgF7UUcgNLWLyZVR0nO7Gyfmt4cEJHDx/tGsSe2WOkcfs18rEMCki8ulyL1s3AVbmXLdF7AwSqd1PI1CA0wocBGqVwyQNIGHyFDieyjVUDisSTqwukJzahDUfwQegUnM2kZxyjJl1wsej+LSFAcavZ5Vb1dPxqr6SvYTRDoIv6X7jgf/jAXOSrnmnCpkTEQVs6keFQuMYoCFcWGSWChzWpIH+mYZUwrEkambNCEUqhfRwyYrknzm35zDUP2PB8QqDgRIosjmclpVnID8YkifrFb5NtyLcaGAnG58wSR6iUcuTzLaLk+knvptKqHLE304LMiciBO++zrC85/1gtruB2+c6ZAsn2iZpvJmEVAPGUjAWThtf4Ts+JW9JGsfhaVyeMdNhnEq4uYsqTn6oN1/BUnPRsImA07KfQezGh40N8KFcrvi3vswqanZfhnWXCah4aU+mU1wzJyIQhK/fBM3WSvcrCedU29VzirP4YGWmpeN101gxyaCw0e1MaxHxXQQxSCyJpTyNa7tUwSugpRw3UObNEMRLamxqvZxso8ZWIO6J5CcF6QRWPTjNnuLE5zGB23Mo4YmuiOwbiCqFRTBbZTaTfGaRS2oRc2cM5o0ZnID8sEY402eCEURWMSkisqB7uqOyszd6Upm5DiQXb/oIjgmRkafh4Iyd9aUWKcqTOInZGm3fCC6hwUn6yT/TQG5AGWaz12U85cc5S2AJP9oQX/QqdWBagV+Np0pwjnpqPuW+tS6zFDN+H0d20mG4YFhN+0p+ppFrntYgFEmewD0WSL3OwKC83hZRi30RvJpjnFtnOeRDsx0yl2Qcr9wQPBXn05quhzd2JeqwjI0wjiR4SlpvZwoxOSJCWLb3ReSl9rC0pFhFLoD0iQVO+cQ8p6wtsYiZtc/SsnL5/sSBz/we/7kq9uXVNvncIrfctsSt9uFLK5D5BGTvAFys9sip69lcCGHYAHermALBcvL35CNRdgvqgata37TQpZZxHHGeKatiPBYNpOiOcNU8VvAH4DS72UhbPU6VLj88RgHL14pQJJzkc9OlXFZhlTluk5pHmjbddACZn2kNqpXVuawlwabmgwTXQ2auq3fIsqJEeDNSXnkk6rAYZeKixNeg/r4E2eHaOosoP8wTz8tzTG7xKBSScyU52M0nDbgYLYlD5cjXWdDAS1E5pRDEMHjqwTlctlwdaMByvFbBYtSh8nntxbV2uXWBS24CETfAtW0EubmMYH+6xX/wVbrFo7jmJZc/3NkfjbfsRIF0V0Bgz8L91W64QDyVArUYVFPqwDAK2wXB5JoyvI4T4Q1Uwr2kDHAVbyodurfkgAuvJXBdK1D+OThnZYlVblnolOtR9rkQHrpr7ATjqujJt3oLnseTbXDsmOhowO91SJcdZ0YZiBLUEy0aF3Uy4xxuO8AJ0VwYmb20HH6iZT+lrhUKhOswLEH++LAtJ24QdE2LLSbpCQ9KFOWk4DNdD9q8Eh8oF1w065R4GfXGVc1tpnjHFGXFKCstNxdu4mgQF3kgyZjPeH5Rf3jl7KVypM3J4vWQn43lNrWS4I1wbS8FGRcij8ehIJv8g+oZ1fRlApAvtseXl3Ol7w/arhf1/zoMzPuQIzXZcKTrs4SsrOLWAs3bCAFdBr+gRq3QHCcjK7YYDbau0iafQAVtgOak5t9cZpEt5RY5D99fAvf1M9Be1GBX18MagJAqHkPS1WjI/b0xtcLaSRJJoAKnioiUIa7WxWUDmympqekiRnShpbiqN62O8TOHc5azvCgn93CoQV14oHiWeyyyibHgLLvcCCv4jbXFSvFwdTRaHa57+mJLSJbgHKXY4snJ272ROBF50hgoQH5ng4xrUOfJbuMapHlOpVXm4rcFyC+JzxW2mUcuDbWfa+UknZ+KAtx7E2LYSscHxGGP8la0A/erYJpcaJl1eBnO4/0OwIpyFbtThBn32YV2Cg8VyFnIJ8tvpMkHetnXcE2DUxZDyTUgfuRY7Xwqd8jIOsjQ+cjz1XMd8tllHihvl5wHD6QyIQusoRVQcPtBRE6mUF+kA74nyW9LrOJmZHHmETEBLrT6QncElWRWT+2nzmkksVhJFNSlZTZZXhE/uMBPtT2+dklqWfuYJki1J03PLCtwKi1iIdIiEU+xiAQ+N0Prcsod3SNOc0sGNe18pHk2BPNKKJvLobnPnwO3tcou8+hFoK6MFPcj31z9bltLGOc61GRl43bcnOa59pDETjEvKYCAc3lFPoWwAvkx1us0UAShXgwFcRbyc/5su2yEwDeg3ZqhUF9GzJ9WaJEHOpDc44J7P3DpTC4zaYDvuLA0F0Q+u9Ym50HJrAZRanHuU11RKOuUINoAFAZXuts+EFMKmstnJFcv64au+nq0x1akeeEch1yM4wKVb5ssRTlS5Ye3oZfG7ReePh6SI0nr2JwCnEwiTrdFPFliJgEOznJNTi6E+x97vbIbQkOPIBm0lJx1w41YThz4rMamEudQxria2n0HffLX7/XLCx3jcMWmAGO1QwQZfxoN/91dA7K3J3LSYDV1EstJjV8C4aWXQNeKS/5R0AiuYPZEU0Du2DEg9+OVU7640gCXqzdQinPrWFlJaY+EGMj4LBTS93Z70+cH96bgcd1OrpvKhanmw0WcnzI7KBlcoCCCNrzzUEC42lpqbznbl4RgOXkwfa48txZpVrOY6bKNa0Io+5sQ+q9Adu474lerwRu6Bj8rmaG1YpqsOx5G+snyw2u4XAY37/n7d/vlH7cPyNswDpnKzyiOQdaRNYtIsK1ZEW1ooJ0Dg3IsiIaCZuJkcFYkKzUdSFiuQ7oTAvPs8aDcfTggTzYFVUyk/Pu0KEB8aZJaWB/GVIwn2WHEdTHfgVZXWnCkG44G5JXd8dyQhGOHjFF5cHHf3yNP7dCUI7UQB6jbgkNyvD8mg7iWMRcFPtni8dV4z/RJtu1wRbl71cNHgmqLgXZYD8aHjLG4Nmgz3Cta+n2oHyq4dq6uO1bR8DvdaZUfEhrEJvGZbnwu8MngcvlcHft13L8X70cELmWc2YF0e9DWhVAUHrQDCZFaLdQhVDCvwM3mjk1elHekfPOJeC4GzLo7jPL2QB6GYETZg25Hnke4TFnpYzh/N9z2bS3x+aW/PxqUF+E5HMI98dMYdYXYF7+vh7vegfsb7c1w6LX2iBxE3TGJXCM3+yOywtHo3I5sE1yyOsZH0LjFECwG2tScLBzXFvGhAcJwQTldrhkuKPfEeBduimI1W3aUSpwNTbsK8RY3B6FupgNGa3qAlclYbtQGGBlMlz1uFRCwZDwP68x1R0dNF9m2QgIZA67AMQdxM+MdN1rbWPyJ07zUvhNQMl0QaK6d+QoEqSswFHeDAE75Wo56q+O6n4lq6AJBuVWd2p1qAqAHuRku6jq4jbNQrjKUr4RkxH+uls0FlrmXA116eiBqbuZYwCmsp40o4yoIMctIxcH4nitjq3TRKHzQ+ZnmoOxGvtWek2MB13H4i0M5y+G2z0EdlDlARNQdH7GzQiY4fOJHFXDV9mGkSSJSUXFPFc7r5QZDqsLGo4iRJfb2Xg63N3mKIntyuaJ3M/KPLOUcuduolGDKJBRfUcZyVCh7Sx0oMInTDS3dCb4MMX6gbLEeeIynAgmmS7XL12Tw+nEmkRZGnlMxkXSZRqJMXK2McaxaoBjgyt/cK1ANZlMj8esESU+A908tGxXTyJ7j6GB+eC+QhTHsHLQD0+LS+GpZe3oevFdqPkZDch6RHt1aLvnIXtJupMlDPWbBJMdQqqeAdcc8Eywz8jwf93DhPbdK4NRBtQgxFK/KA9tmMu2eyjamM145zAJyS8R0MIR8igs67WCZTwgWyj2dRU/Oy0SINxZy3bansexkql8zByuQjX8mkZBgcVluHtNd9OS8ZBO5btvTWHamnogaGhqnQBNRQyMPoImooZEH0ETU0MgDaCJqaOQBNBE1NPIAmogaGnkATUQNjWmHyP8P97IrQub9lf4AAAAASUVORK5CYII=;" parent="1" vertex="1">
          <mxGeometry x="340" y="383.93" width="146.04" height="141.52" as="geometry" />
        </mxCell>
        <mxCell id="H3LQPbuVWB5SwZg9GpPZ-16" value="Creates a new Chatter Thread or updates an existing thread" style="rounded=0;whiteSpace=wrap;html=1;" parent="1" vertex="1">
          <mxGeometry x="147" y="470" width="120" height="60" as="geometry" />
        </mxCell>
        <mxCell id="H3LQPbuVWB5SwZg9GpPZ-17" style="edgeStyle=orthogonalEdgeStyle;rounded=0;orthogonalLoop=1;jettySize=auto;html=1;entryX=0;entryY=0.5;entryDx=0;entryDy=0;" parent="1" source="H3LQPbuVWB5SwZg9GpPZ-22" target="H3LQPbuVWB5SwZg9GpPZ-29" edge="1">
          <mxGeometry relative="1" as="geometry" />
        </mxCell>
        <mxCell id="H3LQPbuVWB5SwZg9GpPZ-18" value="Needs to Trigger Event" style="edgeLabel;html=1;align=center;verticalAlign=middle;resizable=0;points=[];" parent="H3LQPbuVWB5SwZg9GpPZ-17" vertex="1" connectable="0">
          <mxGeometry x="-0.1339" y="-1" relative="1" as="geometry">
            <mxPoint as="offset" />
          </mxGeometry>
        </mxCell>
        <mxCell id="H3LQPbuVWB5SwZg9GpPZ-19" style="edgeStyle=orthogonalEdgeStyle;rounded=0;orthogonalLoop=1;jettySize=auto;html=1;entryX=0.5;entryY=1;entryDx=0;entryDy=0;exitX=0.5;exitY=0;exitDx=0;exitDy=0;" parent="1" source="H3LQPbuVWB5SwZg9GpPZ-22" target="H3LQPbuVWB5SwZg9GpPZ-33" edge="1">
          <mxGeometry relative="1" as="geometry">
            <Array as="points">
              <mxPoint x="-253" y="960" />
              <mxPoint x="53" y="960" />
            </Array>
          </mxGeometry>
        </mxCell>
        <mxCell id="H3LQPbuVWB5SwZg9GpPZ-20" value="Update the same Data&lt;br&gt;Custom Object in Salesforce" style="edgeLabel;html=1;align=center;verticalAlign=middle;resizable=0;points=[];" parent="H3LQPbuVWB5SwZg9GpPZ-19" vertex="1" connectable="0">
          <mxGeometry x="-0.5427" y="-2" relative="1" as="geometry">
            <mxPoint x="79" as="offset" />
          </mxGeometry>
        </mxCell>
        <mxCell id="H3LQPbuVWB5SwZg9GpPZ-21" value="This needs to be immediate conistentcy" style="edgeLabel;html=1;align=center;verticalAlign=middle;resizable=0;points=[];" parent="H3LQPbuVWB5SwZg9GpPZ-19" vertex="1" connectable="0">
          <mxGeometry x="-0.2395" y="-1" relative="1" as="geometry">
            <mxPoint x="119" y="-61" as="offset" />
          </mxGeometry>
        </mxCell>
        <mxCell id="H3LQPbuVWB5SwZg9GpPZ-22" value="" style="shape=image;verticalLabelPosition=bottom;labelBackgroundColor=default;verticalAlign=top;aspect=fixed;imageAspect=0;image=data:image/png,iVBORw0KGgoAAAANSUhEUgAAAOIAAADbCAYAAABwZU2yAAAAAXNSR0IArs4c6QAAAARnQU1BAACxjwv8YQUAAAAJcEhZcwAAFiUAABYlAUlSJPAAAFJNSURBVHhe7b0HnFxXfTb8353etldJu6veu2TJli33ChhjbIOxMRADNoTwkhDC+8EXkrwJ+fG+iT9SKK/BAUwwcQB3jCu25d6LrN61u9L2Pr3s7vc8Z+bKo9Fsm53ZnZXOI92ddu+5p/yffznn3HMK5Kf7h0VDQ2NaUZh41dDQmEZoImpo5AE0ETU08gCaiBoaeQBNRA2NPIAmooZGHkATUUMjD6CJqKGRB9BE1NDIA2giamjkATQRNTTyAGceETmzdhB/Yjj4ymOIX44A/mScN57zNTQywJkx6ZvEGcIr1E6p3SRbSiyyyGOWYodJSmwF6ju3tVCspgKxJVQTeRoB6SK4LhAdks7QoAwE8eoflL3emOz0RaU7gB8LcLI68IevGhoZ4PQkIks0PCyFeC0B2ZaDdEuLLVLnMUmt0yQNOCptJrFbCsRpLhSHGQQECU2FBYK3CuRuDGmQkFEQ0o83IRDSB2a2h4fkeHBQOnAc6I3K4YGY7PfFpIusJRu1w68xQZxeREyUpBhsqgcB57rNsrjcImtBwqWlICI+F8PyZQP0UH0g5sG+iBzqj8n2vpjsAikPeaNyEARVFniqLaTRkuoVf4zPBlR+Epniy1TnT2NEnD5ERCnc4FgVCLgKxDu/yiqba+2ypNQqTlg7GLucgZzrhzXc0xOR51rD8nh7WFr7o9IFokZyWbtMO1EuWnI3CumidccrXWwYfDHBZeZpgzDxUbzhEcF7H45eahP+aByamNOG04KIlB8X/qxF7Hf9XKdcWe+QhiJL/McpRgjC3Qg39Vd7ffJoW0iafYMSxneDWRZy6Bax49VMJQP3uhSx7lp6AHDDa11wwRH3VoCNJCYbuA/udA+URS9d69CQ7EKc+3xfVAbhcg9DYcTwSqURUalrTDVmNhGZc8Rx7Gj5xhK3fGy+S+ohjOx0oaBOB5glGppQDG4rYsd7D/jlkaaAHPXDXTUC0EzBxGHJTHitLTLJJ2Y7ZH2lTRqggGYj7qXlZ7lpBekB0AlnHxLBmJeWG9V1Iv4N400r3OhOf0ze74rKEy0hebELVETe4wngSFyvkVvMXCJC2suh8c+rtssXlrllKSwB3VKSMF8QgpVpg6C/0xGWhxoD8rvGYGZkJHPAqKVFZrkC7vZZ1VaZ7YLlQ/mLrPFOJ7qj5M1EwIantWZnFOPdTljNRpByB0j5Jtzr17rD0kdfVhMy55iZRESOV0EoL4dFuLLeLpsr7WLJ457KPriC70GoHzgalHuOByUIgVcsGEu4SUCQYHOpRc6qssnGCqusxvs5sPpuFDjb3GCW6Fq3gox0qV8DGd+EEtkOF/YY86zJmDPMSCJuhCv28QaHXFXvlCV4PxPkIwjreHAgKnceDsirIGMT4kh6q2kzjxZxQLGw53d5uVWummWXc6ptUgerT8s3VWhFHt/vichL7RHZhnj3rf5o3L/VhMw6THL1V/8u8T7vYcaxBJbwS4sRDzY4ZV7RzCAhYQGBKu0m2QCLNgRLR5e1B1aGRu+kQuBzEdzXlSjb9SjjF5e65dwau1QhBjQbAd8UwYPYe0GxRZYUm6UMbnBbBHElXFj8V3zUyB5mDBFJwhoIw/fWFsEddUqlk9/MLJBHHriUi2DF+xF7sXfVC6keTiKYA4Q9B1bwT5e75bPLPCruNU+hFUwF71wEQi4vtcrliE+PwWXtCg1KEC6sJmP2MDOIiEZf7DLLdzeWyCVznNDUphO9gTMRDlOhrAPZnJYCxI5R8XNGjrKMBXLLQrd8fXWRnFvNuDd/Csk+MMalF8NNLsaHFhCSVn3CPUQaaZH/RISAriuzym1w0T4MS0h3aaa3PZUIp9TVwNpxps8zrSF8USjfXFUkn1mAuBduKafd5RtY78w3ZyjVIIjltL/D3li8QBqTQn4TESSci9jomnqHfHK+S8VJp0ubsxi0MKUgoB2FumyOQ8WEi0jCPBqCSQcX8l0NJVICJRKCi31Qk3HSyN9eU+SqDK7btbCCtyxyyeYqW+KH0wvsTW3zx6QIhGQslk/u6Fjohmv6PKz5v+/2yTs9EYnyS83HjJC/o29Dw3IWXNKPNjhkXcXpSUKCLui8YouU200zioREOaziBYgZb1/qkgXwVmyZZp+mYDzHaYy8JCLbk9O1rpvnlA0VVoGh0MhTUIFc0+BCbOuSOSAmHz0bL6h3rHh14NWJw504PGhvT+K9C+/5mx0Hw2b8Py2Rf64pcsOK/xM07JdWeGQ+YqaZ3jlzuoMC5EOs+Ndv9cojTUFpC6XpTeWAKU9UB/4wzrQXymKnWfUDVCAMYczsBNvMOIaGRCKxIQkMDos3Avc9MiR7AzFp9A7iM3uZkQbjUt6G95rhMpKXMWIpTOBDF1fISj7ClIe9hxqngkL0SltI/nmnV55kL7BBOL6iPZe4TLLKY5EFxWZZ6DFLBchHt7wY5OMTIrSMfDCb/VSq3wfXkbvgoZqgHsJrfxTExNGD2PQoCHloICZNA1F52z8o/SQ/BzbpPc1AzZ1fREROytFoV8y2yx2bSqXElv35lBq5wwAs1b2H/XL3AT9IEpUlbrOsKrfJHJIP7+udhcqVrbCZxAULSL4UgnXj4Q2FVBlVkJIdXL2hIekKD0o3Xg8FBuVgX1T2d0fkgDcqR/k8F0+eQYTMOyKuRKP9740lsrXGnldPUmiMDwf7o/LHlpDs6Y3KpnKLrKwAEV3mRI9w4qQsgkaQT5Ac88Vkf09EdvfG1JzYAyAmnyThskIKeS5KeUVEPmF+aa1dfnZBuRpL0zSceaAw0TIGETPWwB2dagQ4yQDW+JljQdnWFreQHbCaXvq4eSxQ+UNEuBLrSy1y2yKXfHZZUeJLDY3M0QqX9bHGgDxwJCBvwG0NgojkYz4ifwYGYA3riiyysZoLQGhoTB6c/XPTIrf885Yy+da6Yql1FIoJFlOZ7TxDfhAR1nCutUA2gIh8tElDIxtgXw17Zhd4zPLJeS758TllctNcp1SyJ56dOXmEvLGIdU6zzPeY9HCFRtbBieqzEK9yWZXblnvklgUuNadXIU/4mB9ERGXMgdbioaGRC1C9swNwY7VNbl7kkpsXOGVtKUcvgTwgY34QEbU0y21WCyJpaOQay8uscutCt3xukVNWlFnEDhYUTDMZ84KIZg7yuk1SiuBaQ2MqUOk0yU3zXfLddcWyuNgiSvKmkYzTT8TBYVlsKZAaS6GY8sM+a5wh4NzWrYgbf7SlTDxGWDRNZMwL0a8yF0oZ5xvqh0s1phCUNnYOckWEf1lbJItLp68DJy+IWAmXlFOgZtDUQI3TBBQ5Tjq/YpZDPr/QJSsNMk4xpp+I0D5uW6HY9LCFxjSBBoAPGHA1iI/VO9TemVM9zpgXFpEbqfARGA2N6USdyyTX1jnkw7V2KaVhmEIu5gUR7Si07qjRyAdwaOMjcx1yfpV9Sq1iHrimw2KHRZxp67VonL5YW2GTG5e61SoCU4U8IGL8eTI+ha2hkQ9gTyo3u/2zxW61bMtUuKjTT0RYQkVEbsiioZEHIPdqnSa5cZ5DlnjMakOgXJNx+omIUkdAxEFtETXyCLSKS4utck29U+28nGtMPxEBbpTJVbs0NPIJ7ES8Yb4TVtESt4o5RF4QMRAdVlZRQyOfYIK3Nh+x4vlVNqmzm3Lai5oXROwJDYovprf50shPnF9nV/tE5hLTT8TCAmmODklbeFB12mho5BsWF1lkdZlFZuXQKk4/EWH+uc9eZ3BIwlxPREMjz8B50EuLzNLgBBFzJKJ54Zr6ESM2+2IgZCzxzcwADXhHYFDt5tQFZcJy5Duo0LlL8TFvTPb0RuTdzrDs6olIK8rAhXs1TgVjxaWlFllcAvc0R1WUH/sjonBllkKZ7zHHCzsDwPbwg4kPH/LJDggyCckFkfkkSb4iAhY2+gblLZDvpbaQvNIWVgcXA+aEijKbSYqnoKt+JsIB+WyCsXi5PSyDOXhcL282KnWi/RfD/K+rtM2IPS9pWTpDg3Lzs93yUFNQjg/EpA4kXIX85ysOewflF/t88u+7BuT+xqC8BkK+BxK+0RERu6lQlpSa1arcGqeCSrYJyvat7qj058DzyQ/1V1gge0JD8haEuYP7ss80cJ5snmsP1uq33u+Xn8CCN0OgVMuz84HEsxfKsgqrLCtJLKakcQpYXXNRX2dx9bccdCrmjR8SQ9zSibilsV/tO5v34ESgMOR5eLpXHRoHOEb7fHNAGrsj4ofCmwXLzW3vHrqoQp7A8fAllXLDPKdaOkJjZBRBYc2G15aLntP8qXmUrR3WcO8MISJ7exnE5/sOHRQZf2xYnjwWUh1KtN6rKmzy2cVuubjaLhdU2eTiGrs0wDKyPBojgztZzSURc+D9TD8RKSko15ISi2yCUMzOwtqmVFh045n0RMFr6HmMpfTYFPRIM7kJL8ngMgVex306x7tyPMvijQ3Jy10RFdtwc9B15Ra1HbphAPkMrCpLGvAe47lPNmHU/0Tvm+u8FlsLZY47N51x07oJDb06D8pVD7/7ugaHXNvglCUZzmCAZ6tm6PSrnYiGlKBaoOIZZNshZaUQQLpeyVqfBY+ixTns0B8ekhDeqwnoeOWKAXxOkovSsifRg2uTFSHTb/bHZOuDbdINQd8ERfKlpW751DJP4owPQKEKId1e+LIB5A+3UmnxGUxOLuYyDS6mnzg/FbzXAK7txYV+lI1bjbGWuJw88+eBgBQhDWsSm1gm7qzbj7w1+mLymZd61Gae60otcjPc0I80uGQINeA0F6q6Ma4lCXy4Ry/OZd2Q9ISN9YH7sVeYdZour924hvcdgt/OdHkuh0qMuiW4JXsZvmfdGmnE8Butdh/c5vDgkPiQCf7GPPG+LGcJrBHLahSRqaFoSDve5uwR5i34PVf2LkV9kDjZfs71hbaQXPFER9wdyiKmjYgkIZ/12lJhla+tKpKzYA05cDpRMPMkz7HAoDzdFJA3WkLS4Y93+FDY3Q6zNMCd2DrLJhtgBcohdEbjBHHdcQjpdliLNzsj0jgQE18wpuI/Kxq/GI0/r9gs51Tb5Cy4cRR4o/4psCTieWMQkef1QVD2D0TlxeMh2dcelh4ITwHywPQX4LoLZttldbn1FEVB8PoWlO2l1qC8BPfyMFz3EM5xQgi52+4slG11lVU2w72c6zafIMl7iAdfagnK3t6odOD+T7WGJYy0uE32Wii7edCAUVTTcljHD9U7pRrfkxBdIMN7XWF5DvfqRt30UWsAdMvqyyxy9XwX3FhT2rw+eNiPayNqPHIR6u2GhW55sz0kr7aFpcmHm+H8pSjvxxciDeSV15NAnSgfh4BeRNu19sWkBeQdxvce1FEFSDsPdXNVvUMWIt9UXGwfEpu7Pb2AMr7ZEZEuvI/yOvxWAa9qa61NLpjlkFrkNVlBTRYvdYblQ891STRRL9nC9BARZSiCJdyMCr5jS5nUo1Go+TJxvbkfHhvx1jf7pLMvqhqDGlm1OnhdgERN+GyBhr5ijkO+tsIt60FI4uEjfvnZPr+8gcql9gc9lACQ3ryOZKGweND4N89zyReXexSpiThBYnLOA6MTkdtL3w0B/dkBv0RhMWK4UGUPKED+aHmpub+8xC03LnKp1c6NauA9jkGpfOXtPnkLRIyAJPyOlyOnKF7cQnDNHwr4X60pkstmO5RF+OkeL8rmkwMg7hBOiuAaXmfCHzMywFd6Clxk909XoVwQ8h3dYfkV6uOeQ8grfh9CXfAaNgzvU4j82pDXb6CcH5/rRF2c7L38/Ws9aljkGMpZh3J8BPX9a9SxF4kp1YjENpZZ5a4LyqTOY1F1SyLdvd8vjx0LKssPg6juS7AeqJpZP9/fVCIX1TmUZeT+i292hOXfdgzI29xujdewUhPcKETCFny8DAruC8vdci6UVLYs43bI2ldf6ZH3eiBr/CI7yU7DOCIkieNtH4cb+pfrimUhGlNp8QwLtBPk+8obfXKwNyIhamIQ5dJah1xea5eVEK4Y0u1Gw3mhwZZDWKn96QoSh3Dty9DW+72DYsN3/J2dFxQWujY+CASvDaBRj0Kgua3XLFgOWkbKSjfS/MV+rxKE2RCQjbDuyeOIR3DNT/f65DcgIrU+BXFTuU3lbTXuRblpDMJdxffc4dYNwlc7zerehB8Ev2P7gGwDCbvhj9ISXQUtz63N1+L6MtyTrienB9Jisedzlup0KZBXIagHoQTMSLOTEk4g07U4ry5RBgfuc/M8hyxDed+FJbsbJHykGfeKDEsUgnsu8nouysNVzQrxmeNoLCt3BWakxIdnmQcDf2wMyHaUowv3Y90d8sakHRdE0AYxKMJieCNno46uX+BSxPjDUb/8HPd8Dm3Qi2uGkTb319+CNliF8lUibZMFLjHy+idLPVKDslFB/B55/If3B2Q3rD3d0gZcczG8FrZdOWRrF9oljBM5dZJuMYnMXcaywRmGB+/AqzkEBamUy4wkIip6Dir3w9CUn17ikrVoaDMtT+LniYIuHwXuLgj7EAhOC3vTAqdcC+t1Fty1Vfi8Gg3PTqD50MDr8f4cuJiGdjTjlQpgJfLxSVx3JQT8wll25Savxbm0Mox1dkOgvBDOMjQoF6GlsFO0Gf/8AoIUhNClEpEk+8F+nzwA4WwG0WeDRF9Y5JZPLnTK+bgHJy4sQVpuq0m5kf1IvyMmEBizEkbGP7Sm39/lVa7pAtyTyuvmxW7ZWG2UzSbrcE8SaXmpVS4CSY1Y1gEBXob0mVYb3MIe1BWf+bwedfMnSOMCuG7Mx9lVdiXcvzsakAebgtIKQXOBoP9jRRGI7cB5dtlQaZUVSKvcZlKzcLpwTgeIQzKvxn1Zj8RzIMgu5LkfbUHvgl7GdcjzjSDe1Q0O+RCs9YW4b4PboqYF/niPT56FUHcjrdnwiriu6Cdw7iVoh80g1ga0w2a011bkYT3Ky7Z4ETHaPQcD8hJcXkaSF+Gcz6A8TH8TruFW4YvhFlPxdcKDaCMRUZ41cKt5/WRBYr8LV3g3yqkmZGYqvCmYOiKiscsgHFzI9RMQxk2oYLomk0EnNB7jg2cQWxAXolGunetSO/5QM9K6LIJVXAOiLYCAcwodYyEDHghWDc45C8J8IRqbeyCQZNS8c6FBlbVG270CYSHZ6EaugUAwTYIuEmeqpBIRH9XEhDtAop0QXC5guwkC8u21RSCgHXFL/B7U0uUQkp1wd7qQFkmwHGlzvRRiH6z8fx4JqOc1lyHvH0KcdGmdU1m/SuS7Ht+tAAmXQWGQwHNAdoMU3KST+cet5XnGXrBM7OzgsAWJsQwEWl5iVZ0870CZ3X80qKwZrQcty/+DuJ3KiDt0kSTMaz3Sfx3Wi0RjXkuhRKj8jGlxyUR0Q+jX4x5/sdIjHwEZt6BeSNo6pBVGBf0RruhvcM9m1BPzejnk4s9XeJRcsFzGPakMWT527tAC3XsoII80oU6gVLge7jfhVl+N9BeiLCfqBPXXjfLSI2hF+iUo03KQcw7SnCzY5tu7ompGUjZd08mriPEClX82NOvHYXlY2RSQyYIyd4LMeGWHzT64TeyAYYcBCUHwXiRP6jNl/H4eGo7CwV5N9vodw7VHB6LSCCtIi+uC8pgFl4r3acLvJIxa1gP/cQleEjdJAjs9dneFxQ8hUO4gBI1kZ+8wwV5ZHkha5oGQH4OHwHiNpqkH1ov5OAn4qRP3PTAwKEeQNwoD78E7M190ESmsqXEQHytjR83hMNwo5JnnFVtP9UBe6YzIEVgoJliLst5cB2WBc5PTY8/lQtzj4hqblMLqMq/dqKNDUBanAOlUgiTsCV8Pi5s8UYB5ZgjxyLGQdCBfdB2Ww1vhuYw5T7RnGrA9ON+TrjjDmVq02wWwsuzkM+qU8SXr8vI5dqXkeEM1Pg3iZAOFcDfYezxKNjPClBCRmWZv16ehjbfAWlEzZwNuNACtCzsn2LHyPIT/B3u88p8I/ndDQNoh0OyKp4tEAUgHCmsXztsDa/AENPovYeF+tNMrP4U1+68DcJ1awoix2AGEmBB/AnH2KfeP1rJg+NSyQM5kL4J5DjXw3GqcuMhVqKxkC4T3OMhmHP2RQbUmChuYvTgcgumFS8Whl3KUzc04Ce/34bp7DvrkBzu88lprSJrweQBWyei2TweWm72e7eH4OQscZilPIoWB5yGkh6g0UIcOWLkF8CDSNRGJuQWuJS2MUg4g0j7U2ynAvXjOFiiY1B5L5qMfFfQcFGYvP+Bnxnh0QccClSPrhvVUhCxsonWFQmhHvJZcp22BmNhgkRnXElRcrTShWcII1T0p5J6IyLUDFf7FhW5Zw5gojSBkiiKktazELJfBlbKSIABdo+/vGpAbnumUT2/rkv8LUu0EKUnIdHgOLtLXXu6RjzzZIV9/rVf+ZeeA/BwE/Mk+r3x/B96DmHTrBhONSsJTeChDNFzDhac2C60Pg3kYaGWy3oCw/tkbfbLxvlY55+FW2cLjkfhxxWMd8u13+sXLBJE2VyrgADxdsYUQtC/AHZ2VWH25EaT65WG/fObFbjn/6U757rv98ipipv4RyhZFOkESLKEQFrpN6RdCYkFYf1CWJhDIiYO9xqngV4ZiYF57kFfmKR14m9nwBBLVdgJKOUD5DFFbseqQlg1W2kP3YAx0g2ABliVx79/BRT3v4TbZ/FCiThPHeb9vk48+0S47QXZKOHvWu2l9swBaXeaBWc8msseKdEBu3bjDOsQxtyw5uWs+G2Ba7IT5zsYS+RZimnq4Tmxfkq4dmnN7d0T+A6T60xd75HsQ9rcQCyXjt7AwP9njk20Q5l5ozSC+Y2/mpdDOnPa1GXEdOztOPPZCmaNbClDAEGKmtYjkFF1CWiuCnSGc1dIVhduJvKkDv/PowfsBEGaY/fYggxrETrg+HOS/BV7EN1d7VNw7iC8pBEyrG67kfY0B+avX++R/vtIjjx71q3slowMkOeCltsAHXFsGYjvTKUJVrvhb9mdQwZ1aqnh9M0/K0qAeBpHfGCs8FfiqEPVCq57KZ56NYsfBV6RVwPPi34wKDlGou+FkXhrEh+7kOjUOlLs3wiU6cQLagFPZ3VQeWQDtfw/SNoqQLeS8s4bx120QpvNrEQdBwLINuksc9GVHxXwE5MsQB9YjvuHYWhMqjL1cbSAlB3/ZitzfoBRanW7ij3b55IX2kBro5lLrX17qkWsQ+LM3kT1w7D3l+a2IS1SvI9K8HOXYUG6F/BTIABr95yByameNmmTdEpKDcKWojdl5wPG66+c71Tgfx7fir8Z7HLgnj4vhzrEjhb2flHfGP4zX5kNBrET52HvqgYVk9xTdWFrr4yhLPwpRhfiOrjqHLwiOIT6FWGwv8kFcP8+pJg6QTMm456BfGlk/uOEsJ2LWOofyXHj/ZFCvtOM8jvkx7ioCa/nExuXIM3GiswaKggP27M2k/CcnQ96y1/XeowEVK7JNNsIVZo/1WOCwyesdETkK95OuL3tMb1vmUfc/UY8nDnyXqNNLcGzGudnYGp6dP79vCsrRLA9f5M4iooKL4W7QHb0SDcs4Lldg0vMg7J9scMmX0Pi3o3FugwX+9EKX6q2jMFPQ2OX9dnsYwjAse/sisncgKn0QGgo6x+a+sMQtV9Y75Tw03FYcF6KBt9TYZC78LA6AKySKwY8jaUXmZwEIzOlcPJEx4iWIrSg0zNvty4oSr8b7xLGiSC7FPZmfZLBT4sMQrNsX83yUb6lbbmVeZ8FtxX1oWV9HfPxEc0h1UhlZpfJQBCOQFfYiM65OhQvfqViOFg7KhdPGhhOWPxn8qheCSEvIm7jRvpWjrDPIJPH/JFAXF4PAdbhWdVCB3WHkky75WKA1p5VlRhy4dgnqhUMxt0OBnlSP6kjU7/Ii+dQitxoKyQbYqXeYdcAPqYWbBHJIxGHVI3gJLAv3x0/VrtkCyQDZUWAj10CIqf0+vcgj31tTLF+B0FJYWWkcV9oPjU0vkPMvOcWNmMNrYM1KIZDj1Rc8baRTOYTA2FXFwzipDYK2C9qcVpS9faMdLAPTZc6YPZaN7/kdhwn45MS1UDDfWFkkX18FlxUWjl4BVwvgUAktMC0Xr2UPL3t6ea0deeGc0nQdZRzaUbEjLgzhmsOIaRNVcxKYlze6qbziFV5pNcnSEawMSWv07CaDdVOJfKxnRxSlj/lEHg9DKY4FWnuOXdLfZacZJwxw/JWucrq6TD4UgbMA6rXDCAsYJmQTOSMiB+qXwkpdAMuSK1BYOKhOUvE1uXeUAs15pZfWO1RsRIahzdSMjyH8RlIYjxKyTnlQgNPhxPeUvyRLMVLl0TVsgLvlwv0LkZHdyN8DLWE1JY69tElJnCCc2naAeUv8xlcfYkeWjT2f/N34jXmlteX812UgosdaoFy+fmgYY9UfEpIuIK0llWCdsxDXxK9NxWWVVlkMISe46sATcGdZnyfKDTCP7PD48WG/HINC45gq53FOdGkT3p+ysRChgPIYgCNQjtvg7nLCOMth3JavvK/RrhyC4sQI8F+NVb4AhfEaPAHO3eV5xnUE3/M6YxJ/NqDywj+o12wjN0REwZe5TbKpzKLcqlyBcd5/H/LLVY+3y492DKgZKozbDLAh3kVDeanGUIGcQlaFWI4ddHXQ5Mo1Qr1Ssz5znIPegycJHwHZkB5cq1JlbUGICJ7HzsZ0vabs8FhWZJENiPWqaBUhXYd6IvLt13rV0AOF3AAJxrExCuJO5h/EIYIg4ftdEbnm6Q75f3Hdc8gfO5SScQT5PtwPooIYylVzmBG3xefHcsytj5oHl9Dt3ArBL2HG0mAD4t45+J3aqxsFfhh5+UNTQAk4wRJyuOQnOwcklKhLTrfbUGFRY4ungNUKspBU6cC+go8iXq5MKEjGsJwX+3/RhgdgGen+saR8ZWzP+aReJMY6P7/aKufDK6B5HkADcHojpxCyLozOMf6lHHD6I3uVD7H3NAvg0yzsL8gFcjPpGxV4eY1dvgi38EMNzpy5pa93hNXwxH1H/cr95eM1LhCtGnFLCRr4QBDxDirusDcqfgjllbDO/3NNkZpQwC7/b77eK49D6DgpuQzWiwPunHO6EO/7UAZaFC/S4PVshGGk+c8bS1TnE63eMbgo5z7Upnrq0k36fr83Ij/c7ZNHkD9qe7pV7DBgR4zBCUVo/BaMDKo5rp9DGmej7jix4O69PvlXlM8Ji1cFc+ZB+djRNA+apBf5o7XcDyLygd8lxWb5ztpi+TDqm0MfnJXDea4/xsEew2+t8MinEFemU4wkzLMtQblrn18eBQFxuproUIGY0op7UUBCqIvjEPY2CD8nkd+6ELEZ4vDVJHAC33m5W37bHJSmwJCch/DgsQ9XK6WXCqZHBcRe67v2++UtKBz2IfBZSXa8OVBPlBlOyaMFYo7/fn2xrEH4wCdGWJ8/3u2V91F2Ksd5KBNnG5HgvI7ps0xB5Jmzmq5pcCCm9qj3k8FREPq3hwLyt+/2xQeRs4jc9JqiEjgd68o5DlVBuQJjvQhai/NA98EqcLCcyzI24/UQGomDzXwkSk1gBvluhBY+D0LOWSIUVk7+jqLF2APYAgHjjBxqfl7Paw/iaINGVoMeYM4SuG9XzbbLClg6Njatzi/2ehFrIjaFAHEu65rKDzoFOHmbBHebTcrCHUEemR/mkYPTPHi/FhC6E2SsQJ44d3QuXDAiAh82iO+P4D60mlwCkecfhSu3B0LBVx8yQpftOm47Pc+lpqjRaO9H3l9sDavYlOW9GWVfjHzb01hFCm8Z/L0yG+IpfOZE6kYv8ol8qTziPi3IN4cLlkPor8N9rp/rkBUlVhV/GTip1xR1dQuIn05ceQVjRXondKv5j/fkUxutrB/eM9GOx/GZ6a2FdzUfipJTF0uQV9YticrFqbvRRpyPy2uMOqUi46TvADQd6+ccKAa2+WTAKXNPoow7lAKYXFqpyL5FRGrsG/mHDSWqR0u5fzkC2kDaEXe91h6SZ3vgoqHyvWhMPmTKnlFarRJYnyJo98tn2eTiKs7z/EAxUGu+gWu3QWD3UKjRcOyIYHuxU4MHBa0Qwm3GsR7u9qWzHWo1AVoyxlN/92af6iihq3YpSHohfk8G51UyBnoFLtJLPVEJQGD8EDqjo4j3YK+lA4TdUGSWS6C8SBiCLuy7sPrPwDU7hsYfYP54LTLOfLFXuhTEoAK4rNqmhmAM/O6QT+7c45NXYG1KILy/3VqmJpqPNqGCQz37+iKqPrjWKRUc41SC1rwEFvLsUrOcj3LWuy2K4Mn4zT6vvN4dlU6kwwe8vw0rNpbdYHjBkOL1zojqSAuy/VA3rF9UiaqbYuT/Gij2c5B/dlix6jgNkMtCPtkZlV54LHzgmj2vjAnVw8RsPyRAT+KCGptcgXZJ11E1XjA/D8Fb+O72fjXxPf+JiIpYWkI3qUSunetU2i/XYCV1IZ7hU+W0YN2wPGEIEGMjBve1EBo+Lc5pdunABuS6pB3+qNLAHIPkOFUpBJ3rWVpMhWLH+zIIQfKULQpEY6K3jz2XHCYxJkCngvEL88U8dkB5qPgNKIFFYN5KbCal7dV0PfXLB6Bi6cU11Ppcga0PwsthCC4CRXe6CmVMFbI73u+XO+GWduCe9SD4vRdWyGIopLGGkVgm9ki2Q7iZX05jI6pwL06Q52TskZIwntBnbM77jHeSNe/JR774cC+HR4z5vJxYQFe1CHVDC0iCJcs/a5BhRQ/qhvdmr3gA6XDCOduPCogeGZUI/k8KVIo/2e+T72wfiGc4y8gJET9Z55AvIybhU+MaUw8S4S9f65W74DZz4vMVFTb5l4sqMloBQSOO/fAUfop4/0f7fKpTK9vIfsuA1jXQ0LrRpw9csYAxHcGYsKHUkm1P6ozDAbij+9n7miOxzgERh6UCfnnaOY0aWQfdGcah7N5n3MkHbh9tDKo1cthrw7HUixB3JneqaEwMDA1eRoz+pi+m6jQXyIlFpG+fGshr5AZtsHyPNwflX3cMyH/sHJC/2emVh/CZFpFPP2yttKmn+TmIrpEZDsItPdgTVeO1uer0yInZ4nhNcqeGRu5Ad+mRIwE1jPIzHPce9KlnK9kxdUG1TS0hwWEa3RyZAcZQHm8JxRe+Zq9gjpBdIibyyZ5G9jxq5B58ODgYGRYHLF4U6no+SLeq2Cwfgjt63QKXbK7VHWaZgp2jfNrk8bawHMBrLrVZdntNmVJkSB68skounsWns+Nfa+QOHD7Z1RVRg9+UEw+IyFlGSzm9jpNLNTIG5+ved8Qv/wyX/yCf68yhbdFEnOGg1k6eLE5ZISE5c0W7o5mD9co1kK54plPNaMrWxPGRkH2qoPHpV8cX+dXINRgBcPCcnWNq6h7jc3zWJJwcOH/3UVjDHpKQrMwxskvEROPzyWtOP9PQmIng7KAdvRG14jlXX8ilS2ogJ84jJ/Bydr2GxkwDpfaANyoPNwbV2qW5eejpVOSEiH3hQTXnT0NjpoFzjv94PCgPNgemxBIayEmM2B8ckpD2TTVmGOjF/aExIA8eCagJ71MZaGefiMg8nwsztvPS0JgpeKIpoPYAycXzhmMhJ0TczgczoVF0lKgxE8CnVV5rC8kvDvjlHcSF8QfbphY5cU35BDqfOudkWQ2NfAYfst7TE5F/3+mVN7hm0DTJbE46a9j9e3hgUI6DjBoa+Qo+7Pted1j+Y69PnmgNSS/kdio7aJKREyKyMFxyYR80jR7F0MhHcFkQbkd3D9zRu3Bwu4XpIiGRMyIehnvKdWDU7kkaGnkCjs9zDulrrUH5MdzRn4OEuXjifqLIDRELC6Q5OCQ7uqNybBwrOGtoTAVIQq53+pPdA/K/tnvlSW5KlAckJHJDRICL/3Cx2BeOK6OvoTGt4LTL3QiXvvlmn/zioF/2eaNq86F8Qc6IyCUFuAHKto6ItMBNzfHkdQ2NtGD/Cx+e/vV+r3z3nX55vDkgR/xc7xQ/5ocxVMghEREQQwu93ReVXx4JnFjHU0Mj16CkqfVkQcDfNwbUiuc/2++Xh5uDavV21ZefRyQksr+cYipQ4FKnSZ64sEItOjvWupoaGpmCz2WyI4bT0/b5Y/JuS0geOhaML83Px/KmeLbMRJB7IiJ1J8r/xUVu+eIyt8wr0kv7aWQHFFzyi6u6c48M7hS8pzciz7WE5S5YP66qrk7Knd+XNeSeiAB558Cff91UqvbEyOV+GBpnBtjnEMIfTtTe1RWWl1vDsq0jLO96YxKNxLdhn0nPpk8JERVQYWdX2eRrKzxyxZzJ7UOgMXPBGWTcWevQQFQqoJC5pD5X/RtNGiigassCLscPq8e1W5sHYmoL7zcQB/YFh6Q3zH1LhsVLhvKCGSZeU0dE3IX7v1w+yyGfWeTSa9qcoeA85F8f8ss7HRG1rAf38LDi1YKjBIcHMsEdgNm51zckqndzGO8Ho0PiA4E5f5lT09T+jyBlM165K9gJzFD9PnVEJHCnCkuBXEoyLnbJ1hp7voynakwBuHLD8y0h+dZbfWpvR/ArThwQ7wQR8VkREX5lP0I8H0+ilaMpTYYhN6dJh8PU2iTUWRfch6dbg2qH2Pd7IkrzpVSxxmkIPmrEjpRHm4Nq+uMgQxNqYb7iPztbuJ3b4cCgHMTvx2EKaQEVWykgPC/5IAFPExISU+8cou66IyDj8aD87Ru9asNNH8hJpadxeoJNy+3yHm0Jy6+agnEijQSDYKcPx8aF6YnSUMlcr/WFroh85PlueaQpoIJtjdMT3MPwPw/71V73WuOmx7R1lwyDjNyrs9cbk//z/oD8YLdXbSemcXqB/Sj/ud+rdqji8vUa6TG1nTXpkLj7ApdJVpRZ5axqq9wwxyFzPJZRPRiN/AYNH590+O0hv+ol3dUfU1tyn2ku53gx/UQ0wJZDbDDbY5YbZ9tlfaVVVpZapYbjTJZCTcoZBI75HeN2cceC8st9PtX5EqRp1G04IvKHiAaQG+68vpQ7Gs12yNoKq8wFOWvshWqfeQsYSVLqNs1P+GAFDyHcePx4UO7c45PO0CDcU91gYyH/iGiAbgxQBgKug2W8rNYmW2fZpcRuklJYSE4GKCyI7/Fg9GLzc3xaU3xIhO+ZDPfh4H4Q3JhFy0NuQIcmhMp+pyMkPzsYkP9uCsTH/rQrMy7kLxETYG8Sh5tsyKXa4Qix5EUlFlnlhpV0FkopXstATm7M6TIXql17OGYVhivUE4xJc29UeiLDci7c3Y3VNrEZrNXIGkjC1uCg/O6gT+4/GpSdA1EJ5bVU5R/ynognYOQSzCyFlvXg4K7E3KrfAgKSsFS+tILD+MOQhAqZT2ZHcHxqgUtuXuSSxSDxmQBWF91CTgNbWGzJSfc4Y8EmuKFPNAbkkeaQNAVi0hkZEtU5qvXdhDBziJgM5ljlOpF17g+vGBj/qKAEAX/4it82lFnlS8vc8umFbv5w2qMdFuqJY0F56nhIZhVZ5KIKiywGIWucZnFZMnPRafn6EQO2+2NyeCAmu/qjsr0nKvvgdewFIfk4kmqLTBI/wzEziZgB3DCXN81zyrfXFEv1GbCT7h9Awp/u8YGIQbHaCuUiKKJFpRbV8TUb5a/Ad+WIvyvZAUZ3PUEe8oggpwguwMs5otxYqCc0JDtBuBYcR/pjsgevtIIK2uWfFM4YIrLXZkulTb6ywi3XNLhO6z4EPp3wj9sH5O79PmXBFEnYa4VCF1sLpM5hkvkus8wHKRcVmdUGpwVgYAH81wKei1OHeD7Y2AvX9jh8Te6a2+QblLd8MYlyIRgyNYnAGpPDmUNEwAOBu7jWLj88p0zKrIgrT0MhYmO+1BGWO97rl6daQul7LXkS/Uy+GoRSBz4niCjcVk+REe9pJo0g83TWYNOIXMTweQtOLt/VHZH7D/hOy41UWSKW6//b65NtnC44Emn4NX9jdzR7u/ie3zEB1gtJSkLyN44TIaZU52gS5gxnFBE5v/VYaFB+fsgv73aGxU+37TQCe4h/CyVzCMomwom8GjMGZxQRCfBQ9g3E5I59EFj/oFL+pwM4o+XtjpD86lBAPXKkMbNwxhGRLhhXeH78eEg9fnXEO/N3rOKMln39UfkZSPhWb0R81C7ai5xROPOISFBIY0Pym4N+eeJYQDqCM9eCcBbRASiTB5pC8t+NAT2jZYbizCQiUVggByHA94CMXA2aVmWmgYaPU8t+czQg3989cOq6LhozBmcuEQmQcWdvVFnGx476E1/OHHSFB1UP6Z37fSfGCTVmJs5sIgKxggLZ3h+TH+z2yQ/e71fL9OV7Bw45dxgx4V+/PyAPwZr7Q0NwtzUJZzJMcvVX/y7x/swEO28gxz0gIB9m5VhjucMkRZZC9bRHvoG9oxx6+cE+xLfHQ9Jp9JBqHs5onFEza8aCCTVR5yiUKxqccnW9Q00UL8mTVZBppdsCMXmzIwwrGJSHWkJq3FBBk3DGQxMxFZR4xFrX1DnlxgaHrCu3qkni3MVquuSd+70fAQlfag3JH44EZRssoo4HTy9oIo4EBGILXSb5KKzjJxe5pMFlVg8fT9VT/pwCGsUfPv3wUktQfngwINvaQUDOBtIkPO2giTgK+LCUHUexpUA+Nc8lH5vvlCUlFvFwDmaOwUePXofl+9Ven3ptR+yqF5s8faGJOBZQO6Rdja1QKmEh15da5YIqq2yoskk1rKSbjxDFz5w0euiC9kfl1Y6QvNAZUQ/ftvgHxQurmI+73GpkD5qI4wXnh4ORldZCmYeYcX6RRRqKzbLAWShzPRaZDZKWGavM4TySlw/cpnKHM2HYz8lQNAQrx+UsGr1RaQfh3vPiPYh4FJ+PBgYFX8WhCXjaQxNxomBtIXYjyUrthVIH8jW4TTIH1rHUUai2GavG4cTv3HbMTmLiEvKYG2v2g3y+wSH1OgAL2A3CNXpj0orXA0FYP3yvWMqhE03AMwaaiJMFSUOWsXcFpHPDhZ0PchYnSMin360FBcq19MeGpAsHV5XrQgzox6GuJeHUocl3pkITMdtgbZKco0FbO40U5L7770wDCcbhhdEO/NfQSIYmooZGHkATUUMjD6CJqKGRB9BE1NDIA2giamjkATQRNTTyAJqIGhp5AE1EDY08gCaihkYeQBNRQyMPoImooZEH0ETU0MgDaCJqaOQBNBE1NPIAmogaGnkATUQNjTyAJqKGRh5gZhORK1JwR5bkg99paMwwzOg1a8osBTLHbpKCJHXiAxm7wvFV0jQ0ZgpmLhGR6/MqrXLTPKdUOLlgYRwH+qPy5PGwvMDl6bXjrTFDMHNFdXhYqh0m2Vprl6vruXtT/NhabZc5+F4tb6gRB6tirJXlJgojzWyne4ZiRtsMhoTRxHsDQxAMHhoi5gKRIvypdxTKuhKL1MNzcHIVuckAVWuD1FRYC2Sx2yyriy0yC+lr52NymNH1NwzCDca4Qq9GKrjS+Cx4BpvLrfLFhW6587xyuaXBKfV2NHmGiooULsafBSDgVbPs8q1VRfJ/ziqRj1bZ1WY9uqMsc8xoIhZCu5vNWhefAhDtcwtccu8F5fKTreXy5ZVFsrzUIpUwZVYubpwJQLIivPzr5hK558IK+d7mMvkY7jEHpNTmcPLQVXg6AqThfhzLSqxSZTeJyxLf19EPXz6SqduOmBuUk02IwRd4zFIGUnNLASVA2imZNDQRT1NYQRLuu5EcEnIXchP318gQBbi2CInQqianoj3SyUMT8QyCDUSabF9NOkyC2xoJzGgicoRCa+PxI4YK06M6+YmZTUTdazohBFBV3Jc/29DknjxyT0Q2Egf8Yjj4OtoxwY6ECfWaMu3U++H/Sd8becT/rMFIn2mPpw54TLAeTgEvHykJ6q109+Qxmfumq1/jwP8JY7T0Ug/8nzRS00xXF/yKv6W242TbC8jdFDdmELFDqcMkW0ossqrUKh57gRTbTOIyF6gtAmnMAjjPHxqUYwOD8lpvRN7yxkTC+IH8Gm3jThT+2gan/M26YllabEl8KfJ6W0ju3OOT/24MxLdAYyUhuWXFZtlYbpVFOLc0MbDtshRKCJkIoGL90SFp9w7Ku13IA/LRz8rm9SPdfyyw/PjPwe4VRRZZgvvWeEziTpQft1bAbcWPe/nCg9IbGJTdvVHZ3heVliB+4My9sYYbcI94GXGwvpC2zVogd2wokS8sdMfPSeDuPQPyh6aQNAUHT5qfa6ArOizHQ7ivkR7eKnPHPKAuKuwmeffqGrx+cPExX0z+66Bf/tAclPAIpvEQTLGPjZ3+55PB++L/kiKzrIfMLMIrd2b24N6ssyjqlfu7hvDaBznZ3x2VZ7rD0okyqfTZZhMBqwwJL8U9jEtZDB9uchjtocqeyFOZtVDWQJa31tilzFmoOq54TQ/y8UZnRO497B+7vUZA9onITKNgG1CB51bZZDmEfx7IWOsyJXbQLVQVSplhgVmpYUhjHwSxEZV5wDcohyGM73WGZS9I6aUwpCsb7jMqEY8GVM/hplKLbJnlkNWlZpnrNithcqqev/ge9zGkw33tI6jzAfw57h+U7d0R2dYalndASArnuMmYqEmrpUAuKrPKchyLikzqvhxG8OCm3M6b++wb7cXqonCFQMYg6qENdXBwICbvQSG82BqSQyBkjOemywOuXYF6poJZAEXjYcXivxn3OLfCBuXzQb0Q+0HwZn9MKZ506b3eEZH7IUwtyMMWpLkG7VeLtrMhPWaYvbCfmOsUhyGxAJXIoYF4uixLOtxzwC+vQFC5S/JodWnFsQXttbHWLqsg8PNUexWKk8oFZVOcQBKDEBwqsCDu3RmMKZlhm73YHpb3+qNxJTgeQuA0zoZcBEX5F8s9apiHYHts74nKP23vV+kU2wpla6VNzq+GPCN/8z1mJUOUZ8pxCwj7CBT/376D85PqZiLIKhFNSKkOFbcBgn95jVVlfi6EYSJZo5AchpZ9rz0kfwQZXkIFHze0XTLGIOKTLSE5D4J0fYNDts52SBWs4HjrqBsW+hU06iNHg/Is0muhhR7rWuSvHJZoKRp1Bcp9RbVVVkCjV+O+bLCJwA/yHxqIyDOwXg8fC8ouEJNPlZySB3z38TqHfHaRS86G8BaRiBmC+u7xI375p3f6ZDcE+y+WeeRjSHc+yjPR/KfiH9/sk3uP+mEZExYmDcoh7Jegva6ZbZfNKEuV03zCaxgPDoGAbKtHj4fk1bYwLPCwDI+jzUhEttMjl1RKKfJAUPc+1xKUa5/sUPm4DHX8ccjR2WjXksQ5yWiGvN53JCDffrsvYyJm3nIpsOH+82D1rqt3yt+u8sjNC9wyL4mE5BE1ZgTC44M664d25CsHmClj/J2g9lsJbXjTEo/cvtwtq2BVlNoZJ5gOK+s8aK+vIx/XLnQpa8z64X3C+DPA+4Ncxv2Nexsoh/W6os4pn1vikouRDj2xMXMALT3PZZZb5jnkH9YWy1WohwZoTgoxLT8tL5UMXahWCORxNB6PdrxnXfB3Ix/UzCvLbHLrCo98HmRYinTg4aaFC+lTiGkNWT7jMNJKBr8j4ZLPM85l2/A3gtVdjkKXW03KqzDO4znpYFyfnGbyMYQKYB2MhCrc60oQ8Furi+SjC1wyG5aQJOQ1bC8qRrrAR2F5G6GUWG90B2kVDSyArN003yV/Ccu2tcam5tiOKdwoZxD3OIq0mE8DNIxsNxus3pV1dvkzyOHFs+wnSMhTVdlQaLYbZZrHZGCSq7/6d4n3GaMQeWiA5v88KvF/QAhr8N5QfKxMun50YXpRoccheAfhch5ApfbgcwS/B1EIoxy8rBCSwFc27itw0XbBRTwF+G0ZCHsBtCfdTQPH4CLRhbocWuxc+PIcwOb9qSG7UeHHcP99/WjU/oh0Ih4KIR11T/zl7JNEthVxq6Auy1CWt5CHHpAlqd1PBdJZCAG6CPlZCbeO6TAsMojfhvse8UblZWjrd7vCSBOxINyfQ/iuD7+rMT7cH1mPlx+vFIaVcDH7cG0ThI/PWZ6klBL3XIx6YOzN+7CevTiYhi3F+lARDKDCjfN4DOBAVIBrhmRPT0TegCdAd3xNiVXqS8zKqvjwmfVHq+xCaJGcLNuN8V+vUqzxNHnwfKbNez7XFJDdqPMBnpycf8CBj9fBs/lf60pkLqwv802wzZjXIyg36+x5eDgvwkN6GyELXXe2hxN5YX2x3ZgnKg0+kbMG9b8dZemC0sNp8QYeCciSE0L6pWVulZ6BY5DNZ9DuP9xcJgs9FjWJgdlne3pRzh6kzfz14KBF3AHP7XUcJ1XOBDB51xQVVgMifLTeId89q1TcqJnkrAygJraj8h48FJBnOxBUo4CsGxKUdU4SF8BibUAjXAV37kK4kUtpBYEf7uiXX+K6naj4UyoT903nmnYg/UHcgBrdmFf5GlyWe+E6bEPM1YUYcJBfG/eH6l0Fv/8m5P8Ti9xiQ2Mat2LFUBs/cSwkf/lqjwzwi9R8JMGKsp8PzXnPljLlJu6AAnkbwvMUBOnF7rAMUfMibxRuJkWoPODVDO17M8rzaVhA5QUk4SgU19/A7fkd4t5U18eO6ypR1irc20izHcLynVVF8tl5rsQ3cdyz1yuPQaAZixNUdC04twppwqtWws0YGdwRJwS6ARaA3gBBHRDFPR67sEJq0d6GvNFS3YsY8AnUcYgJJsDzO/F5FtJuRJokPwX5JOD3W2DFblvqlvVQOMky/A5k5e6Dfrm/OSgx5Is5VpezvvCG1eBG/m6E5/F5uNFzESvzcp5D6/Q+iPjVl3pkO2PGlDo7CchnBX5/97paqaCfCjANxn3PHA/K9ahDemnEcbTDNnx3P+ThXcTbUbIcgsxy0VQEVAYzw+QtImrvIpDnz+FG1cE1M4rMPL0HzX/nLp/8dK9P9US2ION+VD6tUBgHX+ka0CLSZdsBC/Fqe0T2gHj9UNP3gIS7YTlTH3VSwHXpLCLJx4qjJaRg/dP7/fKLfT55BcqgFRaQ9+e9T9wfddmNP/vQYDuhtTchDqAlolCwLOzQYe8YY84BaP5ThCkJJJkJEmPDSXdBOP8LB+PcPShDLzQnBTWM8yJImQ2njkReWAeNOK8V8Rl7VelqGXDCV2qHMFPzplpF5fJSQ+N7/sajD+deXG2XjShLMp5DGV6AUtiH+u3CjXkutTpdY3oL/SALklIwLBK/53lUSEP4fDtI44aSMXLQjXbbBsF8Fpa0DfVr5KEbaXpxfh9e2TOO5E4GvrgA5Lt5gVM2VdmVAjTwKOLJuxDnP4X80jqzfigD6sB71hu/49zZo2i3wyBIJXz3OngHTIWeRSk8BD/u3Yr8sawnMpwKEIlPqnwJLq2T/jDAUykD9UiPLj/HXh+EIv+3nV55sCkoexMWmeOyQZQjhCtUvY10j3HgA1ucCVARGyAwH5plU1YpOR90If7rYEAegFvyPgSsHTlVhKKEpx4oxAB+PwIt9Bo02e+O+OWHIO8OXIevJgQSh0drIAYF4JX7YEXe7o1KB4RDVVbyfXkAdLn2eQflyWNBeQz3pstsgGnR4lyGWLGMrgvTGAn4jS4orTi789+i6wlXuU/dGDDuydumHkAb8vhMO4QaZGlPWC2CymVpsVm5oaf4x0iaZCSRjWOIJi1NPjlpm4QwzuMQACdF0N3iZ/DwA+C98T0Pvmd7J7J6ArwNSZt8rnE+0+Y9eM9TgDJdhLhwNdxIo7eS5dgJ9+63h+G9wCJ2kEBEcj0lHcwulfsf4ek8BoLsSYQw/JnK+KI5dlkAF1t9MUGwzpWCx7VPI+3fok2fg7I5gPbk0JbKGdNNbs9JYHJEBM6psqneScMNJCjIT0FLPgphbFbjYYnMjgb+jjRoMZohzK/CP1frzmRQQGr4dzoj8mu4NkdhYZjmiQpLB3zPIYIuaPRfQwiaUNmQnxNgrLWl0iolFBj61CMBP3shTFQ8jJnUsMNo900Fzu0EGffB7aF1TMZseBs8Rr1/jsFbpyXVBEH/ZaHHLBur2KtM9RBPl8r4gcaAavtuKpPxSCfqrAfXPQUyPodDDc0ksAgek/H4VzrFNBYoA0dgce+HTLwK766fX0ykPSeAzImIPJVCYyxBQesRzCbjHVjDl6E9jsIqZXQHFnYSOAghphKgy6LiwXGC+pTDJYdwnZ89LQkwO7OKraozYFwNygsmUQZ2ajWCjMkoZ8dRIobJFByr53zTyYCEmVQSuJYO82Vwm+fDwrNjjWDvdTPk5SG0WydN80SqDzK2C2HFK51RxLiQuQQYp2+AJ7FSeRKjZzrdr7TmD8KjehkyMaHx5AyQORFRMA6+LnabYA0T3wEs0KNNIdnVF3cTphqs7ze6o/IruBOjBukjAZV/BI3aQ0ueAHvyahCDpPZC5gq9EMSmpPsTLlQyO8LGpQhyBIam9M6TQlSFidYK3f1zazkm94Fi4UwWduodR4jAXtwJAw3f5o3KLoQ2yVgCq6g688aoN/6cfArfe9EO/4bYsImzPXLc9JkTETllZwm7iw0w8+wd4zQtDg1M1rKNhSGQJpZkuQi6hD0MLOHiZYo2WETOsjHAUnA6XCa8TgtqC7o5IxzDuDXfJoOzWZJntOQVJiJFKIIJLv7SpNiQYOfHc8fCEsnU3CIpytw+xOXJKIPXVuqCjCYs70hgEZLP4KSKvXBLY4zVPxCFnCFzIiLX1bCGRdYPiMigfQe0GnvfMqfB+FEAopuSxn6IFrg37DA5Wb9NACgXtTOnORmgBaBbWjjmVI00YDJMi7ELCQjho0vGKWQfrrHLDXMc8qnE8fm5TvksjitgLRZ4TnZD1Z35J4Ms5BPoVdTCu3CZOB75QWFIxD/CBVQrCBjB6EQO/O+B3B0GcdhLi48KdtQ3VxPgpIeRwNtRbzMZAyGkdRT5obKfCmRORIDTxlwcgEqA8wAZ27DXbCoEhu2YepsgGjRAKzkJa8zOuqSYX2HCFYVWLYYQrC4xy8fqHPJnyz3yjxtK5H+vK5Fvry2Wr68pkq+uLpKvrPTIlxPHF3DObSs8cvMSt5xVrZZjmhkYr6ziPM4QWuQ0n5j4TxjiMgeytAwytQJe1oQPXMc5zYwLwaETUL2faIcaehPJTEsC782fk11uKgQOa41wSdaRORGRabpryeM/zHRvOD6J+lSKTA0MZTqZ27MdM6r/xEWc9H1hlU0+Nc8lX1jkli8tjR+3L/XI7YtccsM8p1xZ51SD/5thFc9KHGtxzXoQcE2lTeo98d7EbIKx/GSWysgGOBWyBrEh85IsfJwU8vmFLvk8lNCtqKtMjltw/YU1tpO8UM664TihmtowgUalLueMp4zkIANkTkQUjk8RJDcsHQK6pcqaTGd7T7L20slqOuubCjoHtfZCOb/WIV+DZfurlUXyWQjWBbMdaoCeVsDOesPBJwjY1c6hFg73JB98vCe5Gz5boLObeYOPggm0Nde9YTSDKjgB6nIOxn96mUf+BHV2a4bHZ+BRcII269lInmnDXqhOppHAmqZVTg5P2busJo4nPucak2oXTn9K1j60JH3IfA5kaOLIYh5YRJJnVGOC+5GENzY45VfnlMrlsHizXNT8BcpC00tgBwBnqnCaH4dI3kUM8nJHWJ46FjzpeLEtJAe9J3c6ZAN+hM5h5S5MH2jn3azL+McTIDGppCZ7JI9nE/zE792jMJHtyhAy5dLJDdNMEJMiYiqYWAWYSQ00FUjXazptgDu6td4pf7G6WMUpyY3K+bZvgXA/2DkgW57qkA0Ptsmlv2+TG57ukFuf65I/f7X3g+OVXvnuW33y1NFg4ursgU8kcOpWpqBgoiinCugEmoDxNwfgp1LIObKoJnWMAhZhCrN0CiZFmfgAceIDQLeDD7+q6GYKSpWu1zQXYFE4ZWtEY4IfPoLY7oY6u+qhM0jIxt3RFZZ/3zEgf/5Gn/z8gE+Oc54n3PcepNeHox/Xph6cf0tXKdvITk2lcdcmwO1hMDAC5UnLjP8nwOcJv/FqT06OH+7zy3vsSU81eUngL5mrqMkj87ZBLbKbn7MPDDCxEgeIqAqcA0lKwXjitmyBsfCIrimUwYpyi6wusaqYxACfnXuwMSi/awzI+3w6PsinL1AvPId1lO7Afx4j3msSCIEEuSD4REDrxKmL7NlMzko/yPl8e1geagrKA6izcR/NOEa7Br+91h0fUhtNWHJQ3RNC5kRELXLmfYAFTKAQqVV5zPGe1Glu8CkDyjmHXedus5QYzwwl8Ep7SJ5uQbznSzzGNc7atoCFowx7ZQy6lewkyjbGnSTqgF7UUcgNLWLyZVR0nO7Gyfmt4cEJHDx/tGsSe2WOkcfs18rEMCki8ulyL1s3AVbmXLdF7AwSqd1PI1CA0wocBGqVwyQNIGHyFDieyjVUDisSTqwukJzahDUfwQegUnM2kZxyjJl1wsej+LSFAcavZ5Vb1dPxqr6SvYTRDoIv6X7jgf/jAXOSrnmnCpkTEQVs6keFQuMYoCFcWGSWChzWpIH+mYZUwrEkambNCEUqhfRwyYrknzm35zDUP2PB8QqDgRIosjmclpVnID8YkifrFb5NtyLcaGAnG58wSR6iUcuTzLaLk+knvptKqHLE304LMiciBO++zrC85/1gtruB2+c6ZAsn2iZpvJmEVAPGUjAWThtf4Ts+JW9JGsfhaVyeMdNhnEq4uYsqTn6oN1/BUnPRsImA07KfQezGh40N8KFcrvi3vswqanZfhnWXCah4aU+mU1wzJyIQhK/fBM3WSvcrCedU29VzirP4YGWmpeN101gxyaCw0e1MaxHxXQQxSCyJpTyNa7tUwSugpRw3UObNEMRLamxqvZxso8ZWIO6J5CcF6QRWPTjNnuLE5zGB23Mo4YmuiOwbiCqFRTBbZTaTfGaRS2oRc2cM5o0ZnID8sEY402eCEURWMSkisqB7uqOyszd6Upm5DiQXb/oIjgmRkafh4Iyd9aUWKcqTOInZGm3fCC6hwUn6yT/TQG5AGWaz12U85cc5S2AJP9oQX/QqdWBagV+Np0pwjnpqPuW+tS6zFDN+H0d20mG4YFhN+0p+ppFrntYgFEmewD0WSL3OwKC83hZRi30RvJpjnFtnOeRDsx0yl2Qcr9wQPBXn05quhzd2JeqwjI0wjiR4SlpvZwoxOSJCWLb3ReSl9rC0pFhFLoD0iQVO+cQ8p6wtsYiZtc/SsnL5/sSBz/we/7kq9uXVNvncIrfctsSt9uFLK5D5BGTvAFys9sip69lcCGHYAHermALBcvL35CNRdgvqgata37TQpZZxHHGeKatiPBYNpOiOcNU8VvAH4DS72UhbPU6VLj88RgHL14pQJJzkc9OlXFZhlTluk5pHmjbddACZn2kNqpXVuawlwabmgwTXQ2auq3fIsqJEeDNSXnkk6rAYZeKixNeg/r4E2eHaOosoP8wTz8tzTG7xKBSScyU52M0nDbgYLYlD5cjXWdDAS1E5pRDEMHjqwTlctlwdaMByvFbBYtSh8nntxbV2uXWBS24CETfAtW0EubmMYH+6xX/wVbrFo7jmJZc/3NkfjbfsRIF0V0Bgz8L91W64QDyVArUYVFPqwDAK2wXB5JoyvI4T4Q1Uwr2kDHAVbyodurfkgAuvJXBdK1D+OThnZYlVblnolOtR9rkQHrpr7ATjqujJt3oLnseTbXDsmOhowO91SJcdZ0YZiBLUEy0aF3Uy4xxuO8AJ0VwYmb20HH6iZT+lrhUKhOswLEH++LAtJ24QdE2LLSbpCQ9KFOWk4DNdD9q8Eh8oF1w065R4GfXGVc1tpnjHFGXFKCstNxdu4mgQF3kgyZjPeH5Rf3jl7KVypM3J4vWQn43lNrWS4I1wbS8FGRcij8ehIJv8g+oZ1fRlApAvtseXl3Ol7w/arhf1/zoMzPuQIzXZcKTrs4SsrOLWAs3bCAFdBr+gRq3QHCcjK7YYDbau0iafQAVtgOak5t9cZpEt5RY5D99fAvf1M9Be1GBX18MagJAqHkPS1WjI/b0xtcLaSRJJoAKnioiUIa7WxWUDmympqekiRnShpbiqN62O8TOHc5azvCgn93CoQV14oHiWeyyyibHgLLvcCCv4jbXFSvFwdTRaHa57+mJLSJbgHKXY4snJ272ROBF50hgoQH5ng4xrUOfJbuMapHlOpVXm4rcFyC+JzxW2mUcuDbWfa+UknZ+KAtx7E2LYSscHxGGP8la0A/erYJpcaJl1eBnO4/0OwIpyFbtThBn32YV2Cg8VyFnIJ8tvpMkHetnXcE2DUxZDyTUgfuRY7Xwqd8jIOsjQ+cjz1XMd8tllHihvl5wHD6QyIQusoRVQcPtBRE6mUF+kA74nyW9LrOJmZHHmETEBLrT6QncElWRWT+2nzmkksVhJFNSlZTZZXhE/uMBPtT2+dklqWfuYJki1J03PLCtwKi1iIdIiEU+xiAQ+N0Prcsod3SNOc0sGNe18pHk2BPNKKJvLobnPnwO3tcou8+hFoK6MFPcj31z9bltLGOc61GRl43bcnOa59pDETjEvKYCAc3lFPoWwAvkx1us0UAShXgwFcRbyc/5su2yEwDeg3ZqhUF9GzJ9WaJEHOpDc44J7P3DpTC4zaYDvuLA0F0Q+u9Ym50HJrAZRanHuU11RKOuUINoAFAZXuts+EFMKmstnJFcv64au+nq0x1akeeEch1yM4wKVb5ssRTlS5Ye3oZfG7ReePh6SI0nr2JwCnEwiTrdFPFliJgEOznJNTi6E+x97vbIbQkOPIBm0lJx1w41YThz4rMamEudQxria2n0HffLX7/XLCx3jcMWmAGO1QwQZfxoN/91dA7K3J3LSYDV1EstJjV8C4aWXQNeKS/5R0AiuYPZEU0Du2DEg9+OVU7640gCXqzdQinPrWFlJaY+EGMj4LBTS93Z70+cH96bgcd1OrpvKhanmw0WcnzI7KBlcoCCCNrzzUEC42lpqbznbl4RgOXkwfa48txZpVrOY6bKNa0Io+5sQ+q9Adu474lerwRu6Bj8rmaG1YpqsOx5G+snyw2u4XAY37/n7d/vlH7cPyNswDpnKzyiOQdaRNYtIsK1ZEW1ooJ0Dg3IsiIaCZuJkcFYkKzUdSFiuQ7oTAvPs8aDcfTggTzYFVUyk/Pu0KEB8aZJaWB/GVIwn2WHEdTHfgVZXWnCkG44G5JXd8dyQhGOHjFF5cHHf3yNP7dCUI7UQB6jbgkNyvD8mg7iWMRcFPtni8dV4z/RJtu1wRbl71cNHgmqLgXZYD8aHjLG4Nmgz3Cta+n2oHyq4dq6uO1bR8DvdaZUfEhrEJvGZbnwu8MngcvlcHft13L8X70cELmWc2YF0e9DWhVAUHrQDCZFaLdQhVDCvwM3mjk1elHekfPOJeC4GzLo7jPL2QB6GYETZg25Hnke4TFnpYzh/N9z2bS3x+aW/PxqUF+E5HMI98dMYdYXYF7+vh7vegfsb7c1w6LX2iBxE3TGJXCM3+yOywtHo3I5sE1yyOsZH0LjFECwG2tScLBzXFvGhAcJwQTldrhkuKPfEeBduimI1W3aUSpwNTbsK8RY3B6FupgNGa3qAlclYbtQGGBlMlz1uFRCwZDwP68x1R0dNF9m2QgIZA67AMQdxM+MdN1rbWPyJ07zUvhNQMl0QaK6d+QoEqSswFHeDAE75Wo56q+O6n4lq6AJBuVWd2p1qAqAHuRku6jq4jbNQrjKUr4RkxH+uls0FlrmXA116eiBqbuZYwCmsp40o4yoIMctIxcH4nitjq3TRKHzQ+ZnmoOxGvtWek2MB13H4i0M5y+G2z0EdlDlARNQdH7GzQiY4fOJHFXDV9mGkSSJSUXFPFc7r5QZDqsLGo4iRJfb2Xg63N3mKIntyuaJ3M/KPLOUcuduolGDKJBRfUcZyVCh7Sx0oMInTDS3dCb4MMX6gbLEeeIynAgmmS7XL12Tw+nEmkRZGnlMxkXSZRqJMXK2McaxaoBjgyt/cK1ANZlMj8esESU+A908tGxXTyJ7j6GB+eC+QhTHsHLQD0+LS+GpZe3oevFdqPkZDch6RHt1aLvnIXtJupMlDPWbBJMdQqqeAdcc8Eywz8jwf93DhPbdK4NRBtQgxFK/KA9tmMu2eyjamM145zAJyS8R0MIR8igs67WCZTwgWyj2dRU/Oy0SINxZy3bansexkql8zByuQjX8mkZBgcVluHtNd9OS8ZBO5btvTWHamnogaGhqnQBNRQyMPoImooZEH0ETU0MgDaCJqaOQBNBE1NPIAmogaGnkATUQNjWmHyP8P97IrQub9lf4AAAAASUVORK5CYII=;" parent="1" vertex="1">
          <mxGeometry x="-331" y="1004.69" width="156" height="151.17" as="geometry" />
        </mxCell>
        <mxCell id="H3LQPbuVWB5SwZg9GpPZ-23" value="" style="shape=image;html=1;verticalAlign=top;verticalLabelPosition=bottom;labelBackgroundColor=#ffffff;imageAspect=0;aspect=fixed;image=https://cdn2.iconfinder.com/data/icons/social-media-2285/512/1_Slack_colored_svg-128.png" parent="1" vertex="1">
          <mxGeometry x="414" y="989" width="179.51" height="179.51" as="geometry" />
        </mxCell>
        <mxCell id="H3LQPbuVWB5SwZg9GpPZ-24" style="edgeStyle=orthogonalEdgeStyle;rounded=0;orthogonalLoop=1;jettySize=auto;html=1;entryX=0;entryY=0.5;entryDx=0;entryDy=0;" parent="1" source="H3LQPbuVWB5SwZg9GpPZ-29" target="H3LQPbuVWB5SwZg9GpPZ-23" edge="1">
          <mxGeometry relative="1" as="geometry" />
        </mxCell>
        <mxCell id="H3LQPbuVWB5SwZg9GpPZ-25" value="REST Call" style="edgeLabel;html=1;align=center;verticalAlign=middle;resizable=0;points=[];" parent="H3LQPbuVWB5SwZg9GpPZ-24" vertex="1" connectable="0">
          <mxGeometry x="-0.0927" y="1" relative="1" as="geometry">
            <mxPoint y="1" as="offset" />
          </mxGeometry>
        </mxCell>
        <mxCell id="H3LQPbuVWB5SwZg9GpPZ-29" value="" style="shape=image;verticalLabelPosition=bottom;verticalAlign=top;imageAspect=0;aspect=fixed;image=data:image/png,iVBORw0KGgoAAAANSUhEUgAAAH8AAABqCAYAAACVpo47AAAAAXNSR0IArs4c6QAAAAlwSFlzAAAXEgAAFxIBZ5/SUgAAHXVJREFUeAHtnQmcVPWRx6vPmek5mBPkkBtFAS8Q1MRr1Rg08YommhijoOJiiEfWjclmV+InxpiNR9ZVCa4ESci6ksuYqDGJqBFU8FYQBUfkPoa5e2Z6+tpvvZ43/bp5Pc7BzLwe5v+Znu5+7/2v+lXVv6r+R4sMpoOWAi6n9XzhwoX+nVt3nhyKhtYtXbp0l9Pa19n2XHHFFWVer/d7rrjrOM0Tj8c3jB47egH9i3S2jN5+ztvbFXS1/HXr1klhQeG/e1ye8quuumolBPxTLBZb+8gjj1R3taz+eH7BVQsqml3NF8YkdqXE5dhoPJrrdrm1KYEdO3Y4StgcB35JSUk80hrJE7cc4RHP2Eg48hWXy1V5zdxrVseisZXhWPiNZcuWbe8PYDPViTR7t2zZMoX7FwYl+AXAHi8xKYzFY14YQMRRkCd74TjwtWlxV9zvEpc7Eovk8zU/HouXwgBTYYjLYYhdc66cs47rryJdrxQXF2+47777ajVfX6Zrr73WR5smRcPR0wH+TJVyt9tdGo1EAxFXxGO0RYEn8Ry8EPMnvjnnv+PAHzFiRHTrJ1tXQqLRXre3FJUvMVfME41FDUaAKcpcbtckCPr5eDQeqqut+5jh4W2+rw6Hw2thhsr7778/1BskXrBgQVFjY+NUt7hPjUViJyHZU6m3mDblwag5fE9IeRvoHrfHAD4u8SpP3PO89q032tXdMh2pkK688spipOgICHsuInMBxtIUPosyAlohta9xiXo8nhD3WxgW6lCxGwBnFZL498KSwrfvvffe5tQMXfs2Z86cQoA7DhY8GwY8hXom0rY82pIL2Cr9CRqaUk4DaI9wTw27t2DUJ2DKZ8nzIQZsn2uojnrrSPC1wZdcconH7/fnQ7Qy3s+AAS4B0JMZT/Oi0Sgf26md7B8XwSJCnmbAaeLGuzDCn/15/icfeuihyuSDn/5p7ty5E6nzfKo5l6ePpMz8NsCT2rK9CS7hfqJQl+ygGX/zRD1/DMVDr2Cw1jc0NDStWLHCUVKvjXUs+AlKGv9dMEJuAckdd093eVxfApRzUbXDeRek0fJoao9glDCgBGGWXW6P+ykAWbp46eJ3UzOkfrv66quPYjiZQ9nnkGcogOcjxfsBrrnUilfQAbuJ9qzFJnmytbH1OV++7xMs++DTTz/dK8NPaou7/y0bwG/vHUzg9/l8+UjTWF6zIfhFgHMMY6snRRuYOczegQ6quAlAd/LxD/je6i20iar5MAOMS0bxzAUAegjlBfieKMEy0piAw3RRPm9gGPoLbXgmFAq9Q5saJ0yY0Iz1z+Dv/GSSx/kttbQQ4rr3rNsTqPPXFed4c2ahDb7A7TPxCkapJAKGjrnJHGYvQR6AgtxIUxdtj8bFE4niYVhA149apg7tMIQOKxupb6U74v5r2BV+nSGphtxNixcvDicrzI5PJlmyo7U2rZw9e3YOVrTaBsMB/UTk90wwPglGOFQNLx0a2l/pxqJNeQq2CbiRT+LKLB9w8UWGnVVxd/yt5ubmfTU1NU1OV+s23Uu5lPXgW3rjZljIycvLC/Aa1traOg2GmAFDHA2YE3huKINzAMl1qxSnpzagI7zXkW8bLPMez7zG6+1IJPIh14K7d+9uBvBWrlkGgvSSsuf7/lTox7YTOJkGWDMAoCYQCDyHv17fzea4cRf9wWAwJzc3NwcNMATAR/AahuquAMgSxusCIPQzZiuQQe7twSDchirfwjNVeo12tGzdujX0/PPPdzkef92V142NeqL/xADki4fje3xeX2VYwpVLlixp6GafDng2R4BPkKYC4n+H3n0JUIogeozXO1jbv4EZnoBgO3rYc9dpp53mmTZtmgfDzIMke3C/3ISSjWJhkjgMEa2qqorgVER64Ja5cBGPoe2X0YNzYbrhWgHfo9ggzWigSvyDv3pzvMsXLVq02ai8H//1O/gEUUZgfT+MMj4FUAoYW40EE6ib1gj4m/n8NyT0CbTBa70VvesJBsq8Xpf39KhEz0ObfJZ2l6m3wNCR9CjQL1yPwORNMMZmfI2fwNTLe1JvT/P2K/iES3MIly5hBu9iwqOJ2Lc5mra1DGmJqZsGMYMwyJsQ7+/euPf54bHh7y1curClpwTobn4FHIk+nrafCWOeDOjjaGs+/ciljYlizb6YlVj6BEPXkm8hDHC/ebuv3/sVfMblr+OjL8Znzs1oQllaiMpsZShoxh1rhFA6ufMahH45T/Lejvgiu3rT3Zo/f34BYdoxaKcZtGMWUj2DusfShgCMmYvGSpnM4XrmRJ9gFHUfq70+72W0+9nMD/feHQtpe6+S9JKRGNe8efPywq3h5yDALFR7+iP2383WqgrVYcHjbqEsjelXoUY3UdYGPPj3XF7XR/jfO/Hpq8rKypq6soBCtRFjf2FRbtFQwrMjUdWTqWMqUE0C8PEwayHfcwE8px1wbW26lNv3IHmVvujED31/oThYPPveFT2bg0gW3PlPJjk7n+MAPKnToS0tLTO8Hu9KDKGcLhNO22BpOcAo90QYHtQNawWYMEDVc30v4O2h/Dqs7mpsizqYJAR4+oqhsn0879OpYxinhFexvnNvGNdLyRcAID9l+bnmQ0PpRA632lJXATfzme9aVFxa6cupTPq8Yl7uq/dkzLqvaqQegiR+pPIsCJlDUKZ7yUJ4xk41rPwMB8k587gMxUYYB2gazYuhKTR8q7WpZa+59YWjF3fhhum7qm03xpgG670wixEPgDG4nEgwU9cl3Mxs904LaIsfOlzA7YMDfFRyDpMnX0sJwdoRp7PXLIzQnkXVQWJCJsHgds+0P5z2AYzREgcW6LQqzK8GDeJyKd9vNa/11Xu/SD7jnAdJm2BV3Qe8w10B+4BX3oUCaSeSH+hCjgP2aNIPPWBFdrIgtY6zBaBOdinbHus/8AeB73de6T/w+73rgw0YBP8g5oFB8AfBP4gpcBB3fVDyB8E/iClwEHd9UPIHwT+IKXAQdz0Z3l22eZz4c65nzVGAecZeJclvWqpzv/TiPb1aRzYVHnbnFMjybQ/2dZt1UjGRfr39LskNzJdQS68PBW62Ww2r+6TX6zG75vT3GPP6u4vH9K7E2RAhKfnxeIW0thZIa+/vMNJe7iwYadOcg/hSH9A9nbpW8Im2a8B9MOieTqSB+n1Q9Q5UZDvRr0HwO0GkgfrIIPgDFdlO9GsQ/E4QaaA+Mgj+QEW2E/1KWvudeDirHzGcGP5ZvWmNcujLdHDMd+M6//R9AKeBDb6CaWzCFSngcLfRAb9MKPDI+CK/DM1xS47HJUU+t9SHY8LebNkXisnWYES2NEZlS3NEdjax+y5KIQOUGQYm+Ao4El6U45JZ5bnyuRF5MrMiTyYVecXndokXMD2865jHG6d4JIRfcY7wRRmhvjUu79WGZM3ekLywKyRv1IQkxFYQI5N140YWa4aBBT7YKJIj8j3y5bEFctHogBxe7JcAaDdF4rKhthVAW6WyISJbmyJs7YlLA9cLfcoQLilHGxya75VxBV6ZVuqXM4YHjNeNU2LyVnVIntzSLL/bEpSdQfaBKNeoRsjiNHDAB/Riv1u+PqFI5hxWIOMAUdOLu1sArUler26V7ajxEGCH26RbeUX3ZuhpLYqjBwZQraDaIZ+ydIiYUZYjZ4/MkxPL8wwtcs3hhfLYR42yjNcOyiOTVpOVKdnyX219RLy+ORLq0ZmFfU8EA8G4nDosV/7t6GI5vjwHcEUe/7hRVmwOyrrasAQBHC3OHk7+6fOdSVBG2Yf91hLAXpgyxCcXjM6Xi8cGpMDnkQ/qw3Lfe3Wy4pOghHWYycKhILvBh+gcaS03HFEkN08dguR7ZAWgP7ihXtbXRqQxqoZcG9LJnnYG+sQzZl6+qUYoQMrHFXrlGxML5YoJBYbj8KetTfLvb9YYhqIxFHS+9H5/MrGnXJtx0c3ni9tzrESTGxP7vXUdNQDVPTTHI3fPLJV5k4dgqUflljXV8rMNDVLZGJEm7htenYLeHeC1bjMv7xQnLRS4JxSXl3e1yAsYghNhhNmjAnL6IbnycUPYsCWySQNkJ/ggMSrglYc/WyHnYdQ9v6tZ5q/eJy8wvjdgxPUYdDuma2MEVQbKBNtxCZ/d3iIR6juP4eDzMMEWrq2vYZd4lgwB2RfhQ9WPxphbenK5nIUL9+vKBpm3ap+8WxeWFkXGlFb9rOJ6oJK1POpQr29nS1T+k3F//stVGIkii04sl2sPKzyw9R6o9tuUk13gQ/ByrPD7TyiTU4blyQOM7besrZUdgKA+ert6B/QijLQL0Ap4bz1PMNxEYgTnjspLGIyGgZeor56KV3zcJJe/sFfqWqPy4xml8jXsgUSDel51b5ZwIEjTm+1Llg24evLCj6eX4XoF5JGN9XL7WzVS04oOtko7YJyG5f/YyUPl4c9UyNn46j3SANTrwx/8wTEl8gvKfHBWKS4gfoCpVai7GWZ4HjtgLkNPHe25Bwb4HO6h0xkge8CH2HMnF8plE/IZa5vktjfqpFb9N7MHxse4XHd4kSw7ZaicwZCgQZubpxZxtgoIcb9biXq/PCEgF6JFKihPLf3HTx8mZw3PTYKrwwCFr4IBvvnKPrSNS+6dWSbjMQjN8HK36u7lTNlh8AHArIocY0zdTcz96lVV8okGWCzAq3q/Hen8zlHFMiyPH2NRbUAagWG4AZ/8PYI8XXbFkOgx2BeLTqqQEZSpSQNAQ3M9ctohAfm4MSwfYGsYBh71qaH5CdHDmkhMLkf1jyLvHz9pSpzy3NYeoxCH/DPJ55Dm2DQDic2D4D84tliKQfi7b9TKh/jw1uRCrL9/9BBZcOQQKcEmsCb9evORRUberkq/h7o1cHR4kZ7blEzKWKOJ/j2AgafRv3b1znU9EerRDxtl+UcN8sVDA2gNfh3GHCKSRTjiUyqlHNGktEZAuEvGF8jpjN2/3NQoTxOqjWmrTUni/lxU8Q1HFEuBRmJs0jGEaL82oYtWOLbDObhvX6VuU4tYi9aaRgQ88t+zyuU4oortAHMjSHDpjnfqZFdzVBaijcY6VP07G3wkT2fmbjyiEMNO3ap6zlGD6ibGAD8dwi88tsSYnLGCY/2sPLGAMoYzBHRK+qlDh47bjiuR/AwMpeVrM8bjBdw5vdiYGm4vG031UV1E7llfJ2MxDudMgvH0TDCHJWeDD7jnjy5ghi1HHkGVfsTYbR3n1ZC7DbWsEvhpaWKhT65lUqZdQjvKwFh/y7QhcnRJ8mS3TI8rAXX8v/awopSyVTst/ygo72JrXAX4Y3XoUBfRQcnR4Otii2smFUgD7tMvNjWkCg+MccHYfFwq/TWUT0+quq8GhElM0HQIAur+DCz5uZOKjHj+p5eMCwoVvzWlUCZYy6a+GkKBiz5okJEw58W0NbUDnSm5d59xLviAewwqfWZFrjyzs4nYOUaeiTIClM8c/HVE09TK72zSef7rJ6uEZshBuaW5brn92FImiczKMjybdlnDzV/HPrACrNPFT2wLGqHgy8YFmCbmgoOEvwukS+ttb38FoPMOzTPAfbwSdwlmSIIfl1MOYX4dxuhK0s5+FRfsWAxAW/WPWv4WHsPxuJVdTcoqGtkbBoO1A0yFuxtj8tT2ZmPoms6qog61Tlcr7eHzzgQfnHOQbF1+tRO/fnUVawyskyXcv4jJlDSvrp0U61mt836dOl37Jw383DClqN10aH8C5joJZppPkIiqMyadPKrVqKJN0hVAJxN2tjIWPwMpf97abJSps38ZtY5Neb19yZngQ7CxBT45Yohf1la1yt4m0DZbinSWE2Q55ZDM0rn4wwa57c06Yy1eOgEV1wvG5JNfgaBcTbwVgfjtxxVTtllR4pb1/xamir/JJM6Le+yP+Ve7Yjbxfyuf6pc3q1tkL/MPCr5PH2qr1lp2f3zO3NP+aI1ZJ4J1ZLHPcLNe3RMSDkM27xiEm4wVPh7r3S7tgch/2tbM0q2gPMW7XRqC+/btKcWSY6JE+fMOH2JIbQdCL/e+Xy/v7w0zkRNs55v08meW+XE7IavZZD7uaI6hicIylXaXB5xDcue0xEpFCDdZLWfSe6q+rYjAGFOHeDNa4rradjPGYQuA/vDtWtnLIg+7dObIXJmNTSGocA3S3MhYn2kY0fzP7WyRZRsbhUPX5R+7Q8biEbtyx8KUwzSe0I4+NiDLiXQYKmXIGZGn/TI5w66EvrvmTPAB+wgA1oWWlayhTwEf2hzJitxM6SXAT6y1R91WheRuAkN2SZd/3TRliFTghv0HsYLhHUikztTdxgxiNYEmbcs25hXeqdGpnP2TBoUm0/b0sV1D0srDuijU6hHsX0LfXXEo+C45BAlpRmJqUeMp6NPi0dgDmdImllMZVIbS/JqR/A/j/1qYwC7NxPpezGqgs3Wctnug7drDSLwOP+YETpTw7cYGe4NSyxmWs38kcU+bBlJ7xSnJkeArAXXY1NUyxFxSsNd7mejXiqbYpbN9JpK869q+O96tlZBRUCrZtRxdg6daIFNSdf1fhGm1Le3l8rnGiDPb5ypLb6C2o81D2O+efRF9ctV54ENYHXvV+tZtVC3Ww6G458VazjSBo/gY8QAr6ZD+Z9hs8dhm/U2m/VNHQSLllzuZoNmmQ08apfjplf0La7vCIuL9EnxpJDX2nZLSuuSAZkEcXaOBVyWFXjeMYGki99QO0A0zdsmPBBcq51hxIQ8/qCM/eadetrHAsivpGRaN/Jb5eONHXNIyWqtIu2UMV+nXnPjdQlnnNE/nPxRksN/fqsfar81gwatQBTRTekL6ddHFz3DVOptqqEO9hSYWZrSre0vmwg5m+/ZrH/3R4JKmvUzzOiXZUMoBTQN4jewVMPAXGf6XRc74qON4pjRcx1vL48ZzcEWU1xJmBl9Sw60TaRFG3ut71c1UlkpLaJjR+Zk9Do01pDNMadtYUM1O4PR7aaX32Vdngk/3N9VHDKkfXwiY0MuaPmCuPFOawPy6bQJDddXueEelOZ07UnPoZs4H1MjTy+nYk1Xd+InaLpvUiGW4ScestHyH0S6ttVLHrLR7NsX0ySVngg9x3q9PuFKHFRHGtWJFi99kjlz349mlmUzaGCFUu5tI8UomWZazpStT0uHmRxh5O5qowJY6caKLflbn2LublY2txjo+K8JuNMVkYhN1SP32oLKUM9C37V4mwvTZdQW/higd5vYJFX5xpbTSJRthjF0MC3bpSEKoY1T61XBIT5Srxt9P363jAAb7/E+y9+4JNl/qdKxtQnDPGJGbcYXPW/vC0qR+odlm6htGAGlaiU/Wsxhlr273Me/ZVtB3FzPoyL5rgG1NSKgGa3Qn7AlMr+rCzRp1ARQQCLcbqVzF2H3puP2bX8az5+G73wPAxjbb9AqQwk2Ef299o4aFILkpMXq17R5i8UWT+ng8Z5fycEG/PMZ+AUkUoH8P8yTcwLb8lDkVqa/AFnmUNYghrcQh/t7+1LPrcV9fg24a3VtJPP1b7MDVbdfPoq5N4ysGkf+PyZVL2C6te+qtSb99g3n1X7LyZ6/JMNYH+Az55fdM/PyFqVZTP2g+/ax7/cx6+JqauHcOK3KMefnUO8a3ddgKum8whXEobnbbaqO/7bSfaLIpqk8uOUQB2fRVpUhX6nLrK+NYIWOipI8CuM6rb8gwZ6+q/5vE7VPE2loFSKtBXo0U6hp7fZmfI1pRKj8lctIeXeVzC1vBMwWGlmwMSp1uGDTz81HnDi6ESXWNwRozRGxtSz9+di74qF2Nyb+5LyTnsKhDN0C0MwCtrmXsfGBDY/slKw3VBb+eRRmXjmfdXCbLXgGye1kLsnzW0ztuYRpYVwvbJW3rr1DrKQEhjEcNH4/GPfjN5ibjnB+njPfaB+eCDzDNmPQP45sPQ3qumJi6+VENssdQ/WuZxbNLOvbffXwZR7QU8uvIIAcQ3U6o+6vYG3A9mz/sYjs6RP0IG8OI3ytDaaK6AuyD+awY1rjE/+Jh8IPPiXsO+e9c8JVAqPffMja/j8qchySP0g2SJv1ouUbh7mCLtBLfLumS7p9yeMOiE8rlsyzRAouuJxjn88z6/XA6ewPskKfE+4gcPoOh167utRaY7SIOhToO13MZS7g3aWwizT7pemMObA5ng68Ao97vW9+A2vfIv7KWPkWCIeZfsAvuXp85bKvbty5Ha/zilHJD/dq6gB3RFKPjfNYLHtK2Vy/90T9sDcrdSL16cO3gwzAjUfXfm1Ysurfw5x/UJ6bwu8N86RUewO/OBp+OGuq9MigvsgNWd76ciY9t3RunM6v3Iv1PbUPyMqQ8XCt1w3ZrWDijA58hM+Wv3tvSjqv1qWfwQG56pVr2acTJQknV7reyQET39N+1rk4qiVZa71vL6M/Plib3ZzM6qBtpaeBnWW7j0CONvt01o8w4K69dA9CD6nBUblhbzWGJ9gsrtfTXWHsXtG7p7qDKlFsYni/uDDHXAONY0p9htutfadstbLmujKmHNV2FttFnHsUD0HkFJybng29QzSUv4yb9kEUZR3E44l3Hl0q+BkrMoR71r9I1b3WVcUiCHaFXIb0pC0HtHrK7BoX0wMZXLauBllc2ynUcxPAxa/KNJpjgAvyprNC9k8MZdpHn1teqpQHGtFUbdnX18bXsAB/iakR88fsNspwzePSghNunl4oRXW9jAB1yNxK5m/vSXnmU7dHW1AwohlfQzd7G0DhPYdDVsxrn+2igm9bUyDY0gWG9W4DXzR4PnlRurAy68bUaIpTOM/KsdElOTTn9KDaIrOsn1zDNOpU4+cWsvc/F+l5FsAdsDenSN85cNOyDIIGbo9ngmcczejTbnYy9xkoqEywrFT71s8uwF1YyrPyW83c0KJQizXgbCvySk8tlbL5PFqzZJ3/ErzdmD7pV36c26IA8kD3ga3chZCOE1uXZMwi26ImY5Vjhq3c3J9boaTyeP5X0N2GSl1D1GlPfiJv1OKB12+iiTJ2M06PWWIKfBF65Da3wRTTRIiR+ZMDHnME+Wb6pSQzrg3xOTs6M7XdAMaW3SvI1q/bKfbPKjJ23I/K88t3X9yW2cHvQ7RC9AVBeYn39+rp9xnpAzdeTpKO7sZzQBJTydbPoAg6AvJnInw4B/4wB+AckXg9oStEMPam4F/Nml+QrISC+AqmHMal1X5HnZoIn3ziAaTcrd3Um0HgALQA+rPdj+TfPdtXDs6W5Aq/A8jcTzaOHLl1B5E/P5lnwcrXomr9mbZzJILaFOOdi9oGvtGtjAN21/Q/G/H3M0nxxVL58ATtAD2HQQ5F2m64ZnoDi0eOknMSfHrn6L0wa/RiPY2pJjjyG5f9t3My3WGCScmpIjyvs/QKyTu23k8RggDhLs+JE0BrlbXbQKCi6TVqPQn0cUJYTHHqb41DVWjfG+66EV5Vj2qTcj9E4FePxUvbYX0zItgI74wNCzje9uk+e3cGuXYI8+ni2SLxJw6SCytYj17UnUF7j9iUcxHzhoblyDUek6I8sNAKKTv0+jZv2KkZiJQab/sBCuypI9j55TctjyCjmLKCJWO6fGZojZzEfP50NmLqgVFcR6cFQv2MvgPry2Sbt2j0zJbufzeBrb1T06E0A6VYP4GzCwBfjDZw4LHH+vnoA+rMpumfuQ1YJ7WFY0EOeNDKr8aISVtcOYR5gjP4Gj24Ph3l0YiiXm+rZrd7TbKwvWMlPrlSRV5f4GSt2khQ0aZo178mmZzv4JskN/Zs4u09/VOkoFnaciA/+GWb1phAfKEU7aJhYFYC+zKReojKB/tyK3tcNHrqKVyOLa1hToBFE/dGGZh1CNCUpl/iehf+zd8zPROw2UBSkZlbV6ITQGly+n/sajLF6JFrhUKRbJV3X0useD8VTl3XrwsvtqHI9yFnXCeqwoYtIdcZOJ4aMNABAN0k38MA3e9YGki6k1Z9BaWBwruK1EVfQu9sl6ua0xYSMEUMZIEYeBTmCX5jykyxa1gAC3STRwAXf7KEFNB2jdYwPG3CbD9i8mytuLHltnsr6SwMf/HSIBjig6d3t6Hs357k6KnLwXrZQYBD8bEGqF9o5CH4vEDVbihwEP1uQ6oV2DoLfC0TNliL/HyOEvS6Nh8GPAAAAAElFTkSuQmCC;" parent="1" vertex="1">
          <mxGeometry x="163.5" y="1043.97" width="87" height="72.61" as="geometry" />
        </mxCell>
        <mxCell id="H3LQPbuVWB5SwZg9GpPZ-30" value="Whenever a Chatter Thread is updated, needs to invoke a mule API and send the entire Data as post message" style="rounded=0;whiteSpace=wrap;html=1;" parent="1" vertex="1">
          <mxGeometry x="-320" y="1168.51" width="130" height="90" as="geometry" />
        </mxCell>
        <mxCell id="H3LQPbuVWB5SwZg9GpPZ-31" value="Data Sent to Slack and posted to a thread as a comment" style="rounded=0;whiteSpace=wrap;html=1;" parent="1" vertex="1">
          <mxGeometry x="150" y="1130" width="130" height="90" as="geometry" />
        </mxCell>
        <mxCell id="H3LQPbuVWB5SwZg9GpPZ-33" value="CHATTER OBJECT" style="ellipse;shape=umlEntity;whiteSpace=wrap;html=1;" parent="1" vertex="1">
          <mxGeometry x="13" y="780" width="80" height="80" as="geometry" />
        </mxCell>
        <mxCell id="XcFutZoUIK3_P81ENMwH-3" style="edgeStyle=orthogonalEdgeStyle;rounded=0;orthogonalLoop=1;jettySize=auto;html=1;startArrow=classic;startFill=1;" edge="1" parent="1" source="H3LQPbuVWB5SwZg9GpPZ-34" target="H3LQPbuVWB5SwZg9GpPZ-33">
          <mxGeometry relative="1" as="geometry" />
        </mxCell>
        <mxCell id="XcFutZoUIK3_P81ENMwH-4" value="Sync Data Betwen Two Objects" style="edgeLabel;html=1;align=center;verticalAlign=middle;resizable=0;points=[];" vertex="1" connectable="0" parent="XcFutZoUIK3_P81ENMwH-3">
          <mxGeometry x="0.0096" relative="1" as="geometry">
            <mxPoint as="offset" />
          </mxGeometry>
        </mxCell>
        <mxCell id="XcFutZoUIK3_P81ENMwH-6" style="edgeStyle=orthogonalEdgeStyle;rounded=0;orthogonalLoop=1;jettySize=auto;html=1;entryX=0.5;entryY=0;entryDx=0;entryDy=0;" edge="1" parent="1" source="H3LQPbuVWB5SwZg9GpPZ-34" target="H3LQPbuVWB5SwZg9GpPZ-29">
          <mxGeometry relative="1" as="geometry" />
        </mxCell>
        <mxCell id="XcFutZoUIK3_P81ENMwH-7" value="Gets Sync Data" style="edgeLabel;html=1;align=center;verticalAlign=middle;resizable=0;points=[];" vertex="1" connectable="0" parent="XcFutZoUIK3_P81ENMwH-6">
          <mxGeometry x="0.2193" y="2" relative="1" as="geometry">
            <mxPoint as="offset" />
          </mxGeometry>
        </mxCell>
        <mxCell id="H3LQPbuVWB5SwZg9GpPZ-34" value="SLACK Object" style="ellipse;shape=umlEntity;whiteSpace=wrap;html=1;" parent="1" vertex="1">
          <mxGeometry x="13" y="544.5" width="80" height="80" as="geometry" />
        </mxCell>
        <mxCell id="XcFutZoUIK3_P81ENMwH-1" style="edgeStyle=orthogonalEdgeStyle;rounded=0;orthogonalLoop=1;jettySize=auto;html=1;entryX=0;entryY=0.5;entryDx=0;entryDy=0;" edge="1" parent="1" source="H3LQPbuVWB5SwZg9GpPZ-38" target="H3LQPbuVWB5SwZg9GpPZ-34">
          <mxGeometry relative="1" as="geometry" />
        </mxCell>
        <mxCell id="XcFutZoUIK3_P81ENMwH-2" style="edgeStyle=orthogonalEdgeStyle;rounded=0;orthogonalLoop=1;jettySize=auto;html=1;entryX=0;entryY=0.5;entryDx=0;entryDy=0;" edge="1" parent="1" source="H3LQPbuVWB5SwZg9GpPZ-38" target="H3LQPbuVWB5SwZg9GpPZ-33">
          <mxGeometry relative="1" as="geometry" />
        </mxCell>
        <mxCell id="H3LQPbuVWB5SwZg9GpPZ-38" value="Sync SLACK and SF Objects" style="shape=image;verticalLabelPosition=bottom;verticalAlign=top;imageAspect=0;aspect=fixed;image=data:image/png,iVBORw0KGgoAAAANSUhEUgAAAH8AAABqCAYAAACVpo47AAAAAXNSR0IArs4c6QAAAAlwSFlzAAAXEgAAFxIBZ5/SUgAAHXVJREFUeAHtnQmcVPWRx6vPmek5mBPkkBtFAS8Q1MRr1Rg08YommhijoOJiiEfWjclmV+InxpiNR9ZVCa4ESci6ksuYqDGJqBFU8FYQBUfkPoa5e2Z6+tpvvZ43/bp5Pc7BzLwe5v+Znu5+7/2v+lXVv6r+R4sMpoOWAi6n9XzhwoX+nVt3nhyKhtYtXbp0l9Pa19n2XHHFFWVer/d7rrjrOM0Tj8c3jB47egH9i3S2jN5+ztvbFXS1/HXr1klhQeG/e1ye8quuumolBPxTLBZb+8gjj1R3taz+eH7BVQsqml3NF8YkdqXE5dhoPJrrdrm1KYEdO3Y4StgcB35JSUk80hrJE7cc4RHP2Eg48hWXy1V5zdxrVseisZXhWPiNZcuWbe8PYDPViTR7t2zZMoX7FwYl+AXAHi8xKYzFY14YQMRRkCd74TjwtWlxV9zvEpc7Eovk8zU/HouXwgBTYYjLYYhdc66cs47rryJdrxQXF2+47777ajVfX6Zrr73WR5smRcPR0wH+TJVyt9tdGo1EAxFXxGO0RYEn8Ry8EPMnvjnnv+PAHzFiRHTrJ1tXQqLRXre3FJUvMVfME41FDUaAKcpcbtckCPr5eDQeqqut+5jh4W2+rw6Hw2thhsr7778/1BskXrBgQVFjY+NUt7hPjUViJyHZU6m3mDblwag5fE9IeRvoHrfHAD4u8SpP3PO89q032tXdMh2pkK688spipOgICHsuInMBxtIUPosyAlohta9xiXo8nhD3WxgW6lCxGwBnFZL498KSwrfvvffe5tQMXfs2Z86cQoA7DhY8GwY8hXom0rY82pIL2Cr9CRqaUk4DaI9wTw27t2DUJ2DKZ8nzIQZsn2uojnrrSPC1wZdcconH7/fnQ7Qy3s+AAS4B0JMZT/Oi0Sgf26md7B8XwSJCnmbAaeLGuzDCn/15/icfeuihyuSDn/5p7ty5E6nzfKo5l6ePpMz8NsCT2rK9CS7hfqJQl+ygGX/zRD1/DMVDr2Cw1jc0NDStWLHCUVKvjXUs+AlKGv9dMEJuAckdd093eVxfApRzUbXDeRek0fJoao9glDCgBGGWXW6P+ykAWbp46eJ3UzOkfrv66quPYjiZQ9nnkGcogOcjxfsBrrnUilfQAbuJ9qzFJnmytbH1OV++7xMs++DTTz/dK8NPaou7/y0bwG/vHUzg9/l8+UjTWF6zIfhFgHMMY6snRRuYOczegQ6quAlAd/LxD/je6i20iar5MAOMS0bxzAUAegjlBfieKMEy0piAw3RRPm9gGPoLbXgmFAq9Q5saJ0yY0Iz1z+Dv/GSSx/kttbQQ4rr3rNsTqPPXFed4c2ahDb7A7TPxCkapJAKGjrnJHGYvQR6AgtxIUxdtj8bFE4niYVhA149apg7tMIQOKxupb6U74v5r2BV+nSGphtxNixcvDicrzI5PJlmyo7U2rZw9e3YOVrTaBsMB/UTk90wwPglGOFQNLx0a2l/pxqJNeQq2CbiRT+LKLB9w8UWGnVVxd/yt5ubmfTU1NU1OV+s23Uu5lPXgW3rjZljIycvLC/Aa1traOg2GmAFDHA2YE3huKINzAMl1qxSnpzagI7zXkW8bLPMez7zG6+1IJPIh14K7d+9uBvBWrlkGgvSSsuf7/lTox7YTOJkGWDMAoCYQCDyHv17fzea4cRf9wWAwJzc3NwcNMATAR/AahuquAMgSxusCIPQzZiuQQe7twSDchirfwjNVeo12tGzdujX0/PPPdzkef92V142NeqL/xADki4fje3xeX2VYwpVLlixp6GafDng2R4BPkKYC4n+H3n0JUIogeozXO1jbv4EZnoBgO3rYc9dpp53mmTZtmgfDzIMke3C/3ISSjWJhkjgMEa2qqorgVER64Ja5cBGPoe2X0YNzYbrhWgHfo9ggzWigSvyDv3pzvMsXLVq02ai8H//1O/gEUUZgfT+MMj4FUAoYW40EE6ib1gj4m/n8NyT0CbTBa70VvesJBsq8Xpf39KhEz0ObfJZ2l6m3wNCR9CjQL1yPwORNMMZmfI2fwNTLe1JvT/P2K/iES3MIly5hBu9iwqOJ2Lc5mra1DGmJqZsGMYMwyJsQ7+/euPf54bHh7y1curClpwTobn4FHIk+nrafCWOeDOjjaGs+/ciljYlizb6YlVj6BEPXkm8hDHC/ebuv3/sVfMblr+OjL8Znzs1oQllaiMpsZShoxh1rhFA6ufMahH45T/Lejvgiu3rT3Zo/f34BYdoxaKcZtGMWUj2DusfShgCMmYvGSpnM4XrmRJ9gFHUfq70+72W0+9nMD/feHQtpe6+S9JKRGNe8efPywq3h5yDALFR7+iP2383WqgrVYcHjbqEsjelXoUY3UdYGPPj3XF7XR/jfO/Hpq8rKypq6soBCtRFjf2FRbtFQwrMjUdWTqWMqUE0C8PEwayHfcwE8px1wbW26lNv3IHmVvujED31/oThYPPveFT2bg0gW3PlPJjk7n+MAPKnToS0tLTO8Hu9KDKGcLhNO22BpOcAo90QYHtQNawWYMEDVc30v4O2h/Dqs7mpsizqYJAR4+oqhsn0879OpYxinhFexvnNvGNdLyRcAID9l+bnmQ0PpRA632lJXATfzme9aVFxa6cupTPq8Yl7uq/dkzLqvaqQegiR+pPIsCJlDUKZ7yUJ4xk41rPwMB8k587gMxUYYB2gazYuhKTR8q7WpZa+59YWjF3fhhum7qm03xpgG670wixEPgDG4nEgwU9cl3Mxs904LaIsfOlzA7YMDfFRyDpMnX0sJwdoRp7PXLIzQnkXVQWJCJsHgds+0P5z2AYzREgcW6LQqzK8GDeJyKd9vNa/11Xu/SD7jnAdJm2BV3Qe8w10B+4BX3oUCaSeSH+hCjgP2aNIPPWBFdrIgtY6zBaBOdinbHus/8AeB73de6T/w+73rgw0YBP8g5oFB8AfBP4gpcBB3fVDyB8E/iClwEHd9UPIHwT+IKXAQdz0Z3l22eZz4c65nzVGAecZeJclvWqpzv/TiPb1aRzYVHnbnFMjybQ/2dZt1UjGRfr39LskNzJdQS68PBW62Ww2r+6TX6zG75vT3GPP6u4vH9K7E2RAhKfnxeIW0thZIa+/vMNJe7iwYadOcg/hSH9A9nbpW8Im2a8B9MOieTqSB+n1Q9Q5UZDvRr0HwO0GkgfrIIPgDFdlO9GsQ/E4QaaA+Mgj+QEW2E/1KWvudeDirHzGcGP5ZvWmNcujLdHDMd+M6//R9AKeBDb6CaWzCFSngcLfRAb9MKPDI+CK/DM1xS47HJUU+t9SHY8LebNkXisnWYES2NEZlS3NEdjax+y5KIQOUGQYm+Ao4El6U45JZ5bnyuRF5MrMiTyYVecXndokXMD2865jHG6d4JIRfcY7wRRmhvjUu79WGZM3ekLywKyRv1IQkxFYQI5N140YWa4aBBT7YKJIj8j3y5bEFctHogBxe7JcAaDdF4rKhthVAW6WyISJbmyJs7YlLA9cLfcoQLilHGxya75VxBV6ZVuqXM4YHjNeNU2LyVnVIntzSLL/bEpSdQfaBKNeoRsjiNHDAB/Riv1u+PqFI5hxWIOMAUdOLu1sArUler26V7ajxEGCH26RbeUX3ZuhpLYqjBwZQraDaIZ+ydIiYUZYjZ4/MkxPL8wwtcs3hhfLYR42yjNcOyiOTVpOVKdnyX219RLy+ORLq0ZmFfU8EA8G4nDosV/7t6GI5vjwHcEUe/7hRVmwOyrrasAQBHC3OHk7+6fOdSVBG2Yf91hLAXpgyxCcXjM6Xi8cGpMDnkQ/qw3Lfe3Wy4pOghHWYycKhILvBh+gcaS03HFEkN08dguR7ZAWgP7ihXtbXRqQxqoZcG9LJnnYG+sQzZl6+qUYoQMrHFXrlGxML5YoJBYbj8KetTfLvb9YYhqIxFHS+9H5/MrGnXJtx0c3ni9tzrESTGxP7vXUdNQDVPTTHI3fPLJV5k4dgqUflljXV8rMNDVLZGJEm7htenYLeHeC1bjMv7xQnLRS4JxSXl3e1yAsYghNhhNmjAnL6IbnycUPYsCWySQNkJ/ggMSrglYc/WyHnYdQ9v6tZ5q/eJy8wvjdgxPUYdDuma2MEVQbKBNtxCZ/d3iIR6juP4eDzMMEWrq2vYZd4lgwB2RfhQ9WPxphbenK5nIUL9+vKBpm3ap+8WxeWFkXGlFb9rOJ6oJK1POpQr29nS1T+k3F//stVGIkii04sl2sPKzyw9R6o9tuUk13gQ/ByrPD7TyiTU4blyQOM7besrZUdgKA+ert6B/QijLQL0Ap4bz1PMNxEYgTnjspLGIyGgZeor56KV3zcJJe/sFfqWqPy4xml8jXsgUSDel51b5ZwIEjTm+1Llg24evLCj6eX4XoF5JGN9XL7WzVS04oOtko7YJyG5f/YyUPl4c9UyNn46j3SANTrwx/8wTEl8gvKfHBWKS4gfoCpVai7GWZ4HjtgLkNPHe25Bwb4HO6h0xkge8CH2HMnF8plE/IZa5vktjfqpFb9N7MHxse4XHd4kSw7ZaicwZCgQZubpxZxtgoIcb9biXq/PCEgF6JFKihPLf3HTx8mZw3PTYKrwwCFr4IBvvnKPrSNS+6dWSbjMQjN8HK36u7lTNlh8AHArIocY0zdTcz96lVV8okGWCzAq3q/Hen8zlHFMiyPH2NRbUAagWG4AZ/8PYI8XXbFkOgx2BeLTqqQEZSpSQNAQ3M9ctohAfm4MSwfYGsYBh71qaH5CdHDmkhMLkf1jyLvHz9pSpzy3NYeoxCH/DPJ55Dm2DQDic2D4D84tliKQfi7b9TKh/jw1uRCrL9/9BBZcOQQKcEmsCb9evORRUberkq/h7o1cHR4kZ7blEzKWKOJ/j2AgafRv3b1znU9EerRDxtl+UcN8sVDA2gNfh3GHCKSRTjiUyqlHNGktEZAuEvGF8jpjN2/3NQoTxOqjWmrTUni/lxU8Q1HFEuBRmJs0jGEaL82oYtWOLbDObhvX6VuU4tYi9aaRgQ88t+zyuU4oortAHMjSHDpjnfqZFdzVBaijcY6VP07G3wkT2fmbjyiEMNO3ap6zlGD6ibGAD8dwi88tsSYnLGCY/2sPLGAMoYzBHRK+qlDh47bjiuR/AwMpeVrM8bjBdw5vdiYGm4vG031UV1E7llfJ2MxDudMgvH0TDCHJWeDD7jnjy5ghi1HHkGVfsTYbR3n1ZC7DbWsEvhpaWKhT65lUqZdQjvKwFh/y7QhcnRJ8mS3TI8rAXX8v/awopSyVTst/ygo72JrXAX4Y3XoUBfRQcnR4Otii2smFUgD7tMvNjWkCg+MccHYfFwq/TWUT0+quq8GhElM0HQIAur+DCz5uZOKjHj+p5eMCwoVvzWlUCZYy6a+GkKBiz5okJEw58W0NbUDnSm5d59xLviAewwqfWZFrjyzs4nYOUaeiTIClM8c/HVE09TK72zSef7rJ6uEZshBuaW5brn92FImiczKMjybdlnDzV/HPrACrNPFT2wLGqHgy8YFmCbmgoOEvwukS+ttb38FoPMOzTPAfbwSdwlmSIIfl1MOYX4dxuhK0s5+FRfsWAxAW/WPWv4WHsPxuJVdTcoqGtkbBoO1A0yFuxtj8tT2ZmPoms6qog61Tlcr7eHzzgQfnHOQbF1+tRO/fnUVawyskyXcv4jJlDSvrp0U61mt836dOl37Jw383DClqN10aH8C5joJZppPkIiqMyadPKrVqKJN0hVAJxN2tjIWPwMpf97abJSps38ZtY5Neb19yZngQ7CxBT45Yohf1la1yt4m0DZbinSWE2Q55ZDM0rn4wwa57c06Yy1eOgEV1wvG5JNfgaBcTbwVgfjtxxVTtllR4pb1/xamir/JJM6Le+yP+Ve7Yjbxfyuf6pc3q1tkL/MPCr5PH2qr1lp2f3zO3NP+aI1ZJ4J1ZLHPcLNe3RMSDkM27xiEm4wVPh7r3S7tgch/2tbM0q2gPMW7XRqC+/btKcWSY6JE+fMOH2JIbQdCL/e+Xy/v7w0zkRNs55v08meW+XE7IavZZD7uaI6hicIylXaXB5xDcue0xEpFCDdZLWfSe6q+rYjAGFOHeDNa4rradjPGYQuA/vDtWtnLIg+7dObIXJmNTSGocA3S3MhYn2kY0fzP7WyRZRsbhUPX5R+7Q8biEbtyx8KUwzSe0I4+NiDLiXQYKmXIGZGn/TI5w66EvrvmTPAB+wgA1oWWlayhTwEf2hzJitxM6SXAT6y1R91WheRuAkN2SZd/3TRliFTghv0HsYLhHUikztTdxgxiNYEmbcs25hXeqdGpnP2TBoUm0/b0sV1D0srDuijU6hHsX0LfXXEo+C45BAlpRmJqUeMp6NPi0dgDmdImllMZVIbS/JqR/A/j/1qYwC7NxPpezGqgs3Wctnug7drDSLwOP+YETpTw7cYGe4NSyxmWs38kcU+bBlJ7xSnJkeArAXXY1NUyxFxSsNd7mejXiqbYpbN9JpK869q+O96tlZBRUCrZtRxdg6daIFNSdf1fhGm1Le3l8rnGiDPb5ypLb6C2o81D2O+efRF9ctV54ENYHXvV+tZtVC3Ww6G458VazjSBo/gY8QAr6ZD+Z9hs8dhm/U2m/VNHQSLllzuZoNmmQ08apfjplf0La7vCIuL9EnxpJDX2nZLSuuSAZkEcXaOBVyWFXjeMYGki99QO0A0zdsmPBBcq51hxIQ8/qCM/eadetrHAsivpGRaN/Jb5eONHXNIyWqtIu2UMV+nXnPjdQlnnNE/nPxRksN/fqsfar81gwatQBTRTekL6ddHFz3DVOptqqEO9hSYWZrSre0vmwg5m+/ZrH/3R4JKmvUzzOiXZUMoBTQN4jewVMPAXGf6XRc74qON4pjRcx1vL48ZzcEWU1xJmBl9Sw60TaRFG3ut71c1UlkpLaJjR+Zk9Do01pDNMadtYUM1O4PR7aaX32Vdngk/3N9VHDKkfXwiY0MuaPmCuPFOawPy6bQJDddXueEelOZ07UnPoZs4H1MjTy+nYk1Xd+InaLpvUiGW4ScestHyH0S6ttVLHrLR7NsX0ySVngg9x3q9PuFKHFRHGtWJFi99kjlz349mlmUzaGCFUu5tI8UomWZazpStT0uHmRxh5O5qowJY6caKLflbn2LublY2txjo+K8JuNMVkYhN1SP32oLKUM9C37V4mwvTZdQW/higd5vYJFX5xpbTSJRthjF0MC3bpSEKoY1T61XBIT5Srxt9P363jAAb7/E+y9+4JNl/qdKxtQnDPGJGbcYXPW/vC0qR+odlm6htGAGlaiU/Wsxhlr273Me/ZVtB3FzPoyL5rgG1NSKgGa3Qn7AlMr+rCzRp1ARQQCLcbqVzF2H3puP2bX8az5+G73wPAxjbb9AqQwk2Ef299o4aFILkpMXq17R5i8UWT+ng8Z5fycEG/PMZ+AUkUoH8P8yTcwLb8lDkVqa/AFnmUNYghrcQh/t7+1LPrcV9fg24a3VtJPP1b7MDVbdfPoq5N4ysGkf+PyZVL2C6te+qtSb99g3n1X7LyZ6/JMNYH+Az55fdM/PyFqVZTP2g+/ax7/cx6+JqauHcOK3KMefnUO8a3ddgKum8whXEobnbbaqO/7bSfaLIpqk8uOUQB2fRVpUhX6nLrK+NYIWOipI8CuM6rb8gwZ6+q/5vE7VPE2loFSKtBXo0U6hp7fZmfI1pRKj8lctIeXeVzC1vBMwWGlmwMSp1uGDTz81HnDi6ESXWNwRozRGxtSz9+di74qF2Nyb+5LyTnsKhDN0C0MwCtrmXsfGBDY/slKw3VBb+eRRmXjmfdXCbLXgGye1kLsnzW0ztuYRpYVwvbJW3rr1DrKQEhjEcNH4/GPfjN5ibjnB+njPfaB+eCDzDNmPQP45sPQ3qumJi6+VENssdQ/WuZxbNLOvbffXwZR7QU8uvIIAcQ3U6o+6vYG3A9mz/sYjs6RP0IG8OI3ytDaaK6AuyD+awY1rjE/+Jh8IPPiXsO+e9c8JVAqPffMja/j8qchySP0g2SJv1ouUbh7mCLtBLfLumS7p9yeMOiE8rlsyzRAouuJxjn88z6/XA6ewPskKfE+4gcPoOh167utRaY7SIOhToO13MZS7g3aWwizT7pemMObA5ng68Ao97vW9+A2vfIv7KWPkWCIeZfsAvuXp85bKvbty5Ha/zilHJD/dq6gB3RFKPjfNYLHtK2Vy/90T9sDcrdSL16cO3gwzAjUfXfm1Ysurfw5x/UJ6bwu8N86RUewO/OBp+OGuq9MigvsgNWd76ciY9t3RunM6v3Iv1PbUPyMqQ8XCt1w3ZrWDijA58hM+Wv3tvSjqv1qWfwQG56pVr2acTJQknV7reyQET39N+1rk4qiVZa71vL6M/Plib3ZzM6qBtpaeBnWW7j0CONvt01o8w4K69dA9CD6nBUblhbzWGJ9gsrtfTXWHsXtG7p7qDKlFsYni/uDDHXAONY0p9htutfadstbLmujKmHNV2FttFnHsUD0HkFJybng29QzSUv4yb9kEUZR3E44l3Hl0q+BkrMoR71r9I1b3WVcUiCHaFXIb0pC0HtHrK7BoX0wMZXLauBllc2ynUcxPAxa/KNJpjgAvyprNC9k8MZdpHn1teqpQHGtFUbdnX18bXsAB/iakR88fsNspwzePSghNunl4oRXW9jAB1yNxK5m/vSXnmU7dHW1AwohlfQzd7G0DhPYdDVsxrn+2igm9bUyDY0gWG9W4DXzR4PnlRurAy68bUaIpTOM/KsdElOTTn9KDaIrOsn1zDNOpU4+cWsvc/F+l5FsAdsDenSN85cNOyDIIGbo9ngmcczejTbnYy9xkoqEywrFT71s8uwF1YyrPyW83c0KJQizXgbCvySk8tlbL5PFqzZJ3/ErzdmD7pV36c26IA8kD3ga3chZCOE1uXZMwi26ImY5Vjhq3c3J9boaTyeP5X0N2GSl1D1GlPfiJv1OKB12+iiTJ2M06PWWIKfBF65Da3wRTTRIiR+ZMDHnME+Wb6pSQzrg3xOTs6M7XdAMaW3SvI1q/bKfbPKjJ23I/K88t3X9yW2cHvQ7RC9AVBeYn39+rp9xnpAzdeTpKO7sZzQBJTydbPoAg6AvJnInw4B/4wB+AckXg9oStEMPam4F/Nml+QrISC+AqmHMal1X5HnZoIn3ziAaTcrd3Um0HgALQA+rPdj+TfPdtXDs6W5Aq/A8jcTzaOHLl1B5E/P5lnwcrXomr9mbZzJILaFOOdi9oGvtGtjAN21/Q/G/H3M0nxxVL58ATtAD2HQQ5F2m64ZnoDi0eOknMSfHrn6L0wa/RiPY2pJjjyG5f9t3My3WGCScmpIjyvs/QKyTu23k8RggDhLs+JE0BrlbXbQKCi6TVqPQn0cUJYTHHqb41DVWjfG+66EV5Vj2qTcj9E4FePxUvbYX0zItgI74wNCzje9uk+e3cGuXYI8+ni2SLxJw6SCytYj17UnUF7j9iUcxHzhoblyDUek6I8sNAKKTv0+jZv2KkZiJQab/sBCuypI9j55TctjyCjmLKCJWO6fGZojZzEfP50NmLqgVFcR6cFQv2MvgPry2Sbt2j0zJbufzeBrb1T06E0A6VYP4GzCwBfjDZw4LHH+vnoA+rMpumfuQ1YJ7WFY0EOeNDKr8aISVtcOYR5gjP4Gj24Ph3l0YiiXm+rZrd7TbKwvWMlPrlSRV5f4GSt2khQ0aZo178mmZzv4JskN/Zs4u09/VOkoFnaciA/+GWb1phAfKEU7aJhYFYC+zKReojKB/tyK3tcNHrqKVyOLa1hToBFE/dGGZh1CNCUpl/iehf+zd8zPROw2UBSkZlbV6ITQGly+n/sajLF6JFrhUKRbJV3X0useD8VTl3XrwsvtqHI9yFnXCeqwoYtIdcZOJ4aMNABAN0k38MA3e9YGki6k1Z9BaWBwruK1EVfQu9sl6ua0xYSMEUMZIEYeBTmCX5jykyxa1gAC3STRwAXf7KEFNB2jdYwPG3CbD9i8mytuLHltnsr6SwMf/HSIBjig6d3t6Hs357k6KnLwXrZQYBD8bEGqF9o5CH4vEDVbihwEP1uQ6oV2DoLfC0TNliL/HyOEvS6Nh8GPAAAAAElFTkSuQmCC;" parent="1" vertex="1">
          <mxGeometry x="-220" y="690" width="87" height="72.61" as="geometry" />
        </mxCell>
      </root>
    </mxGraphModel>
  </diagram>
  <diagram id="kSYqeyOZFVMAVjLyIhDl" name="Page-2">
    <mxGraphModel dx="794" dy="446" grid="1" gridSize="10" guides="1" tooltips="1" connect="1" arrows="1" fold="1" page="1" pageScale="1" pageWidth="827" pageHeight="1169" math="0" shadow="0">
      <root>
        <mxCell id="0" />
        <mxCell id="1" parent="0" />
        <mxCell id="GFCCM1Ih41B1CgNRltWL-1" style="edgeStyle=orthogonalEdgeStyle;rounded=0;orthogonalLoop=1;jettySize=auto;html=1;entryX=0.5;entryY=0;entryDx=0;entryDy=0;exitX=0.5;exitY=0;exitDx=0;exitDy=0;" parent="1" source="GFCCM1Ih41B1CgNRltWL-2" target="GFCCM1Ih41B1CgNRltWL-4" edge="1">
          <mxGeometry relative="1" as="geometry" />
        </mxCell>
        <mxCell id="GFCCM1Ih41B1CgNRltWL-2" value="Slack" style="rounded=0;whiteSpace=wrap;html=1;" parent="1" vertex="1">
          <mxGeometry x="40" y="60" width="120" height="60" as="geometry" />
        </mxCell>
        <mxCell id="GFCCM1Ih41B1CgNRltWL-3" style="edgeStyle=orthogonalEdgeStyle;rounded=0;orthogonalLoop=1;jettySize=auto;html=1;entryX=0.5;entryY=1;entryDx=0;entryDy=0;exitX=0.5;exitY=1;exitDx=0;exitDy=0;" parent="1" source="GFCCM1Ih41B1CgNRltWL-4" target="GFCCM1Ih41B1CgNRltWL-2" edge="1">
          <mxGeometry relative="1" as="geometry">
            <Array as="points">
              <mxPoint x="690" y="380" />
              <mxPoint x="100" y="380" />
            </Array>
          </mxGeometry>
        </mxCell>
        <mxCell id="GFCCM1Ih41B1CgNRltWL-4" value="Chatter" style="rounded=0;whiteSpace=wrap;html=1;" parent="1" vertex="1">
          <mxGeometry x="630" y="60" width="120" height="60" as="geometry" />
        </mxCell>
        <mxCell id="GFCCM1Ih41B1CgNRltWL-5" value="Slack&lt;br&gt;Object" style="shape=cylinder3;whiteSpace=wrap;html=1;boundedLbl=1;backgroundOutline=1;size=15;" parent="1" vertex="1">
          <mxGeometry x="250" y="240" width="60" height="80" as="geometry" />
        </mxCell>
        <mxCell id="GFCCM1Ih41B1CgNRltWL-6" value="Chatter&lt;br&gt;Object" style="shape=cylinder3;whiteSpace=wrap;html=1;boundedLbl=1;backgroundOutline=1;size=15;" parent="1" vertex="1">
          <mxGeometry x="480" y="240" width="60" height="80" as="geometry" />
        </mxCell>
        <mxCell id="GFCCM1Ih41B1CgNRltWL-7" style="edgeStyle=orthogonalEdgeStyle;rounded=0;orthogonalLoop=1;jettySize=auto;html=1;entryX=0;entryY=0;entryDx=0;entryDy=52.5;entryPerimeter=0;" parent="1" source="GFCCM1Ih41B1CgNRltWL-2" target="GFCCM1Ih41B1CgNRltWL-5" edge="1">
          <mxGeometry relative="1" as="geometry" />
        </mxCell>
        <mxCell id="GFCCM1Ih41B1CgNRltWL-8" style="edgeStyle=orthogonalEdgeStyle;rounded=0;orthogonalLoop=1;jettySize=auto;html=1;entryX=1;entryY=0;entryDx=0;entryDy=52.5;entryPerimeter=0;" parent="1" source="GFCCM1Ih41B1CgNRltWL-4" target="GFCCM1Ih41B1CgNRltWL-6" edge="1">
          <mxGeometry relative="1" as="geometry" />
        </mxCell>
        <mxCell id="GFCCM1Ih41B1CgNRltWL-9" style="edgeStyle=orthogonalEdgeStyle;rounded=0;orthogonalLoop=1;jettySize=auto;html=1;entryX=0;entryY=0.5;entryDx=0;entryDy=0;entryPerimeter=0;endArrow=classic;endFill=1;startArrow=classic;startFill=1;" parent="1" source="GFCCM1Ih41B1CgNRltWL-5" target="GFCCM1Ih41B1CgNRltWL-6" edge="1">
          <mxGeometry relative="1" as="geometry" />
        </mxCell>
        <mxCell id="GFCCM1Ih41B1CgNRltWL-10" value="Yet to be implemented to automate the API trigger call" style="ellipse;shape=cloud;whiteSpace=wrap;html=1;" parent="1" vertex="1">
          <mxGeometry x="310" y="350" width="120" height="80" as="geometry" />
        </mxCell>
        <mxCell id="GFCCM1Ih41B1CgNRltWL-11" value="Slack&lt;br&gt;Event trigger&lt;br&gt;Implemented" style="ellipse;shape=cloud;whiteSpace=wrap;html=1;" parent="1" vertex="1">
          <mxGeometry x="290" width="120" height="80" as="geometry" />
        </mxCell>
        <mxCell id="GFCCM1Ih41B1CgNRltWL-12" value="Timestamp of the Slack update used as primary key to update the Chatter.&lt;br&gt;Chatter thread id used to update slack." style="rounded=0;whiteSpace=wrap;html=1;" parent="1" vertex="1">
          <mxGeometry x="300" y="110" width="190" height="130" as="geometry" />
        </mxCell>
        <mxCell id="GFCCM1Ih41B1CgNRltWL-13" value="SLACK OBJECT:&lt;br&gt;Feed Bot Id&lt;br&gt;Thread Id&lt;br&gt;Timestamp" style="rounded=0;whiteSpace=wrap;html=1;" parent="1" vertex="1">
          <mxGeometry x="160" y="480" width="160" height="160" as="geometry" />
        </mxCell>
        <mxCell id="GFCCM1Ih41B1CgNRltWL-14" value="CHATTER OBJECT:&lt;br&gt;Timestamp(Chatter Feed Id)&lt;br&gt;Comment Id&lt;br&gt;URL to the Chatter Message" style="rounded=0;whiteSpace=wrap;html=1;" parent="1" vertex="1">
          <mxGeometry x="490" y="480" width="160" height="160" as="geometry" />
        </mxCell>
      </root>
    </mxGraphModel>
  </diagram>
</mxfile>
